<?xml version="1.0" standalone="no"?>
<!DOCTYPE svg PUBLIC "-//W3C//DTD SVG 20010904//EN"
 "http://www.w3.org/TR/2001/REC-SVG-20010904/DTD/svg10.dtd">
<svg version="1.0" xmlns="http://www.w3.org/2000/svg"
 width="73.000000pt" height="73.000000pt" viewBox="0 0 73.000000 73.000000"
 preserveAspectRatio="xMidYMid meet">
<metadata>
Created by potrace 1.11, written by Peter Selinger 2001-2013
</metadata>
<g transform="translate(0.000000,73.000000) scale(0.100000,-0.100000)"
fill="#000000" stroke="none">
<path d="M289 723 c-8 -79 -83 -133 -166 -120 -44 7 -57 -3 -91 -70 l-20 -37
30 -37 c39 -48 44 -108 15 -161 -11 -21 -26 -38 -33 -38 -18 0 -10 -34 20 -85
25 -42 51 -62 60 -46 7 11 74 6 108 -7 25 -10 71 -62 74 -83 1 -5 2 -16 3 -24
1 -20 133 -22 150 -2 6 8 8 17 4 20 -3 4 1 15 10 25 10 10 15 21 13 23 -3 2
11 15 30 28 26 18 49 24 92 25 57 0 91 20 92 54 0 6 4 12 9 12 5 0 12 12 15
26 5 19 0 33 -19 55 -14 17 -26 36 -26 42 -7 52 -6 78 2 83 5 3 6 10 3 16 -4
6 -3 13 2 17 5 3 17 16 27 28 18 20 18 22 -3 62 -35 69 -48 79 -91 74 -63 -9
-139 34 -147 82 -7 38 -22 45 -93 45 -38 0 -69 -3 -70 -7z m104 -201 c9 -9 40
-28 70 -41 50 -22 55 -27 50 -50 -7 -34 -7 -95 1 -124 4 -19 0 -26 -22 -37
-61 -29 -88 -45 -104 -62 -23 -26 -21 -26 -50 3 -15 15 -50 37 -77 50 -43 19
-50 26 -45 43 10 30 11 98 2 123 -8 24 12 43 61 58 14 4 36 18 50 31 31 29 43
30 64 6z"/>
</g>
</svg>
