<svg width="9" height="16" viewBox="0 0 9 16" fill="none" xmlns="http://www.w3.org/2000/svg">
<mask id="path-1-inside-1" fill="white">
<path fill-rule="evenodd" clip-rule="evenodd" d="M2.34283 0.878587L8.70679 7.24255C9.09732 7.63307 9.09732 8.26624 8.70679 8.65676L2.34283 15.0207C1.9523 15.4112 1.31915 15.4112 0.928619 15.0207C0.538116 14.6302 0.538116 13.997 0.928619 13.6065L5.58548 8.94965L0 8.94965L0 6.94965L5.58548 6.94965L0.928619 2.2928C0.538116 1.90228 0.538116 1.26911 0.928619 0.878587C1.31915 0.488062 1.9523 0.488062 2.34283 0.878587Z"/>
</mask>
<path fill-rule="evenodd" clip-rule="evenodd" d="M2.34283 0.878587L8.70679 7.24255C9.09732 7.63307 9.09732 8.26624 8.70679 8.65676L2.34283 15.0207C1.9523 15.4112 1.31915 15.4112 0.928619 15.0207C0.538116 14.6302 0.538116 13.997 0.928619 13.6065L5.58548 8.94965L0 8.94965L0 6.94965L5.58548 6.94965L0.928619 2.2928C0.538116 1.90228 0.538116 1.26911 0.928619 0.878587C1.31915 0.488062 1.9523 0.488062 2.34283 0.878587Z" fill="#FFC500"/>
<path d="M8.70679 7.24255L7.29257 8.65676L7.29259 8.65678L8.70679 7.24255ZM2.34283 0.878587L3.75705 -0.535626L3.75703 -0.535643L2.34283 0.878587ZM8.70679 8.65676L7.29259 7.24253L7.29257 7.24255L8.70679 8.65676ZM2.34283 15.0207L3.75703 16.435L3.75705 16.4349L2.34283 15.0207ZM0.928619 15.0207L-0.485633 16.4349L-0.485578 16.435L0.928619 15.0207ZM0.928619 13.6065L-0.485593 12.1923L-0.485633 12.1923L0.928619 13.6065ZM5.58548 8.94965L6.99969 10.3639L10.4139 6.94965L5.58548 6.94965V8.94965ZM0 8.94965H-2L-2 10.9497H0L0 8.94965ZM0 6.94965L0 4.94965L-2 4.94965L-2 6.94965L0 6.94965ZM5.58548 6.94965V8.94965H10.4139L6.99969 5.53544L5.58548 6.94965ZM0.928619 2.2928L-0.485633 3.70698L-0.485593 3.70701L0.928619 2.2928ZM0.928619 0.878587L-0.485578 -0.535643L-0.485633 -0.535588L0.928619 0.878587ZM10.121 5.82833L3.75705 -0.535626L0.92862 2.2928L7.29257 8.65676L10.121 5.82833ZM10.121 10.071C11.2926 8.89941 11.2926 6.99989 10.121 5.82832L7.29259 8.65678C6.90205 8.26625 6.90205 7.63306 7.29259 7.24253L10.121 10.071ZM3.75705 16.4349L10.121 10.071L7.29257 7.24255L0.92862 13.6065L3.75705 16.4349ZM-0.485578 16.435C0.686001 17.6065 2.58545 17.6065 3.75703 16.435L0.928637 13.6065C1.31915 13.216 1.95231 13.216 2.34282 13.6065L-0.485578 16.435ZM-0.485633 12.1923C-1.65713 13.3639 -1.65713 15.2633 -0.485633 16.4349L2.34287 13.6065C2.73337 13.9971 2.73337 14.6302 2.34287 15.0207L-0.485633 12.1923ZM4.17127 7.53544L-0.485593 12.1923L2.34283 15.0207L6.99969 10.3639L4.17127 7.53544ZM0 10.9497L5.58548 10.9497L5.58548 6.94965L0 6.94965L0 10.9497ZM-2 6.94965L-2 8.94965H2L2 6.94965L-2 6.94965ZM5.58548 4.94965L0 4.94965L0 8.94965L5.58548 8.94965L5.58548 4.94965ZM-0.485593 3.70701L4.17127 8.36387L6.99969 5.53544L2.34283 0.878586L-0.485593 3.70701ZM-0.485633 -0.535588C-1.65713 0.635976 -1.65713 2.53541 -0.485633 3.70698L2.34287 0.878626C2.73337 1.26914 2.73337 1.90225 2.34287 2.29276L-0.485633 -0.535588ZM3.75703 -0.535643C2.58545 -1.70719 0.686001 -1.70719 -0.485578 -0.535643L2.34282 2.29282C1.95231 2.68332 1.31915 2.68332 0.928637 2.29282L3.75703 -0.535643Z" fill="#FFC500" mask="url(#path-1-inside-1)"/>
</svg>
