<svg width="24" height="25" viewBox="0 0 24 25" fill="none" xmlns="http://www.w3.org/2000/svg">
<g clip-path="url(#clip0)">
<path d="M9 22.5571C9.55228 22.5571 10 22.1094 10 21.5571C10 21.0048 9.55228 20.5571 9 20.5571C8.44772 20.5571 8 21.0048 8 21.5571C8 22.1094 8.44772 22.5571 9 22.5571Z" stroke="white" stroke-width="2" stroke-linecap="round" stroke-linejoin="round"/>
<path d="M20 22.5571C20.5523 22.5571 21 22.1094 21 21.5571C21 21.0048 20.5523 20.5571 20 20.5571C19.4477 20.5571 19 21.0048 19 21.5571C19 22.1094 19.4477 22.5571 20 22.5571Z" stroke="white" stroke-width="2" stroke-linecap="round" stroke-linejoin="round"/>
<path d="M1 1.55737H5L7.68 14.9474C7.77144 15.4078 8.02191 15.8213 8.38755 16.1157C8.75318 16.41 9.2107 16.5664 9.68 16.5574H19.4C19.8693 16.5664 20.3268 16.41 20.6925 16.1157C21.0581 15.8213 21.3086 15.4078 21.4 14.9474L23 6.55737H6" stroke="white" stroke-width="2" stroke-linecap="round" stroke-linejoin="round"/>
</g>
<defs>
<clipPath id="clip0">
<rect width="24" height="24" fill="white" transform="translate(0 0.557129)"/>
</clipPath>
</defs>
</svg>
