<svg width="20" height="20" viewBox="0 0 20 20" fill="none" xmlns="http://www.w3.org/2000/svg">
<path d="M1 11V16C1 17.1046 1.89543 18 3 18H17C18.1046 18 19 17.1046 19 16V11" stroke="black" stroke-width="2"/>
<path d="M9.29289 14.7071C9.68342 15.0976 10.3166 15.0976 10.7071 14.7071L17.0711 8.34315C17.4616 7.95262 17.4616 7.31946 17.0711 6.92893C16.6805 6.53841 16.0474 6.53841 15.6569 6.92893L10 12.5858L4.34315 6.92893C3.95262 6.53841 3.31946 6.53841 2.92893 6.92893C2.53841 7.31946 2.53841 7.95262 2.92893 8.34315L9.29289 14.7071ZM9 1L9 14L11 14L11 1L9 1Z" fill="black"/>
</svg>
