<svg width="32" height="24" viewBox="0 0 32 24" fill="none" xmlns="http://www.w3.org/2000/svg">
<path d="M31.25 1.9375C31.0313 1.5625 30.7188 1.28125 30.3438 1.0625C30 0.875 29.5938 0.75 29.1562 0.75H2.875C2.4375 0.75 2.0625 0.84375 1.6875 1.0625C1.3125 1.25 1 1.5625 0.78125 1.90625C0.5 2.28125 0.375 2.75 0.375 3.25V20.75C0.375 21.2188 0.5 21.6562 0.71875 22.0312C0.9375 22.4062 1.21875 22.6875 1.59375 22.9062C1.96875 23.125 2.40625 23.25 2.875 23.25H29.125C29.5938 23.25 30.0312 23.125 30.4062 22.9062C30.7812 22.6875 31.0625 22.4062 31.2812 22.0312C31.5 21.6562 31.625 21.2188 31.625 20.75V3.25C31.625 2.75 31.5 2.3125 31.25 1.9375ZM29.125 2C29.1562 2 29.1875 2 29.2188 2L17.7812 12C16.9688 12.6875 15.625 12.7188 14.7812 12.0312L2.84375 2H29.125ZM22.75 13.5L21.875 14.375L29.4375 21.9375C29.3438 21.9688 29.2188 22 29.125 22H2.875C2.75 22 2.65625 22 2.5625 21.9375L10.1562 14.375L9.28125 13.5L1.6875 21.0625C1.625 20.9688 1.625 20.875 1.625 20.75V3.25C1.625 3.0625 1.6875 2.875 1.75 2.71875L14 13C14.625 13.5312 15.5 13.875 16.3125 13.875C17.1562 13.875 17.9688 13.5 18.625 12.9375L30.2812 2.75C30.3438 2.90625 30.375 3.0625 30.375 3.25V20.75C30.375 20.875 30.375 20.9688 30.3125 21.0625L22.75 13.5Z" fill="#BDBDBD"/>
</svg>
