<svg width="14" height="12" viewBox="0 0 14 12" fill="none" xmlns="http://www.w3.org/2000/svg">
<path d="M13.0698 0.500001L13.0706 0.5C13.0852 0.499978 13.0987 0.501389 13.1108 0.503733L8.59766 5.69495L8.59662 5.6961L8.596 5.69682L8.59597 5.69679L8.59523 5.69768C8.35559 5.96352 8.21293 6.30095 8.21227 6.66226V6.66317V10.9312L6.82239 10.9312H5.82239H5.73972L5.7096 10.9414C5.70873 10.9414 5.70784 10.9413 5.70692 10.9413C5.69217 10.9404 5.67891 10.9394 5.6613 10.938C5.65388 10.9374 5.64567 10.9368 5.63626 10.9361C5.61155 10.9342 5.57066 10.9312 5.52957 10.9312C5.49136 10.9312 5.46274 10.9214 5.44577 10.9124L5.44578 6.66317L5.44577 6.66226C5.44511 6.30064 5.30221 5.9629 5.06198 5.6969L5.06131 5.69612L5.06026 5.69496L0.547127 0.503762C0.559357 0.501401 0.572943 0.499978 0.58763 0.5V0.500001H0.588402L13.0698 0.500001ZM4.94577 6.66317V10.9513L4.68927 6.03021C4.85542 6.21336 4.94536 6.43526 4.94577 6.66317ZM13.0698 0H0.588402H13.0698Z" stroke="white"/>
</svg>
