<svg width="80" height="80" viewBox="0 0 80 80" fill="none" xmlns="http://www.w3.org/2000/svg">
<path d="M53 12.2V27H56H58C59.7 27 61 28.3 61 30V54.5C66.5 50 70 43.2 70 35.5C70 24.6 62.9 15.3 53 12.2Z" fill="#E9EAEB"/>
<path d="M12 27C10.3 27 9 28.3 9 30V59C9 60.7 10.3 62 12 62H58C59.7 62 61 60.7 61 59V30C61 28.3 59.7 27 58 27H56" stroke="#56437E" stroke-width="2" stroke-miterlimit="10"/>
<path d="M20 12V10C20 9.4 20.4 9 21 9H52C52.6 9 53 9.4 53 10V30" stroke="#56437E" stroke-width="2" stroke-miterlimit="10"/>
<path d="M24 71L26 69H45L47 71" stroke="#56437E" stroke-width="2" stroke-miterlimit="10"/>
<path d="M29 67V62H42V67" stroke="#56437E" stroke-width="2" stroke-miterlimit="10"/>
<path d="M9 56H61" stroke="#56437E" stroke-width="2" stroke-miterlimit="10"/>
<path d="M15 50V15C15 14.4 15.4 14 16 14H47C47.6 14 48 14.4 48 15V38" stroke="#56437E" stroke-width="2" stroke-miterlimit="10"/>
<path d="M14 22H41" stroke="#56437E" stroke-width="2" stroke-miterlimit="10"/>
<path d="M18 18H20" stroke="#56437E" stroke-width="2" stroke-miterlimit="10"/>
<path d="M22 18H24" stroke="#56437E" stroke-width="2" stroke-miterlimit="10"/>
<path d="M26 18H28" stroke="#56437E" stroke-width="2" stroke-miterlimit="10"/>
<path d="M48 40V42" stroke="#56437E" stroke-width="2" stroke-miterlimit="10"/>
<path d="M53 36V38" stroke="#56437E" stroke-width="2" stroke-miterlimit="10"/>
<path d="M53 32V34" stroke="#56437E" stroke-width="2" stroke-miterlimit="10"/>
<path d="M44.0004 36.5L42.4004 32.6L39.4004 33.9C38.8004 33 38.0004 32.3 37.2004 31.7L38.5004 28.7L34.5004 27L33.2004 30C32.2004 29.8 31.1004 29.8 30.1004 30L28.8004 27L24.9004 28.6L26.2004 31.6C25.3004 32.2 24.6004 33 24.0004 33.8L21.0004 32.5L19.4004 36.4L22.4004 37.7C22.2004 38.7 22.2004 39.8 22.4004 40.8L19.4004 42.1L21.0004 46L24.0004 44.7C24.6004 45.6 25.4004 46.3 26.2004 46.9L24.9004 49.9L28.8004 51.5L30.1004 48.5C31.1004 48.7 32.2004 48.7 33.2004 48.5L34.5004 51.5L38.4004 49.9L37.1004 46.9C38.0004 46.3 38.7004 45.5 39.3004 44.7L42.3004 46L43.9004 42.1L40.9004 40.8C41.1004 39.8 41.1004 38.7 40.9004 37.7L44.0004 36.5Z" fill="#D1BBFF" stroke="#56437E" stroke-width="2" stroke-miterlimit="10"/>
<path d="M35.4996 37.8C36.3996 39.9 35.3996 42.3 33.2996 43.2C31.1996 44.1 28.7996 43.1 27.8996 41C26.9996 38.9 27.9996 36.5 30.0996 35.6C32.1996 34.7 34.5996 35.7 35.4996 37.8Z" fill="white" stroke="#56437E" stroke-width="2" stroke-miterlimit="10"/>
</svg>
