<svg width="80" height="80" viewBox="0 0 80 80" fill="none" xmlns="http://www.w3.org/2000/svg">
<path d="M40 68C56.0163 68 69 55.0163 69 39C69 22.9837 56.0163 10 40 10C23.9837 10 11 22.9837 11 39C11 55.0163 23.9837 68 40 68Z" fill="#E9EAEB"/>
<path d="M66 14H14V54H66V14Z" fill="white"/>
<path d="M53.0002 47.7C53.5002 47.5 53.9002 47.3 54.4002 47.3C56.1002 47.3 60.1002 50.2 61.4002 49C62.4002 48.1 59.5002 44 59.5002 42.7C59.5002 41.1 61.6002 39.9 61.6002 38.4C61.6002 36.8 59.5002 35.6 59.5002 34.1C59.5002 32.5 61.8002 31.3 61.8002 29.8C61.8002 28.2 59.5002 27 59.5002 25.5C59.5002 24 62.7002 20.3 61.4002 19.2C60.2002 18 56.1002 20.9 54.4002 20.9C52.7002 20.9 51.3002 18.9 49.6002 18.9C47.9002 18.9 46.5002 20.9 44.8002 20.9C43.1002 20.9 41.7002 18.9 40.0002 18.9C38.3002 18.9 36.9002 20.9 35.2002 20.9C33.5002 20.9 32.1002 18.9 30.4002 18.9C28.7002 18.9 27.3002 20.9 25.6002 20.9C23.9002 20.9 19.9002 18 18.6002 19.2C17.3002 20.3 20.5002 23.9 20.5002 25.5C20.5002 27.1 18.2002 28.3 18.2002 29.8C18.2002 31.4 20.5002 32.6 20.5002 34.1C20.5002 35.7 18.2002 36.9 18.2002 38.4C18.2002 39.9 20.5002 41.2 20.5002 42.7C20.5002 44.2 17.3002 47.9 18.6002 49C19.8002 50.2 23.9002 47.3 25.6002 47.3C26.1002 47.3 26.6002 47.5 27.0002 47.7" stroke="#56437E" stroke-width="2" stroke-miterlimit="10"/>
<path d="M34 27H47" stroke="#56437E" stroke-width="2" stroke-miterlimit="10"/>
<path d="M30 32H51" stroke="#56437E" stroke-width="2" stroke-miterlimit="10"/>
<path d="M27 54H19" stroke="#56437E" stroke-width="2" stroke-miterlimit="10"/>
<path d="M61 54H53" stroke="#56437E" stroke-width="2" stroke-miterlimit="10"/>
<path d="M66 37V54H63" stroke="#56437E" stroke-width="2" stroke-miterlimit="10"/>
<path d="M63 14H66V31" stroke="#56437E" stroke-width="2" stroke-miterlimit="10"/>
<path d="M19 14H61" stroke="#56437E" stroke-width="2" stroke-miterlimit="10"/>
<path d="M66 33V35" stroke="#56437E" stroke-width="2" stroke-miterlimit="10"/>
<path d="M14 37V54H17" stroke="#56437E" stroke-width="2" stroke-miterlimit="10"/>
<path d="M17 14H14V31" stroke="#56437E" stroke-width="2" stroke-miterlimit="10"/>
<path d="M14 33V35" stroke="#56437E" stroke-width="2" stroke-miterlimit="10"/>
<path d="M36 55V70L40 67L44 70V55H36Z" fill="white" stroke="#56437E" stroke-width="2" stroke-miterlimit="10" stroke-linejoin="round"/>
<path d="M40.0004 39.5C42.0004 36.5 46.7004 38.4 46.0004 42C49.6004 41.3 51.5004 46 48.5004 48C51.5004 50 49.6004 54.7 46.0004 54C46.7004 57.6 42.0004 59.5 40.0004 56.5C38.0004 59.5 33.3004 57.6 34.0004 54C30.4004 54.7 28.5004 50 31.5004 48C28.5004 46 30.4004 41.3 34.0004 42C33.3004 38.4 38.0004 36.4 40.0004 39.5Z" fill="#D1BBFF" stroke="#56437E" stroke-width="2" stroke-miterlimit="10" stroke-linejoin="round"/>
<path d="M34 42L35 43" stroke="#56437E" stroke-width="2" stroke-miterlimit="10" stroke-linejoin="round"/>
<path d="M46 54L45 53" stroke="#56437E" stroke-width="2" stroke-miterlimit="10" stroke-linejoin="round"/>
<path d="M46 42L45 43" stroke="#56437E" stroke-width="2" stroke-miterlimit="10" stroke-linejoin="round"/>
<path d="M34 54L35 53" stroke="#56437E" stroke-width="2" stroke-miterlimit="10" stroke-linejoin="round"/>
<path d="M49 48H47" stroke="#56437E" stroke-width="2" stroke-miterlimit="10" stroke-linejoin="round"/>
<path d="M33 48H31" stroke="#56437E" stroke-width="2" stroke-miterlimit="10" stroke-linejoin="round"/>
<path d="M40 39V41" stroke="#56437E" stroke-width="2" stroke-miterlimit="10" stroke-linejoin="round"/>
<path d="M40 57V55" stroke="#56437E" stroke-width="2" stroke-miterlimit="10" stroke-linejoin="round"/>
<path d="M40 52C42.2091 52 44 50.2091 44 48C44 45.7909 42.2091 44 40 44C37.7909 44 36 45.7909 36 48C36 50.2091 37.7909 52 40 52Z" fill="white" stroke="#56437E" stroke-width="2" stroke-miterlimit="10" stroke-linejoin="round"/>
</svg>
