<svg width="80" height="80" viewBox="0 0 80 80" fill="none" xmlns="http://www.w3.org/2000/svg">
<path d="M53.5 50.7C63.165 50.7 71 42.865 71 33.2C71 23.535 63.165 15.7 53.5 15.7C43.835 15.7 36 23.535 36 33.2C36 42.865 43.835 50.7 53.5 50.7Z" fill="#E9EAEB"/>
<path d="M47 20.7H37.2C36.8 19.7 35.7 18.9 34.5 18.9C34.1 18.9 33.8 18.9 33.4 19.1C32.7 17.3 31 16 29 16C26.4 16 24.3 18.7 24.3 20.7H15" stroke="#BCC0C4" stroke-width="2" stroke-miterlimit="10"/>
<path d="M71 25.7H67C66.3 24.7 65 23.6 63.3 23.8C62.6 22.6 61.3 21.6 59.7 21.6C57.4 21.6 55.6 23.6 55.6 25.6H46" stroke="#BCC0C4" stroke-width="2" stroke-miterlimit="10"/>
<path d="M70 54.7C70 53.5 70.5 49.2 67.6 48.5C67.4 48 66.3 45.7 65.4 43.7C64.6 41.9 62.7 40.7 60.7 40.7H53V59.7H69.6C69.6 59.7 71 58.8 71 57.7C71 56.7 71.3 55.1 70 54.7Z" fill="#D1BBFF"/>
<path d="M53 59.7H69.6C69.6 59.7 71 58.8 71 57.7C71 56.7 71.3 55 70 54.7C70 53.5 70.5 49.2 67.6 48.5C67.4 48 66.3 45.7 65.4 43.7C64.6 41.9 62.7 40.7 60.7 40.7H53" stroke="#56437E" stroke-width="2" stroke-miterlimit="10"/>
<path d="M63 48.6L61.4 45.1C61.3 44.8 61 44.7 60.7 44.7H57V49.7H62.3C62.9 49.7 63.3 49.1 63 48.6Z" fill="white" stroke="#56437E" stroke-width="2" stroke-miterlimit="10"/>
<path d="M21 31.7V39.7V50.7V59.7H53V31.7H21Z" fill="white"/>
<path d="M21 39.7V31.7H53V59.7H21V50.7" stroke="#56437E" stroke-width="2" stroke-miterlimit="10"/>
<path d="M21 48.7V42.7" stroke="#56437E" stroke-width="2" stroke-miterlimit="10"/>
<path d="M34 59.7C34 61.9 32.2 63.7 30 63.7C27.8 63.7 26 61.9 26 59.7C26 57.5 27.8 55.7 30 55.7C32.2 55.7 34 57.5 34 59.7Z" fill="#E9EAEB" stroke="#56437E" stroke-width="2" stroke-miterlimit="10"/>
<path d="M64 59.7C64 61.9 62.2 63.7 60 63.7C57.8 63.7 56 61.9 56 59.7C56 57.5 57.8 55.7 60 55.7C62.2 55.7 64 57.5 64 59.7Z" fill="#E9EAEB" stroke="#56437E" stroke-width="2" stroke-miterlimit="10"/>
<path d="M31 47.7H12" stroke="#56437E" stroke-width="2" stroke-miterlimit="10"/>
<path d="M42 39.7H17" stroke="#56437E" stroke-width="2" stroke-miterlimit="10"/>
<path d="M48 31.7H17" stroke="#56437E" stroke-width="2" stroke-miterlimit="10"/>
<path d="M15 31.7H13" stroke="#56437E" stroke-width="2" stroke-miterlimit="10"/>
<path d="M11 31.7H9" stroke="#56437E" stroke-width="2" stroke-miterlimit="10"/>
<path d="M10 47.7H8" stroke="#56437E" stroke-width="2" stroke-miterlimit="10"/>
<path d="M15 39.7H13" stroke="#56437E" stroke-width="2" stroke-miterlimit="10"/>
</svg>
