<svg width="80" height="80" viewBox="0 0 80 80" fill="none" xmlns="http://www.w3.org/2000/svg">
<path d="M63 67.7H17C12.6 67.7 9 64.1 9 59.7V52.7H71V59.7C71 64.1 67.4 67.7 63 67.7Z" fill="#E9EAEB"/>
<path d="M68 50.7C68 49.5 68.5 45.2 65.6 44.5C65.4 44 64.3 41.7 63.4 39.7C62.6 37.9 60.7 36.7 58.7 36.7H51V55.7H67.6C67.6 55.7 69 54.8 69 53.7C69 52.7 69.3 51.1 68 50.7Z" fill="#D1BBFF"/>
<path d="M16 16.7H14" stroke="#BCC0C4" stroke-width="2" stroke-miterlimit="10"/>
<path d="M12 16.7H10" stroke="#BCC0C4" stroke-width="2" stroke-miterlimit="10"/>
<path d="M46 16.7H36.2C35.8 15.7 34.7 14.9 33.5 14.9C33.1 14.9 32.8 14.9 32.4 15.1C31.7 13.3 30 12 28 12C25.4 12 23.3 14.7 23.3 16.7H18" stroke="#BCC0C4" stroke-width="2" stroke-miterlimit="10"/>
<path d="M70 21.7H66C65.3 20.7 64 19.6 62.3 19.8C61.6 18.6 60.3 17.6 58.7 17.6C56.4 17.6 54.6 19.6 54.6 21.6H45" stroke="#BCC0C4" stroke-width="2" stroke-miterlimit="10"/>
<path d="M51 55.7H67.6C67.6 55.7 69 54.8 69 53.7C69 52.7 69.3 51 68 50.7C68 49.5 68.5 45.2 65.6 44.5C65.4 44 64.3 41.7 63.4 39.7C62.6 37.9 60.7 36.7 58.7 36.7H51" stroke="#56437E" stroke-width="2" stroke-miterlimit="10"/>
<path d="M61 44.6L59.4 41.1C59.3 40.8 59 40.7 58.7 40.7H55V45.7H60.3C60.9 45.7 61.3 45.1 61 44.6Z" fill="white" stroke="#56437E" stroke-width="2" stroke-miterlimit="10"/>
<path d="M51 27.7H18V55.7H51V27.7Z" fill="white" stroke="#56437E" stroke-width="2" stroke-miterlimit="10"/>
<path d="M31 55.7C31 57.9 29.2 59.7 27 59.7C24.8 59.7 23 57.9 23 55.7C23 53.5 24.8 51.7 27 51.7C29.2 51.7 31 53.5 31 55.7Z" fill="#E9EAEB" stroke="#2A5082" stroke-width="2" stroke-miterlimit="10"/>
<path d="M62 55.7C62 57.9 60.2 59.7 58 59.7C55.8 59.7 54 57.9 54 55.7C54 53.5 55.8 51.7 58 51.7C60.2 51.7 62 53.5 62 55.7Z" fill="#E9EAEB" stroke="#56437E" stroke-width="2" stroke-miterlimit="10"/>
<path d="M38 40.7H12V59.7H38V40.7Z" fill="white" stroke="#56437E" stroke-width="2" stroke-miterlimit="10"/>
<path d="M29 40.7H21V45.7H29V40.7Z" fill="#D1BBFF" stroke="#56437E" stroke-width="2" stroke-miterlimit="10"/>
<path d="M15 55.7H17" stroke="#56437E" stroke-width="2" stroke-miterlimit="10"/>
<path d="M19 55.7H21" stroke="#56437E" stroke-width="2" stroke-miterlimit="10"/>
<path d="M23 55.7H25" stroke="#56437E" stroke-width="2" stroke-miterlimit="10"/>
</svg>
