<svg width="80" height="80" viewBox="0 0 80 80" fill="none" xmlns="http://www.w3.org/2000/svg">
<path d="M68.0001 40.0004C68.0001 24.5364 55.4641 12.0004 40.0001 12.0004C24.536 12.0004 12 24.5364 12 40.0004C12 55.4644 24.5361 68.0005 40.0001 68.0005C55.4641 68.0005 68.0001 55.4644 68.0001 40.0004Z" fill="#E9EAEB"/>
<path d="M37 16L34 14L31 16L28 14L25 16L21 14V54C21 56.2 22.8 58 25 58H41V14L37 16Z" fill="white"/>
<path d="M33 23C30.8 23 29 24.8 29 27V54C29 56.2 27.2 58 25 58H37V23H33Z" fill="#E9EAEB"/>
<path d="M38 38V27C38 24.8 36.2 23 34 23H54C56.2 23 58 24.8 58 27V38H38Z" fill="white"/>
<path d="M41 20V14L37 16L34 14L31 16L28 14L25 16L21 14V54C21 56.2 22.8 58 25 58" stroke="#56437E" stroke-width="2" stroke-miterlimit="10"/>
<path d="M25 58C27.2 58 29 56.2 29 54V27C29 24.8 30.8 23 33 23H34" stroke="#56437E" stroke-width="2" stroke-miterlimit="10"/>
<path d="M34 68V37C34 35.9 34.9 35 36 35H60C61.1 35 62 35.9 62 37V68C62 69.1 61.1 70 60 70H36C34.9 70 34 69.1 34 68Z" fill="white" stroke="#56437E" stroke-width="2" stroke-miterlimit="10"/>
<path d="M56 43H40V49H56V43Z" fill="#D1BBFF" stroke="#56437E" stroke-width="2" stroke-miterlimit="10"/>
<path d="M39 53H43" stroke="#56437E" stroke-width="2" stroke-miterlimit="10"/>
<path d="M46 53H50" stroke="#56437E" stroke-width="2" stroke-miterlimit="10"/>
<path d="M53 53H57" stroke="#56437E" stroke-width="2" stroke-miterlimit="10"/>
<path d="M39 57H43" stroke="#56437E" stroke-width="2" stroke-miterlimit="10"/>
<path d="M46 57H50" stroke="#56437E" stroke-width="2" stroke-miterlimit="10"/>
<path d="M53 57H57" stroke="#56437E" stroke-width="2" stroke-miterlimit="10"/>
<path d="M53 61H57" stroke="#56437E" stroke-width="2" stroke-miterlimit="10"/>
<path d="M50 61H46" stroke="#56437E" stroke-width="2" stroke-miterlimit="10"/>
<path d="M43 61H39" stroke="#56437E" stroke-width="2" stroke-miterlimit="10"/>
<path d="M38 38V27C38 24.8 36.2 23 34 23H54C56.2 23 58 24.8 58 27V38H38Z" fill="white" stroke="#56437E" stroke-width="2" stroke-miterlimit="10"/>
<path d="M25 58H32" stroke="#56437E" stroke-width="2" stroke-miterlimit="10"/>
</svg>
