<svg width="80" height="80" viewBox="0 0 80 80" fill="none" xmlns="http://www.w3.org/2000/svg">
<path d="M37 50C47.4934 50 56 41.4934 56 31C56 20.5066 47.4934 12 37 12C26.5066 12 18 20.5066 18 31C18 41.4934 26.5066 50 37 50Z" fill="#E9EAEB"/>
<path d="M27 26V32" stroke="#BCC0C4" stroke-width="2" stroke-miterlimit="10"/>
<path d="M30 29H24" stroke="#BCC0C4" stroke-width="2" stroke-miterlimit="10"/>
<path d="M68 35V41" stroke="#BCC0C4" stroke-width="2" stroke-miterlimit="10"/>
<path d="M71 38H65" stroke="#BCC0C4" stroke-width="2" stroke-miterlimit="10"/>
<path d="M18 65C18 65 35.3 65 39 65C41.9 65 52.3 61.9 53.4 61.1C54.5 60.3 61.2 52.6 62.9 50.3C62.5 49.2 60.8 48.2 58.5 48.4C55.9 48.7 52.6 53.7 52.4 53.8L44.3 55.6C44 55.5 41.2 54.6 38.5 53.9C37.6 53.7 36 51.6 36 51.4C36 50.4 36.4 50.4 38 49.6C39.1 49 42.6 48.4 43.8 45.6C44.9 43.1 44.2 40.6 39.7 42.4C37.8 43.1 29.8 45.4 26.4 46.8C25.1 48.1 23.2 50.8 21.8 51.8H18V65Z" fill="white" stroke="#56437E" stroke-width="2" stroke-miterlimit="10"/>
<path d="M44.5004 30.4C44.5004 27.8 42.4004 25.6 39.7004 25.6C37.1004 25.6 34.9004 27.7 34.9004 30.4C34.9004 33 37.0004 35.2 39.7004 35.2C42.4004 35.2 44.5004 33.1 44.5004 30.4Z" fill="#D1BBFF" stroke="#56437E" stroke-width="2" stroke-miterlimit="10"/>
<path d="M59.6996 20.3C59.6996 17.7 57.5996 15.5 54.8996 15.5C52.1996 15.5 50.0996 17.6 50.0996 20.3C50.0996 22.9 52.1996 25.1 54.8996 25.1C57.5996 25.1 59.6996 23 59.6996 20.3Z" fill="#D1BBFF" stroke="#56437E" stroke-width="2" stroke-miterlimit="10"/>
<path d="M53.2004 44.6C55.8514 44.6 58.0004 42.451 58.0004 39.8C58.0004 37.149 55.8514 35 53.2004 35C50.5494 35 48.4004 37.149 48.4004 39.8C48.4004 42.451 50.5494 44.6 53.2004 44.6Z" fill="#D1BBFF" stroke="#56437E" stroke-width="2" stroke-miterlimit="10"/>
<path d="M19 47H9V68H19V47Z" fill="#D1BBFF" stroke="#56437E" stroke-width="2" stroke-miterlimit="10"/>
<path d="M14 51V54" stroke="#56437E" stroke-width="2" stroke-miterlimit="10"/>
<path d="M40 21V29" stroke="#56437E" stroke-width="2" stroke-miterlimit="10"/>
<path d="M40 17V19" stroke="#56437E" stroke-width="2" stroke-miterlimit="10"/>
<path d="M65 16V31" stroke="#BCC0C4" stroke-width="2" stroke-miterlimit="10"/>
</svg>
