<svg width="80" height="80" viewBox="0 0 80 80" fill="none" xmlns="http://www.w3.org/2000/svg">
<path d="M40 19H54.1C54.7 23 58 25.6 62 26.2C62 33.7 62 42.4 62 46.4C62 57.2 42.8 66.5 40 66.5C37.2 66.5 18 57.2 18 46.4C18 42.5 18 33.8 18 26.2C22 25.6 25.3 23 25.9 19H40Z" fill="white" stroke="#56437E" stroke-width="2" stroke-miterlimit="10"/>
<path d="M68.0002 37V46.3C68.0002 53.1 63.6002 59.6 55.2002 65.5" stroke="#BCC0C4" stroke-width="2" stroke-miterlimit="10"/>
<path d="M47 14H55" stroke="#BCC0C4" stroke-width="2" stroke-miterlimit="10"/>
<path d="M25 14H33" stroke="#BCC0C4" stroke-width="2" stroke-miterlimit="10"/>
<path d="M24.8 65.6C16.4 59.7 12 53.1 12 46.3V37" stroke="#BCC0C4" stroke-width="2" stroke-miterlimit="10"/>
<path d="M53.7 41.4C53.7 49.5 47.2 56 39.1 56C31 56 24.5 49.5 24.5 41.4C24.5 33.3 31 26.8 39.1 26.8C40.9 26.8 42.7 27.1 44.3 27.8" stroke="#56437E" stroke-width="2" stroke-miterlimit="10"/>
<path d="M53.1996 26.9L39.9996 40L34.4996 34.6L30.0996 39L39.9996 48.8L57.5996 31.3L53.1996 26.9Z" fill="#D1BBFF" stroke="#56437E" stroke-width="2" stroke-miterlimit="10"/>
<path d="M68 25V27" stroke="#BCC0C4" stroke-width="2" stroke-miterlimit="10"/>
<path d="M68 29V31" stroke="#BCC0C4" stroke-width="2" stroke-miterlimit="10"/>
<path d="M68 33V35" stroke="#BCC0C4" stroke-width="2" stroke-miterlimit="10"/>
<path d="M12 25V27" stroke="#BCC0C4" stroke-width="2" stroke-miterlimit="10"/>
<path d="M12 29V31" stroke="#BCC0C4" stroke-width="2" stroke-miterlimit="10"/>
<path d="M12 33V35" stroke="#BCC0C4" stroke-width="2" stroke-miterlimit="10"/>
<path d="M39 14H41" stroke="#BCC0C4" stroke-width="2" stroke-miterlimit="10"/>
<path d="M35 14H37" stroke="#BCC0C4" stroke-width="2" stroke-miterlimit="10"/>
<path d="M43 14H45" stroke="#BCC0C4" stroke-width="2" stroke-miterlimit="10"/>
</svg>
