<svg width="54" height="57" viewBox="0 0 54 57" fill="none" xmlns="http://www.w3.org/2000/svg">
<path d="M54 27C54 12.1 41.9 0 27 0C12.1 0 0 12.1 0 27C0 41.9 12.1 54 27 54C41.9 54 54 41.9 54 27Z" fill="#E9EAEB"/>
<path d="M29 51V47C29 47 33 44.6 33 40C33 32 33 22 33 22L18.6 20L12.2 25.2C10.8 26.5 10 28.4 10 30.3V39.7V51H29Z" fill="white" stroke="#56437E" stroke-width="2" stroke-miterlimit="10"/>
<path d="M15.2002 15.7999L13.8002 30.0999C13.7002 31.5999 14.8002 32.8999 16.4002 32.9999L19.1002 33.2999C19.7002 33.3999 20.1002 33.8999 20.1002 34.3999C20.0002 34.9999 20.5002 35.4999 21.1002 35.4999L45.0002 37.7999C46.6002 37.9999 47.9002 36.8999 48.1002 35.3999L49.7002 19.0999C49.8002 17.5999 48.7002 16.2999 47.1002 16.1999L18.3002 13.3999C16.7002 13.2999 15.3002 14.2999 15.2002 15.7999Z" fill="white" stroke="#56437E" stroke-width="2" stroke-miterlimit="10"/>
<path d="M10.8999 16.7L13.0999 31C13.2999 32.5 13.6999 35.5 15.2999 35.2L18.9999 32.7C19.5999 32.6 20.0999 33 20.1999 33.5C20.2999 34.1 20.7999 34.4 21.3999 34.3L45.0999 30.6C46.6999 30.4 47.6999 29 47.4999 27.5L44.9999 11.3C44.7999 9.80005 43.2999 8.90005 41.7999 9.10005L13.1999 13.6C11.6999 13.9 10.6999 15.3 10.8999 16.7Z" fill="white" stroke="#56437E" stroke-width="2" stroke-miterlimit="10"/>
<path d="M46.3999 29.6L15.2999 34.7C14.8999 34.8 14.3999 34.5 14.3999 34L13.7999 30.5C13.6999 30.1 13.9999 29.6 14.4999 29.6L45.5999 24.5C45.9999 24.4 46.4999 24.7 46.4999 25.2L47.0999 28.7C47.1999 29.1 46.8999 29.5 46.3999 29.6Z" fill="#D1BBFF"/>
<path d="M12.8999 29.4L46.9999 23.7" stroke="#56437E" stroke-width="2" stroke-miterlimit="10"/>
<path d="M26.2998 23.2C23.9998 25.6 14.2998 35.5 14.2998 35.5L22.8998 44.8C22.8998 44.8 26.2998 40.7 23.9998 35.7C23.9998 35.7 27.9998 31.2 28.9998 29.8C31.2998 26.6 28.5998 20.9 26.2998 23.2Z" fill="white"/>
<path d="M13.8999 35.3C13.8999 35.3 23.9999 25.5 26.2999 23.2C28.5999 20.9 31.2999 26.6 29.0999 29.8C28.0999 31.2 24.0999 35.7 24.0999 35.7C26.2999 40.7 22.9999 44.8 22.9999 44.8" stroke="#56437E" stroke-width="2" stroke-miterlimit="10"/>
<path d="M32 50H8V57H32V50Z" fill="#E9EAEB"/>
<path d="M8 57V50H32V57" stroke="#56437E" stroke-width="2" stroke-miterlimit="10"/>
<path d="M11 54H14" stroke="#56437E" stroke-width="2" stroke-miterlimit="10"/>
<path d="M38.2002 19.4C39.857 19.4 41.2002 18.0569 41.2002 16.4C41.2002 14.7432 39.857 13.4 38.2002 13.4C36.5433 13.4 35.2002 14.7432 35.2002 16.4C35.2002 18.0569 36.5433 19.4 38.2002 19.4Z" fill="white" stroke="#56437E" stroke-width="2" stroke-miterlimit="10"/>
<path d="M14.7002 20.6L17.9002 20.1" stroke="#56437E" stroke-width="2" stroke-miterlimit="10"/>
<path d="M19.3999 19.9L22.5999 19.4" stroke="#56437E" stroke-width="2" stroke-miterlimit="10"/>
<path d="M24.1001 19.1L27.3001 18.6" stroke="#56437E" stroke-width="2" stroke-miterlimit="10"/>
<path d="M28.6001 18.3L31.7001 17.8" stroke="#56437E" stroke-width="2" stroke-miterlimit="10"/>
</svg>
