<svg width="80" height="80" viewBox="0 0 80 80" fill="none" xmlns="http://www.w3.org/2000/svg">
<path d="M64.9443 59.5C64.3443 60.4 63.6443 61.2 62.9443 62" stroke="#BCC0C4" stroke-width="2" stroke-miterlimit="10"/>
<path d="M67.9447 54.4C67.4447 55.4 66.9447 56.4 66.3447 57.4" stroke="#BCC0C4" stroke-width="2" stroke-miterlimit="10"/>
<path d="M69.8447 49.4C69.5447 50.4 69.2447 51.4 68.8447 52.4" stroke="#BCC0C4" stroke-width="2" stroke-miterlimit="10"/>
<path d="M63.4443 20.4C69.9443 28.1 72.2443 38.1 70.3443 47.4" stroke="#BCC0C4" stroke-width="2" stroke-miterlimit="10"/>
<path d="M15.6445 21.4C16.4445 20.4 17.2445 19.4 18.2445 18.5" stroke="#BCC0C4" stroke-width="2" stroke-miterlimit="10"/>
<path d="M12.4453 26.4C12.9453 25.4 13.5453 24.4 14.2453 23.4" stroke="#BCC0C4" stroke-width="2" stroke-miterlimit="10"/>
<path d="M10.4453 31.4C10.7453 30.4 11.1453 29.4 11.5453 28.4" stroke="#BCC0C4" stroke-width="2" stroke-miterlimit="10"/>
<path d="M15.6446 60.4C9.54464 52.6 7.64464 42.6 9.94464 33.4" stroke="#BCC0C4" stroke-width="2" stroke-miterlimit="10"/>
<path d="M39.4453 48C43.5874 48 46.9453 44.6421 46.9453 40.5C46.9453 36.3579 43.5874 33 39.4453 33C35.3032 33 31.9453 36.3579 31.9453 40.5C31.9453 44.6421 35.3032 48 39.4453 48Z" fill="#E9EAEB"/>
<path d="M45.9445 17.2L44.1445 30C44.9445 30.3 45.7445 30.7 46.4445 31.2L55.9445 22.5C53.1445 20 49.7445 18.1 45.9445 17.2Z" fill="white" stroke="#56437E" stroke-width="2" stroke-miterlimit="10"/>
<path d="M59.7449 26.7L50.2449 35.5C51.1449 37.2 51.6449 39 51.6449 41C51.6449 44.6 50.0449 47.8 47.5449 49.9L53.6449 61.3C60.1449 56.9 64.3449 49.4 64.3449 41C64.3449 35.6 62.6449 30.7 59.7449 26.7Z" fill="#D1BBFF" stroke="#56437E" stroke-width="2" stroke-miterlimit="10"/>
<path d="M33.0449 31.2C34.6449 30.1 36.5449 29.4 38.5449 29.2L40.3449 16.4C40.1449 16.4 39.9449 16.4 39.7449 16.4C33.5449 16.4 27.8449 18.7 23.5449 22.5L33.0449 31.2Z" fill="white" stroke="#56437E" stroke-width="2" stroke-miterlimit="10"/>
<path d="M42.4449 52.5C41.5449 52.7 40.6449 52.8 39.6449 52.8C33.0449 52.8 27.7449 47.5 27.7449 40.9C27.7449 38.9 28.2449 37 29.1449 35.4L19.6449 26.6C16.7449 30.6 15.0449 35.6 15.0449 40.9C15.0449 54.5 26.0449 65.5 39.6449 65.5C42.7449 65.5 45.7449 64.9 48.4449 63.8L42.4449 52.5Z" fill="white" stroke="#56437E" stroke-width="2" stroke-miterlimit="10"/>
<path d="M56.9443 11V17" stroke="#BCC0C4" stroke-width="2" stroke-miterlimit="10"/>
<path d="M59.9443 14H53.9443" stroke="#BCC0C4" stroke-width="2" stroke-miterlimit="10"/>
<path d="M19.9453 62V68" stroke="#BCC0C4" stroke-width="2" stroke-miterlimit="10"/>
<path d="M22.9453 65H16.9453" stroke="#BCC0C4" stroke-width="2" stroke-miterlimit="10"/>
</svg>
