<svg width="80" height="80" viewBox="0 0 80 80" fill="none" xmlns="http://www.w3.org/2000/svg">
<path d="M56.8505 56.8505C66.0278 47.6733 66.0278 32.7941 56.8505 23.6169C47.6733 14.4396 32.7941 14.4396 23.6168 23.6169C14.4396 32.7941 14.4396 47.6733 23.6168 56.8505C32.7941 66.0278 47.6733 66.0278 56.8505 56.8505Z" fill="#E9EAEB"/>
<path d="M15.9609 23.7224C21.3609 16.1224 30.2609 11.1224 40.3609 11.1224C49.9609 11.1224 58.4609 15.7224 63.9609 22.7224" stroke="#BCC0C4" stroke-width="2" stroke-miterlimit="10"/>
<path d="M56.7609 65.5224C52.0609 68.6224 46.3609 70.5224 40.3609 70.5224C30.2609 70.5224 21.3609 65.5224 15.9609 57.8224" stroke="#BCC0C4" stroke-width="2" stroke-miterlimit="10"/>
<path d="M56.7617 37.4224C56.7617 33.7224 49.5617 30.7224 40.7617 30.7224C31.9617 30.7224 24.7617 33.7224 24.7617 37.4224C24.7617 39.0224 24.7617 49.2224 24.7617 50.8224C25.7617 53.8224 32.8617 56.8224 41.7617 56.8224C50.6617 56.8224 56.0617 52.7224 56.7617 50.8224C56.7617 49.1224 56.7617 39.0224 56.7617 37.4224Z" fill="#D1BBFF" stroke="#56437E" stroke-width="2" stroke-miterlimit="10"/>
<path d="M28.7617 38.7224V50.7224" stroke="#56437E" stroke-width="2" stroke-miterlimit="10"/>
<path d="M42.9617 23.0224C41.9617 22.7224 40.8617 22.7224 39.8617 23.0224L9.76172 31.7224V34.8224L39.9617 44.0224C40.8617 44.3224 41.7617 44.3224 42.5617 44.0224L71.7617 34.8224V31.7224L42.9617 23.0224Z" fill="white"/>
<path d="M67.0617 36.4224L71.7617 34.8224V31.7224L42.9617 23.0224C41.9617 22.7224 40.8617 22.7224 39.8617 23.0224L9.76172 31.7224V34.8224L39.9617 44.0224C40.8617 44.3224 41.7617 44.3224 42.5617 44.0224L62.7617 37.6224" stroke="#56437E" stroke-width="2" stroke-miterlimit="10"/>
<path d="M41.6611 31.4224L62.4611 37.5224C63.8611 37.8224 64.7611 39.2224 64.7611 40.8224V48.8224" stroke="#56437E" stroke-width="2" stroke-miterlimit="10" stroke-linecap="round"/>
<path d="M68.7616 60.7224L65.7616 50.7224H63.7616L60.7616 60.7224C60.4616 61.7224 61.6616 62.7224 62.7616 62.7224H66.7616C67.8616 62.7224 69.0616 61.8224 68.7616 60.7224Z" fill="white" stroke="#56437E" stroke-width="2" stroke-miterlimit="10"/>
<path d="M67.7617 48.7224C67.7617 50.4224 66.3617 51.7224 64.7617 51.7224C63.0617 51.7224 61.7617 50.4224 61.7617 48.7224C61.7617 47.0224 63.1617 45.7224 64.7617 45.7224C66.4617 45.7224 67.7617 47.1224 67.7617 48.7224Z" fill="#D1BBFF" stroke="#56437E" stroke-width="2" stroke-miterlimit="10"/>
</svg>
