<svg width="80" height="80" viewBox="0 0 80 80" fill="none" xmlns="http://www.w3.org/2000/svg">
<path d="M35.5 62C50.1355 62 62 50.1355 62 35.5C62 20.8645 50.1355 9 35.5 9C20.8645 9 9 20.8645 9 35.5C9 50.1355 20.8645 62 35.5 62Z" fill="#E9EAEB"/>
<path d="M61 56V69" stroke="#56437E" stroke-width="2" stroke-miterlimit="10"/>
<path d="M40 69V56" stroke="#56437E" stroke-width="2" stroke-miterlimit="10"/>
<path d="M69 21H30V53H69V21Z" fill="white"/>
<path d="M30 34V21H69V53H30V45" stroke="#56437E" stroke-width="2" stroke-miterlimit="10"/>
<path d="M19.5 33.8C22.1 33.8 24 31.7 24 29.1V27.5C24 24.9 22.1 22.8 19.5 22.8C16.9 22.8 15 24.9 15 27.5V29C15 31.6 16.9 33.8 19.5 33.8Z" fill="white" stroke="#56437E" stroke-width="2" stroke-miterlimit="10"/>
<path d="M40 37C38.4 37 18.8 37 17 37C12.3 37 9 38.5 9 43V52C9 54.1 10.9 56 13 56H26V42H35C38 42 40 39.2 40 37Z" fill="#D1BBFF" stroke="#56437E" stroke-width="2" stroke-miterlimit="10"/>
<path d="M26 43H14V70H26V43Z" fill="#D1BBFF"/>
<path d="M26 43V70" stroke="#56437E" stroke-width="2" stroke-miterlimit="10"/>
<path d="M20 54V70" stroke="#56437E" stroke-width="2" stroke-miterlimit="10"/>
<path d="M14 43V70" stroke="#56437E" stroke-width="2" stroke-miterlimit="10"/>
<path d="M34 48H41L44 44H50L56 34H60L63 29H65" stroke="#56437E" stroke-width="2" stroke-miterlimit="10"/>
<path d="M37 69H43" stroke="#56437E" stroke-width="2" stroke-miterlimit="10"/>
<path d="M58 69H64" stroke="#56437E" stroke-width="2" stroke-miterlimit="10"/>
<path d="M71 16H28V23H71V16Z" fill="#E9EAEB" stroke="#56437E" stroke-width="2" stroke-miterlimit="10"/>
</svg>
