<svg width="80" height="80" viewBox="0 0 80 80" fill="none" xmlns="http://www.w3.org/2000/svg">
<path d="M67.5678 42.4612C67.5678 27.8258 55.7035 15.9615 41.0681 15.9615C26.4327 15.9615 14.5684 27.8258 14.5684 42.4612C14.5684 57.0966 26.4327 68.961 41.0681 68.961C55.7035 68.961 67.5678 57.0966 67.5678 42.4612Z" fill="#E9EAEB"/>
<path d="M36.0723 34.4727L20.5723 49.9727L34.2723 64.1727L41.1723 57.2727C42.7723 55.6727 45.9723 58.0727 48.2723 55.8727C50.4723 53.6727 50.5723 53.5727 50.5723 53.5727L52.8723 51.2727L36.0723 34.4727Z" fill="white" stroke="#56437E" stroke-width="2" stroke-miterlimit="10"/>
<path d="M31.4727 21.8727C32.5727 18.7727 31.7727 15.1727 29.2727 12.6727C26.5727 9.87273 22.4727 9.27273 19.0727 10.8727L24.3727 16.1727L20.1727 20.3727L14.8727 15.0727C13.2727 18.3727 13.8727 22.5727 16.6727 25.2727C19.1727 27.7727 22.7727 28.4727 25.8727 27.4727L58.5727 60.1727C60.1727 61.7727 62.6727 61.7727 64.2727 60.1727C65.8727 58.5727 65.8727 56.0727 64.2727 54.4727L31.4727 21.8727Z" fill="#D1BBFF" stroke="#56437E" stroke-width="2" stroke-miterlimit="10"/>
<path d="M46.2729 26.7727L44.1729 24.6727C43.3729 23.8727 42.1729 23.8727 41.3729 24.6727L37.1729 28.8727L42.0729 33.7727L46.2729 29.5727C47.0729 28.7727 47.0729 27.5727 46.2729 26.7727Z" fill="white"/>
<path d="M37.0723 28.8727L41.2723 24.6727C42.0723 23.8727 43.2723 23.8727 44.0723 24.6727L46.1723 26.7727C46.9723 27.5727 46.9723 28.7727 46.1723 29.5727L41.9723 33.7727" stroke="#56437E" stroke-width="2" stroke-miterlimit="10"/>
<path d="M52.6723 30.2727L50.5723 28.1727C49.7723 27.3727 48.5723 27.3727 47.7723 28.1727L42.0723 33.8727L46.9723 38.7727L52.6723 33.0727C53.4723 32.3727 53.4723 31.0727 52.6723 30.2727Z" fill="white"/>
<path d="M46.9723 38.7727L52.6723 33.0727C53.4723 32.2727 53.4723 31.0727 52.6723 30.2727L50.5723 28.1727C49.7723 27.3727 48.5723 27.3727 47.7723 28.1727L42.0723 33.8727" stroke="#56437E" stroke-width="2" stroke-miterlimit="10"/>
<path d="M57.7731 37.9727C58.4731 37.2727 58.4731 36.0727 57.6731 35.2727L55.5731 33.1727C54.7731 32.3727 53.5731 32.3727 52.8731 33.0727L46.9731 38.9727C46.2731 39.6727 46.2731 40.8727 47.0731 41.6727L49.1731 43.7727C49.9731 44.5727 51.1731 44.5727 51.8731 43.8727L57.7731 37.9727Z" fill="white" stroke="#56437E" stroke-width="2" stroke-miterlimit="10"/>
<path d="M40.2729 27.7727C39.0728 26.5727 37.7729 25.8727 35.8729 26.1727C33.9729 26.4727 30.7729 26.7727 29.6729 27.5727C28.5729 28.3727 27.5729 32.3727 27.5729 35.3727C27.5729 39.0727 27.4729 42.6727 26.6729 43.4727L20.1729 49.9727L37.0729 48.4727C41.0729 44.4727 40.4729 37.6727 37.1729 34.4727C37.7729 35.0727 40.0729 37.3727 41.6729 38.9727C44.8729 42.1727 49.6729 39.8727 50.4729 37.8727C49.4729 36.9727 40.2729 27.7727 40.2729 27.7727Z" fill="white"/>
<path d="M20.1729 50.0727L26.6729 43.5727C27.4729 42.7727 27.5729 39.1727 27.5729 35.4727C27.5729 32.3727 28.5729 28.4727 29.6729 27.6727C30.7729 26.8727 33.8729 26.5727 35.8729 26.2727C37.8729 25.9727 39.0728 26.6727 40.2729 27.8727C40.2729 27.8727 49.4729 37.0727 50.4729 38.0727C49.6729 40.0727 44.8729 42.3727 41.6729 39.1727C40.0729 37.5727 37.7729 35.2727 37.1729 34.6727C40.3729 37.8727 40.9729 44.6727 37.0729 48.6727" stroke="#56437E" stroke-width="2" stroke-miterlimit="10"/>
<path d="M60.6729 43.6727C61.3729 42.9727 61.3729 41.9727 60.6729 41.2727L58.8729 39.4727C58.1729 38.7727 57.1729 38.7727 56.4729 39.4727L51.0729 44.8727C50.3729 45.5727 50.3729 46.5727 51.0729 47.2727L52.8729 49.0727C53.5729 49.7727 54.5729 49.7727 55.2729 49.0727L60.6729 43.6727Z" fill="white" stroke="#56437E" stroke-width="2" stroke-miterlimit="10"/>
<path d="M38.9283 63.0178L20.9629 45.0626L14.6008 51.4283L32.5662 69.3835L38.9283 63.0178Z" fill="#E9EAEB" stroke="#56437E" stroke-width="2" stroke-miterlimit="10"/>
<path d="M59.5723 55.4727L61.5723 57.4727" stroke="#56437E" stroke-width="2" stroke-miterlimit="10"/>
<path d="M20.5723 50.4727L23.5723 53.4727" stroke="#56437E" stroke-width="2" stroke-miterlimit="10"/>
</svg>
