<svg width="80" height="80" viewBox="0 0 80 80" fill="none" xmlns="http://www.w3.org/2000/svg">
<path d="M39.5 66C53.031 66 64 55.031 64 41.5C64 27.969 53.031 17 39.5 17C25.969 17 15 27.969 15 41.5C15 55.031 25.969 66 39.5 66Z" fill="#E9EAEB"/>
<path d="M57 27V25C57 17.8 49.4 12 40 12C30.6 12 23 17.8 23 25V27H21V32H40H59V27H57Z" fill="#D1BBFF" stroke="#56437E" stroke-width="2" stroke-miterlimit="10"/>
<path d="M30 64V52" stroke="#56437E" stroke-width="2" stroke-miterlimit="10"/>
<path d="M50 52V64" stroke="#56437E" stroke-width="2" stroke-miterlimit="10"/>
<path d="M26 39V44.9C26 46.3 26.5 47.6 27.3 48.6L32.2 54.7C33.3 56.1 35.1 57 36.9 57H43.1C44.9 57 46.6 56.2 47.8 54.7L52.7 48.6C53.6 47.5 54 46.2 54 44.9V39C54 35.7 51.3 33 48 33H32C28.7 33 26 35.7 26 39Z" fill="white" stroke="#56437E" stroke-width="2" stroke-miterlimit="10"/>
<path d="M24 30V33.1C24 35.8 30.6 38 40 38C49.4 38 56 35.8 56 33.1V30H24Z" fill="#D1BBFF"/>
<path d="M56 30V33.1C56 35.8 49.4 38 40 38C30.6 38 24 35.8 24 33.1V30" stroke="#56437E" stroke-width="2" stroke-miterlimit="10"/>
<path d="M58 67V63C58 61.1 57.1 60.3 55.5 59.2L51 56" stroke="#56437E" stroke-width="2" stroke-miterlimit="10"/>
<path d="M54 62L42 69V71" stroke="#56437E" stroke-width="2" stroke-miterlimit="10"/>
<path d="M26 62L38 69V71" stroke="#56437E" stroke-width="2" stroke-miterlimit="10"/>
<path d="M22 66V63C22 61.1 22.9 60.3 24.5 59.2L29 56" stroke="#56437E" stroke-width="2" stroke-miterlimit="10"/>
<path d="M44 12V10H36V12H32V19H36V23H44V19H48V12H44Z" fill="#D1BBFF"/>
<path d="M48 19V12H44" stroke="#56437E" stroke-width="2" stroke-miterlimit="10"/>
<path d="M32 19V12H36" stroke="#56437E" stroke-width="2" stroke-miterlimit="10"/>
<path d="M44 23V10H36V23" stroke="#56437E" stroke-width="2" stroke-miterlimit="10"/>
<path d="M28 31C30 32.3 32.3 33 34.6 33H45.4C47.8 33 50 32.3 52 31" stroke="#56437E" stroke-width="2" stroke-miterlimit="10"/>
</svg>
