<svg width="80" height="80" viewBox="0 0 80 80" fill="none" xmlns="http://www.w3.org/2000/svg">
<path d="M67.6186 46.8312C70.8228 31.7028 61.1562 16.8413 46.0278 13.6372C30.8994 10.433 16.038 20.0996 12.8338 35.228C9.62969 50.3564 19.2962 65.2178 34.4246 68.422C49.553 71.6261 64.4145 61.9596 67.6186 46.8312Z" fill="#E9EAEB"/>
<path d="M51.9005 33.0001L51.7005 32.8001C50.6005 31.6001 50.5005 29.9001 51.4005 29.0001L55.5005 25.1001C57.0005 23.7001 59.1005 23.5001 60.3005 24.7001L60.5005 24.9001C61.6005 26.1001 61.3005 28.2001 59.8005 29.6001L55.7005 33.5001C54.7005 34.4001 53.0005 34.1001 51.9005 33.0001Z" fill="white" stroke="#56437E" stroke-width="2" stroke-miterlimit="10"/>
<path d="M30.8998 38.1L25.4998 36.1L18.2998 58.9C18.6998 59.2 19.0998 59.6 19.4998 59.9C20.8998 61.1 22.0998 62.5 23.1998 64L30.1998 65C31.6998 63.3 32.8998 62.2 34.1998 61C44.3998 61.8 49.1998 54.2 50.1998 53C51.1998 51.8 30.8998 38.1 30.8998 38.1Z" fill="white" stroke="#56437E" stroke-width="2" stroke-miterlimit="10"/>
<path d="M52.2002 54H32.2002C30.5002 54 29.2002 52.7 29.2002 51V13C29.2002 11.3 30.5002 10 32.2002 10H52.2002C53.9002 10 55.2002 11.3 55.2002 13V51C55.2002 52.7 53.9002 54 52.2002 54Z" fill="#E9EAEB" stroke="#56437E" stroke-width="2" stroke-miterlimit="10"/>
<path d="M55.2002 15H29.2002V46H55.2002V15Z" fill="white" stroke="#56437E" stroke-width="2" stroke-miterlimit="10"/>
<path d="M54.7 53.1001L54.5 52.9001C53.4 51.9001 53 50.5001 53.6 49.8001L56.2 46.8001C57.1 45.7001 58.8 45.6001 60 46.6001L60.2 46.8001C61.3 47.8001 61.5 49.5001 60.5 50.6001L57.9 53.6001C57.2 54.3001 55.8 54.1001 54.7 53.1001Z" fill="white" stroke="#56437E" stroke-width="2" stroke-miterlimit="10"/>
<path d="M29.7996 38C30.7996 34.9 31.2996 32.7 31.5996 29C31.7996 26.9 30.8996 25.1 29.9996 23.8C28.9996 22.5 26.6996 22.8 26.2996 24.3C24.1996 30.9 23.8996 32.7 22.5996 36C21.1996 39.7 21.9996 44.9 21.2996 46.4C21.1996 46.7 16.3996 52.8 15.0996 54.7C16.4996 55.4 19.3996 56.7 20.5996 57.7C21.9996 58.9 23.3996 60.4 24.4996 61.9L25.5996 62L31.8996 55.5C34.4996 47.6 32.1996 41.1 29.7996 38Z" fill="white"/>
<path d="M31.7996 55.4C34.4996 47.6 32.2996 41.1 29.7996 38C30.7996 34.9 31.2996 32.7 31.5996 29C31.7996 26.9 30.8996 25.1 29.9996 23.8C28.9996 22.5 26.6996 22.8 26.2996 24.3C24.1996 30.9 23.8996 32.7 22.5996 36C21.1996 39.7 21.9996 44.9 21.2996 46.4C21.1996 46.7 16.3996 52.8 15.0996 54.7C16.4996 55.4 19.3996 56.7 20.5996 57.7C21.9996 58.9 23.3996 60.4 24.4996 61.9L25.5996 62" stroke="#56437E" stroke-width="2" stroke-miterlimit="10"/>
<path d="M16.8776 50.3426L11.4307 55.7849L26.8389 71.2062L32.2859 65.7639L16.8776 50.3426Z" fill="#D1BBFF" stroke="#56437E" stroke-width="2" stroke-miterlimit="10"/>
<path d="M54.7004 46.1L54.5004 45.9C53.4004 44.9 52.9004 43.5 53.6004 42.8L56.3004 39.7C57.3004 38.6 59.0004 38.5 60.1004 39.5L60.3004 39.7C61.4004 40.7 61.6004 42.4 60.6004 43.5L57.9004 46.6C57.3004 47.3 55.8004 47.1 54.7004 46.1Z" fill="white" stroke="#56437E" stroke-width="2" stroke-miterlimit="10"/>
<path d="M54.7004 39.3001L54.5004 39.1001C53.4004 38.1001 52.9004 36.7001 53.6004 36.0001L56.3004 32.9001C57.3004 31.8001 59.0004 31.7001 60.1004 32.7001L60.3004 32.9001C61.4004 33.9001 61.6004 35.6001 60.6004 36.7001L57.9004 39.8001C57.3004 40.5001 55.8004 40.3001 54.7004 39.3001Z" fill="white" stroke="#56437E" stroke-width="2" stroke-miterlimit="10"/>
<path d="M39.2002 50H45.2002" stroke="#56437E" stroke-width="2" stroke-miterlimit="10"/>
<path d="M37.5996 27C38.3996 25.2 40.0996 24 42.1996 24C44.1996 24 45.9996 25.2 46.7996 27" stroke="#56437E" stroke-width="2" stroke-miterlimit="10"/>
<path d="M34.7002 24C36.3002 21.6 39.1002 20 42.2002 20C45.3002 20 48.1002 21.6 49.7002 24" stroke="#56437E" stroke-width="2" stroke-miterlimit="10"/>
<path d="M39.2002 37C39.2002 38.1 40.1002 39 41.2002 39H43.5002C44.5002 39 45.2002 38.2 45.2002 37.3C45.2002 36.6 44.7002 35.9 44.0002 35.6L40.4002 34.4C39.7002 34.2 39.2002 33.5 39.2002 32.7C39.2002 31.7 40.0002 31 40.9002 31H43.2002C44.3002 31 45.2002 31.9 45.2002 33" stroke="#56437E" stroke-width="2" stroke-miterlimit="10"/>
<path d="M42.2002 31V28" stroke="#56437E" stroke-width="2" stroke-miterlimit="10"/>
<path d="M42.2002 39V42" stroke="#56437E" stroke-width="2" stroke-miterlimit="10"/>
</svg>
