<svg width="80" height="80" viewBox="0 0 80 80" fill="none" xmlns="http://www.w3.org/2000/svg">
<path d="M10.2 34.4C9.4 37.2 9 40.1 9 43C9 49.9 11.2 56.2 15 61.4" stroke="#BCC0C4" stroke-width="2" stroke-miterlimit="10"/>
<path d="M37.8996 12C26.0996 12.8 16.0996 20.2 11.5996 30.6" stroke="#BCC0C4" stroke-width="2" stroke-miterlimit="10"/>
<path d="M70.0002 34.4C70.8002 37.1 71.2002 40 71.2002 43C71.2002 49.9 69.0002 56.2 65.2002 61.4" stroke="#BCC0C4" stroke-width="2" stroke-miterlimit="10"/>
<path d="M42.2998 12C54.0998 12.8 64.1998 20.2 68.6998 30.6" stroke="#BCC0C4" stroke-width="2" stroke-miterlimit="10"/>
<path d="M57.5 60.8C62.1 56.3 65 50 65 43.1C65 29.4 53.9 18.4 40.2 18.4C26.6 18.4 15.5 29.4 15.5 43.1C15.5 50 18.4 56.3 23 60.8" stroke="#56437E" stroke-width="2" stroke-miterlimit="10"/>
<path d="M40 18.2V22.2" stroke="#56437E" stroke-width="2" stroke-miterlimit="10"/>
<path d="M25.0996 23.7L27.4996 26.8" stroke="#56437E" stroke-width="2" stroke-miterlimit="10"/>
<path d="M16.4004 37.2L20.2004 38.1" stroke="#56437E" stroke-width="2" stroke-miterlimit="10"/>
<path d="M17.7998 53.2L21.3998 51.6" stroke="#56437E" stroke-width="2" stroke-miterlimit="10"/>
<path d="M55.4 23.7L53 26.8" stroke="#56437E" stroke-width="2" stroke-miterlimit="10"/>
<path d="M64.0998 37.2L60.2998 38.1" stroke="#56437E" stroke-width="2" stroke-miterlimit="10"/>
<path d="M62.5996 53.2L59.0996 51.6" stroke="#56437E" stroke-width="2" stroke-miterlimit="10"/>
<path d="M49.5032 58.6629C54.1729 53.9601 54.146 46.3622 49.4432 41.6925C44.7404 37.0228 37.1425 37.0497 32.4728 41.7525C27.8031 46.4553 27.83 54.0532 32.5328 58.7229C37.2356 63.3926 44.8335 63.3657 49.5032 58.6629Z" fill="#E9EAEB"/>
<path d="M55.1998 38.8L42.2998 46.2C40.8998 45.7 39.2998 45.9 38.0998 46.9C36.1998 48.4 35.8998 51.2 37.3998 53.2C38.8998 55.1 41.6998 55.4 43.5998 53.9C44.7998 52.9 45.3998 51.4 45.2998 50L55.6998 39.5L55.1998 38.8Z" fill="white" stroke="#56437E" stroke-width="2" stroke-miterlimit="10"/>
<path d="M52.0002 35.5C47.6002 29.6 39.2002 28.4 33.3002 32.8C31.1002 34.4 29.6002 36.6 28.7002 39.1L29.1002 39.5C29.6002 39 30.1002 38.4 30.8002 38C35.8002 34.2 42.9002 34.7 46.4002 39.7L52.3002 36.2C52.2002 35.9 52.1002 35.7 52.0002 35.5Z" fill="#D1BBFF" stroke="#56437E" stroke-width="2" stroke-miterlimit="10"/>
</svg>
