<svg width="80" height="80" viewBox="0 0 80 80" fill="none" xmlns="http://www.w3.org/2000/svg">
<path d="M38.4927 67.4766C52.4101 67.4766 63.6924 56.1943 63.6924 42.2769C63.6924 28.3595 52.4101 17.0772 38.4927 17.0772C24.5753 17.0772 13.293 28.3595 13.293 42.2769C13.293 56.1943 24.5753 67.4766 38.4927 67.4766Z" fill="#E9EAEB"/>
<path d="M61.0264 13H24.0264V41H61.0264V13Z" fill="white" stroke="#56437E" stroke-width="2" stroke-miterlimit="10"/>
<path d="M48.0264 13H37.0264V19H48.0264V13Z" fill="#D1BBFF" stroke="#56437E" stroke-width="2" stroke-miterlimit="10"/>
<path d="M57.6753 38.8336L57.8003 38.7618L57.8679 38.6346C59.5037 35.5554 61.4894 34.2502 63.7454 33.6856C64.9439 33.3982 66.0176 33.3581 66.8658 33.5278C67.5955 33.6737 68.1262 33.9664 68.4545 34.3594C67.8017 35.7774 66.2579 38.0787 64.6966 40.2314C63.0488 42.5034 61.4383 44.5333 60.9572 45.0628C60.4282 45.6396 58.0993 47.8218 55.7016 49.8698C54.5055 50.8915 53.3044 51.8693 52.3137 52.5893C51.8174 52.9499 51.3833 53.2389 51.0347 53.4356C50.8602 53.534 50.716 53.6041 50.6022 53.6485C50.5458 53.6705 50.5018 53.6842 50.4692 53.6921C50.4385 53.6995 50.4252 53.7 50.4258 53.7H50.4163H50.4058H50.3951H50.3841H50.3728H50.3612H50.3493H50.3371H50.3246H50.3118H50.2988H50.2854H50.2718H50.2578H50.2436H50.2291H50.2143H50.1993H50.1839H50.1683H50.1524H50.1362H50.1197H50.103H50.086H50.0687H50.0512H50.0333H50.0153H49.9969H49.9783H49.9594H49.9402H49.9208H49.9011H49.8812H49.861H49.8405H49.8198H49.7988H49.7776H49.7561H49.7344H49.7124H49.6901H49.6677H49.6449H49.6219H49.5987H49.5752H49.5515H49.5276H49.5034H49.479H49.4543H49.4294H49.4042H49.3788H49.3532H49.3274H49.3013H49.275H49.2484H49.2217H49.1947H49.1675H49.14H49.1124H49.0845H49.0564H49.028H48.9995H48.9707H48.9417H48.9126H48.8831H48.8535H48.8237H48.7937H48.7634H48.7329H48.7023H48.6714H48.6403H48.6091H48.5776H48.5459H48.514H48.4819H48.4497H48.4172H48.3845H48.3517H48.3186H48.2854H48.2519H48.2183H48.1845H48.1505H48.1163H48.082H48.0474H48.0127H47.9778H47.9427H47.9074H47.872H47.8364H47.8006H47.7646H47.7285H47.6922H47.6557H47.619H47.5822H47.5452H47.5081H47.4708H47.4333H47.3956H47.3579H47.3199H47.2818H47.2435H47.2051H47.1665H47.1278H47.0889H47.0498H47.0106H46.9713H46.9318H46.8922H46.8524H46.8125H46.7724H46.7322H46.6919H46.6514H46.6108H46.57H46.5291H46.4881H46.4469H46.4056H46.3642H46.3226H46.2809H46.2391H46.1972H46.1551H46.1129H46.0706H46.0282H45.9856H45.943H45.9002H45.8573H45.8142H45.7711H45.7278H45.6845H45.641H45.5974H45.5537H45.5099H45.466H45.422H45.3779H45.3337H45.2894H45.2449H45.2004H45.1558H45.1111H45.0663H45.0214H44.9764H44.9313H44.8861H44.8408H44.7955H44.75H44.7045H44.6589H44.6132H44.5674H44.5215H44.4756H44.4296H44.3835H44.3373H44.291H44.2447H44.1983H44.1518H44.1053H44.0587H44.012H43.9653H43.9184H43.8716H43.8246H43.7776H43.7305H43.6834H43.6362H43.589H43.5417H43.4943H43.4469H43.3995H43.3519H43.3044H43.2568H43.2091H43.1614H43.1136H43.0658H43.018H42.9701H42.9221H42.8742H42.8262H42.7781H42.73H42.6819H42.6338H42.5856H42.5374H42.4891H42.4408H42.3925H42.3442H42.2958H42.2474H42.199H42.1506H42.1022H42.0537H42.0052H41.9567H41.9082H41.8596H41.8111H41.7625H41.7139H41.6653H41.6167H41.5681H41.5195H41.4709H41.4223H41.3736H41.325H41.2764H41.2277H41.1791H41.1305H41.0818H41.0332H40.9846H40.936H40.8874H40.8388H40.7902H40.7417H40.6931H40.6446H40.596H40.5475H40.499H40.4506H40.4021H40.3537H40.3053H40.2569H40.2085H40.1602H40.1119H40.0636H40.0154H39.9672H39.919H39.8708H39.8227H39.7746H39.7266H39.6786H39.6306H39.5827H39.5348H39.4869H39.4391H39.3914H39.3436H39.296H39.2484H39.2008H39.1533H39.1058H39.0584H39.011H38.9637H38.9165H38.8693H38.8222H38.7751H38.7281H38.6812H38.6343H38.5875H38.5407H38.494H38.4474H38.4009H38.3544H38.308H38.2617H38.2154H38.1693H38.1231H38.0771H38.0312H37.9853H37.9395H37.8938H37.8482H37.8027H37.7572H37.7119H37.6666H37.6214H37.5763H37.5314H37.4865H37.4416H37.3969H37.3523H37.3078H37.2634H37.2191H37.1748H37.1307H37.0867H37.0428H36.999H36.9553H36.9117H36.8683H36.8249H36.7816H36.7385H36.6955H36.6526H36.6098H36.5671H36.5246H36.4821H36.4398H36.3976H36.3556H36.3136H36.2718H36.2301H36.1886H36.1471H36.1058H36.0647H36.0236H35.9827H35.942H35.9014H35.8609H35.8205H35.7803H35.7403H35.7003H35.6606H35.6209H35.5814H35.5421H35.5029H35.4639H35.425H35.3862H35.3477H35.3092H35.271H35.2328H35.1949H35.1571H35.1194H35.082H35.0447H35.0075H34.9705H34.9337H34.8971H34.8606H34.8243H34.7881H34.7522H34.7164H34.6807H34.6453H34.61H34.5749H34.54H34.5053H34.4708H34.4364H34.4022H34.3682H34.3344H34.3008H34.2673H34.2341H34.2011H34.1682H34.1355H34.1031H34.0708H34.0387H34.0068H33.9752H33.9437H33.9124H33.8813H33.8505H33.8198H33.7893H33.7591H33.729H33.6992H33.6696H33.6402H33.611H33.582H33.5532H33.5247H33.4964H33.4683H33.4404H33.4127H33.3853H33.358H33.3311H33.3043H33.2778H33.2514H33.2254H33.1995H33.1739H33.1485H33.1234H33.0985H33.0738H33.0493H33.0252H33.0012H32.9775H32.954H32.9308H32.9078H32.8851H32.8626H32.8403H32.8184H32.7966H32.7751H32.7539H32.7329H32.7122H32.6918H32.6716H32.6516H32.6319H32.6125H32.5934H32.5745H32.5558H32.5375H32.5194H32.5016H32.484H32.4667H32.4497H32.433H32.4165H32.4003H32.3844H32.3688H32.3535H32.3384H32.3236H32.3091H32.2949H32.281H32.2673H32.254H32.2409H32.2281H32.2156H32.2034H32.1915H32.1799H32.1686H32.1576H32.1469H32.1365H32.1264C31.0555 53.7 30.304 54.3139 29.6198 55.0627C29.3608 55.3461 29.0944 55.6686 28.8178 56.0035C28.7296 56.1103 28.6404 56.2183 28.5501 56.3268C28.2592 56.6758 27.9481 57.0396 27.6005 57.4086C26.9438 56.817 25.8388 55.7874 24.537 54.5744C23.9996 54.0737 23.4286 53.5416 22.8417 52.9962C20.7365 51.0397 18.4337 48.9177 16.7857 47.4923C18.2336 46.1711 22.4448 42.1886 24.2799 40.3535C24.9021 39.7313 25.7678 39.0341 26.7012 38.4956C27.6436 37.9519 28.6033 37.6 29.4264 37.6H29.4369H29.4476H29.4582H29.4689H29.4797H29.4905H29.5013H29.5122H29.5231H29.5341H29.5451H29.5562H29.5673H29.5784H29.5896H29.6008H29.6121H29.6234H29.6348H29.6462H29.6576H29.6691H29.6806H29.6922H29.7038H29.7154H29.7271H29.7388H29.7506H29.7624H29.7742H29.7861H29.798H29.81H29.8219H29.834H29.846H29.8582H29.8703H29.8825H29.8947H29.9069H29.9192H29.9316H29.9439H29.9563H29.9688H29.9812H29.9937H30.0063H30.0188H30.0315H30.0441H30.0568H30.0695H30.0822H30.095H30.1078H30.1207H30.1335H30.1464H30.1594H30.1723H30.1854H30.1984H30.2115H30.2245H30.2377H30.2508H30.264H30.2772H30.2905H30.3038H30.3171H30.3304H30.3438H30.3572H30.3706H30.384H30.3975H30.411H30.4246H30.4381H30.4517H30.4653H30.479H30.4927H30.5064H30.5201H30.5338H30.5476H30.5614H30.5752H30.5891H30.6029H30.6168H30.6308H30.6447H30.6587H30.6727H30.6867H30.7007H30.7148H30.7289H30.743H30.7571H30.7713H30.7855H30.7997H30.8139H30.8281H30.8424H30.8567H30.871H30.8853H30.8996H30.914H30.9284H30.9428H30.9572H30.9716H30.9861H31.0006H31.0151H31.0296H31.0441H31.0587H31.0732H31.0878H31.1024H31.117H31.1317H31.1463H31.161H31.1757H31.1904H31.2051H31.2198H31.2346H31.2493H31.2641H31.2789H31.2937H31.3085H31.3233H31.3382H31.353H31.3679H31.3828H31.3977H31.4126H31.4275H31.4424H31.4573H31.4723H31.4873H31.5022H31.5172H31.5322H31.5472H31.5622H31.5773H31.5923H31.6073H31.6224H31.6374H31.6525H31.6676H31.6827H31.6978H31.7129H31.728H31.7431H31.7582H31.7734H31.7885H31.8037H31.8188H31.834H31.8491H31.8643H31.8795H31.8946H31.9098H31.925H31.9402H31.9554H31.9706H31.9858H32.001H32.0162H32.0314H32.0467H32.0619H32.0771H32.0923H32.1076H32.1228H32.138H32.1532H32.1685H32.1837H32.1989H32.2142H32.2294H32.2446H32.2599H32.2751H32.2903H32.3056H32.3208H32.336H32.3513H32.3665H32.3817H32.3969H32.4122H32.4274H32.4426H32.4578H32.473H32.4882H32.5034H32.5186H32.5338H32.549H32.5642H32.5793H32.5945H32.6097H32.6248H32.64H32.6551H32.6703H32.6854H32.7005H32.7157H32.7308H32.7459H32.761H32.7761H32.7912H32.8062H32.8213H32.8364H32.8514H32.8665H32.8815H32.8965H32.9115H32.9265H32.9415H32.9565H32.9715H32.9864H33.0014H33.0163H33.0312H33.0461H33.061H33.0759H33.0908H33.1057H33.1205H33.1353H33.1502H33.165H33.1798H33.1946H33.2093H33.2241H33.2388H33.2535H33.2682H33.2829H33.2976H33.3123H33.3269H33.3415H33.3562H33.3707H33.3853H33.3999H33.4144H33.4289H33.4435H33.4579H33.4724H33.4869H33.5013H33.5157H33.5301H33.5445H33.5588H33.5732H33.5875H33.6018H33.6161H33.6303H33.6445H33.6588H33.6729H33.6871H33.7013H33.7154H33.7295H33.7436H33.7576H33.7716H33.7857H33.7996H33.8136H33.8275H33.8415H33.8553H33.8692H33.883H33.8969H33.9107H33.9244H33.9382H33.9519H33.9656H33.9792H33.9928H34.0065H34.02H34.0336H34.0471H34.0606H34.0741H34.0875H34.1009H34.1143H34.1277H34.141H34.1543H34.1675H34.1808H34.194H34.2072H34.2203H34.2334H34.2465H34.2596H34.2726H34.2856H34.2985H34.3115H34.3244H34.3372H34.35H34.3628H34.3756H34.3883H34.401H34.4137H34.4263H34.4389H34.4515H34.464H34.4765H34.489H34.5014H34.5138H34.5261H34.5384H34.5507H34.5629H34.5751H34.5873H34.5994H34.6115H34.6236H34.6356H34.6476H34.6595H34.6714H34.6833H34.6951H34.7069H34.7186H34.7303H34.742H34.7536H34.7652H34.7767H34.7883H34.7997H34.8111H34.8225H34.8339H34.8452H34.8564H34.8676H34.8788H34.8899H34.901H34.912H34.923H34.934H34.9449H34.9558H34.9666H34.9774H34.9881H34.9988H35.0094H35.02H35.0306H35.0411H35.0515H35.062H35.0723H35.0826H35.0929H35.1031H35.1133H35.1235H35.1335H35.1436H35.1536H35.1635H35.1734H35.1832H35.193H35.2028H35.2125H35.2221H35.2317H35.2412H35.2507H35.2602H35.2695H35.2789H35.2882H35.2974H35.3066H35.3157H35.3248H35.3338H35.3428H35.3517H35.3606H35.3694H35.3782H35.3869H35.3955H35.4041H35.4126H35.4211H35.4296H35.4379H35.4463H35.4545H35.4627H35.4709H35.479H35.487H35.495H35.5029H35.5108H35.5186H35.5264H35.5341H35.5417H35.5493H35.5568H35.5643H35.5717H35.579H35.5863H35.5935H35.6007H35.6078H35.6149H35.6218H35.6288H35.6356H35.6424H35.6492H35.6558H35.6625H35.669H35.6755H35.6819H35.6883H35.6946H35.7008H35.707H35.7131H35.7192H35.7252H35.7311H35.7369H35.7427H35.7485H35.7541H35.7597H35.7652H35.7707H35.7761H35.7814H35.7867H35.7919H35.797H35.8021H35.8071H35.812H35.8169H35.8216H35.8264C36.1474 37.6 36.5439 37.7376 37.0123 38.0035C37.4735 38.2654 37.9521 38.6207 38.4315 38.9944C38.5434 39.0815 38.656 39.1703 38.7685 39.2589C39.1256 39.5404 39.4812 39.8206 39.8034 40.0428C40.0178 40.1907 40.2342 40.3249 40.4438 40.4235C40.648 40.5195 40.8832 40.6 41.1264 40.6H41.1486H41.1708H41.193H41.2151H41.2372H41.2592H41.2812H41.3032H41.3251H41.347H41.3688H41.3906H41.4124H41.4341H41.4558H41.4774H41.499H41.5206H41.5421H41.5635H41.585H41.6064H41.6277H41.6491H41.6703H41.6916H41.7128H41.7339H41.7551H41.7762H41.7972H41.8182H41.8392H41.8601H41.881H41.9019H41.9227H41.9435H41.9642H41.9849H42.0056H42.0262H42.0468H42.0673H42.0878H42.1083H42.1287H42.1491H42.1695H42.1898H42.2101H42.2304H42.2506H42.2708H42.2909H42.311H42.3311H42.3511H42.3711H42.391H42.411H42.4308H42.4507H42.4705H42.4903H42.51H42.5297H42.5494H42.569H42.5886H42.6082H42.6277H42.6472H42.6667H42.6861H42.7055H42.7248H42.7441H42.7634H42.7826H42.8019H42.821H42.8402H42.8593H42.8784H42.8974H42.9164H42.9354H42.9543H42.9732H42.9921H43.0109H43.0297H43.0485H43.0672H43.0859H43.1046H43.1232H43.1418H43.1603H43.1789H43.1974H43.2158H43.2343H43.2527H43.271H43.2894H43.3077H43.3259H43.3442H43.3624H43.3806H43.3987H43.4168H43.4349H43.4529H43.4709H43.4889H43.5069H43.5248H43.5427H43.5605H43.5783H43.5961H43.6139H43.6316H43.6493H43.667H43.6846H43.7022H43.7198H43.7374H43.7549H43.7723H43.7898H43.8072H43.8246H43.842H43.8593H43.8766H43.8939H43.9111H43.9283H43.9455H43.9627H43.9798H43.9969H44.0139H44.031H44.048H44.065H44.0819H44.0988H44.1157H44.1326H44.1494H44.1662H44.183H44.1997H44.2165H44.2331H44.2498H44.2664H44.283H44.2996H44.3162H44.3327H44.3492H44.3657H44.3821H44.3985H44.4149H44.4312H44.4476H44.4639H44.4801H44.4964H44.5126H44.5288H44.545H44.5611H44.5772H44.5933H44.6094H44.6254H44.6414H44.6574H44.6734H44.6893H44.7052H44.7211H44.7369H44.7527H44.7685H44.7843H44.8001H44.8158H44.8315H44.8472H44.8628H44.8784H44.894H44.9096H44.9251H44.9407H44.9562H44.9716H44.9871H45.0025H45.0179H45.0333H45.0486H45.064H45.0793H45.0946H45.1098H45.125H45.1402H45.1554H45.1706H45.1857H45.2008H45.2159H45.231H45.246H45.2611H45.2761H45.291H45.306H45.3209H45.3358H45.3507H45.3656H45.3804H45.3952H45.41H45.4248H45.4396H45.4543H45.469H45.4837H45.4983H45.513H45.5276H45.5422H45.5568H45.5713H45.5859H45.6004H45.6149H45.6293H45.6438H45.6582H45.6726H45.687H45.7014H45.7157H45.73H45.7443H45.7586H45.7729H45.7871H45.8014H45.8156H45.8297H45.8439H45.858H45.8722H45.8863H45.9004H45.9144H45.9285H45.9425H45.9565H45.9705H45.9845H45.9984H46.0123H46.0263H46.0401H46.054H46.0679H46.0817H46.0955H46.1093H46.1231H46.1369H46.1506H46.1644H46.1781H46.1918H46.2054H46.2191H46.2327H46.2464H46.26H46.2736H46.2871H46.3007H46.3142H46.3277H46.3412H46.3547H46.3682H46.3816H46.3951H46.4085H46.4219H46.4353H46.4486H46.462H46.4753H46.4886H46.502H46.5152H46.5285H46.5418H46.555H46.5682H46.5814H46.5946H46.6078H46.621H46.6341H46.6473H46.6604H46.6735H46.6866H46.6996H46.7127H46.7257H46.7388H46.7518H46.7648H46.7778H46.7908H46.8037H46.8167H46.8296H46.8425H46.8554H46.8683H46.8812H46.894H46.9069H46.9197H46.9325H46.9453H46.9581H46.9709H46.9837H46.9964H47.0092H47.0219H47.0346H47.0473H47.06H47.0727H47.0854H47.098H47.1107H47.1233H47.1359H47.1485H47.1611H47.1737H47.1863H47.1988H47.2114H47.2239H47.2364H47.2489H47.2614H47.2739H47.2864H47.2989H47.3113H47.3238H47.3362H47.3486H47.3611H47.3735H47.3859H47.3982H47.4106H47.423H47.4353H47.4477H47.46H47.4723H47.4846H47.4969H47.5092H47.5215H47.5338H47.5461H47.5583H47.5706H47.5828H47.595H47.6072H47.6195H47.6317H47.6438H47.656H47.6682H47.6804H47.6925H47.7047H47.7168H47.729H47.7411H47.7532H47.7653H47.7774H47.7895H47.8016H47.8137H47.8257H47.8378H47.8499H47.8619H47.8739H47.886H47.898H47.91H47.922H47.934H47.946H47.958H47.97H47.982H47.994H48.0059H48.0179H48.0299H48.0418H48.0537H48.0657H48.0776H48.0895H48.1015H48.1134H48.1253H48.1372H48.1491H48.161H48.1728H48.1847H48.1966H48.2085H48.2203H48.2322H48.2441H48.2559H48.2678H48.2796H48.2914H48.3033H48.3151H48.3269H48.3388H48.3506H48.3624H48.3742H48.386H48.3978H48.4096H48.4214H48.4332H48.445H48.4568H48.4685H48.4803H48.4921H48.5039H48.5156H48.5274H48.5392H48.5509H48.5627H48.5744H48.5862H48.5979H48.6097H48.6214H48.6332H48.6449H48.6567H48.6684H48.6801H48.6919H48.7036H48.7153H48.7271H48.7388H48.7505H48.7623H48.774H48.7857H48.7974H48.8092H48.8209H48.8326H48.8443H48.856H48.8678H48.8795H48.8912H48.9029H48.9146H48.9264C50.2764 40.6 51.1251 41.1317 51.6264 41.8L51.8917 42.1538L52.2753 41.9336L57.6753 38.8336Z" fill="white" stroke="#56437E"/>
<path d="M38.026 47C38.026 47 47.026 47 49.026 47C54.026 47 54.026 40 49.026 40C47.026 40 45.026 40 41.226 40C40.126 40 37.726 37 35.926 37C35.126 37 31.326 37 29.526 37C27.726 37 25.326 38.6 24.026 39.9C21.926 42 16.726 46.9 16.126 47.4C19.426 50.2 26.226 56.7 27.726 58C29.726 56 30.526 54.1 32.226 54.1C33.926 54.1 48.826 54.1 50.526 54.1C52.026 54.1 60.326 46.5 61.426 45.3C62.426 44.2 67.926 37.1 69.126 34.2C68.326 33.1 66.226 32.7 63.726 33.3C61.326 33.9 59.226 35.3 57.526 38.5L52.026 41" stroke="#56437E" stroke-width="2" stroke-miterlimit="10"/>
<path d="M16.7872 43.1632L10 49.9523L25.0634 65.0114L31.8506 58.2223L16.7872 43.1632Z" fill="#D1BBFF" stroke="#56437E" stroke-width="2" stroke-miterlimit="10"/>
<path d="M15.627 49L18.227 51.6" stroke="#56437E" stroke-width="2" stroke-miterlimit="10"/>
<path d="M27.0264 33H29.0264" stroke="#56437E" stroke-width="2" stroke-miterlimit="10"/>
<path d="M31.0264 33H33.0264" stroke="#56437E" stroke-width="2" stroke-miterlimit="10"/>
<path d="M35.0264 33H37.0264" stroke="#56437E" stroke-width="2" stroke-miterlimit="10"/>
</svg>
