<svg width="40" height="40" viewBox="0 0 40 40" fill="none" xmlns="http://www.w3.org/2000/svg">
<g clip-path="url(#clip0)">
<path d="M20 40C31 40 40 31 40 20C40 9 31 0 20 0C9 0 0 9 0 20C0 31 9 40 20 40Z" fill="white"/>
<path d="M20 40C9 40 0 31 0 20C0 9 9 0 20 0C31 0 40 9 40 20C40 31 31 40 20 40Z" fill="#9681BA"/>
<path d="M20.0008 29.5001C20.0008 29.5001 19.1008 30.1001 18.5008 30.1001C18.4008 30.1001 18.4008 30.1001 18.4008 30.1001C18.3008 30.1001 18.1008 30.1001 18.0008 30.0001H17.8008C16.7008 29.7001 16.2008 28.7001 16.4008 27.6001L17.9008 21.6001L18.6008 18.9001C19.2008 16.4001 16.6008 19.4001 16.1008 18.3001C15.7008 17.5001 18.1008 15.9001 19.9008 14.7001C19.9008 14.7001 20.8008 14.1001 21.4008 14.1001C21.5008 14.1001 21.5008 14.1001 21.5008 14.1001C21.6008 14.1001 21.8008 14.1001 21.9008 14.2001H22.1008C23.2008 14.5001 23.8008 15.5001 23.6008 16.6001L22.1008 22.6001L21.4008 25.3001C20.8008 27.8001 23.3008 24.8001 23.9008 25.9001C24.2008 26.7001 21.8008 28.2001 20.0008 29.5001Z" fill="white"/>
<path d="M23.8017 10.7001C23.4017 12.2001 21.9017 13.1001 20.4017 12.7001C18.9017 12.3001 18.0017 10.8001 18.4017 9.30011C18.8017 7.80011 20.3017 6.90011 21.8017 7.30011C23.3017 7.70011 24.2017 9.20011 23.8017 10.7001Z" fill="white"/>
<path opacity="0.1" d="M34.1008 5.8999C41.9008 13.6999 41.9008 26.3999 34.1008 34.1999C26.3008 41.9999 13.6008 41.9999 5.80078 34.1999" fill="black"/>
</g>
<defs>
<clipPath id="clip0">
<rect width="40" height="40" fill="white"/>
</clipPath>
</defs>
</svg>
