<svg width="47" height="47" viewBox="0 0 47 47" fill="none" xmlns="http://www.w3.org/2000/svg">
<path d="M45.3913 12.7191L33.4175 0.277043C33.247 0.100059 33.0118 0 32.7662 0H14.9199C12.9227 0 11.2978 1.62425 11.2978 3.62065V16.2693H4.0654C2.57113 16.2693 1.35547 17.4846 1.35547 18.9785V32.5409C1.35547 34.0347 2.57113 35.25 4.0654 35.25H11.2978V43.3857C11.2978 45.3786 12.9227 47 14.9199 47H42.0219C44.0191 47 45.644 45.3795 45.644 43.3877V13.3459C45.644 13.1122 45.5534 12.8875 45.3913 12.7191ZM32.9901 2.44005L42.8197 12.6538H32.9901V2.44005ZM4.0654 33.4423C3.56787 33.4423 3.16322 33.038 3.16322 32.5409V18.9785C3.16322 18.4814 3.56796 18.0769 4.0654 18.0769H28.4725C28.9701 18.0769 29.3747 18.4814 29.3747 18.9785V32.5409C29.3747 33.038 28.97 33.4423 28.4725 33.4423H4.0654ZM43.8362 43.3877C43.8362 44.3828 43.0223 45.1923 42.0218 45.1923H14.9199C13.9194 45.1923 13.1055 44.382 13.1055 43.3858V35.25H28.4725C29.9668 35.25 31.1825 34.0347 31.1825 32.5409V18.9785C31.1825 17.4846 29.9668 16.2693 28.4725 16.2693H13.1055V3.62065C13.1055 2.62089 13.9194 1.80766 14.9199 1.80766H31.1824V13.5577C31.1824 14.0569 31.5871 14.4615 32.0862 14.4615H43.8362V43.3877Z" fill="white"/>
<path d="M12.1613 22.9395C11.8612 22.5493 11.4887 22.296 11.0439 22.1795C10.7543 22.1018 10.133 22.063 9.17966 22.063H6.66406V29.8269H8.23168V26.8982H9.25383C9.96352 26.8982 10.5055 26.8611 10.8797 26.7869C11.1551 26.7269 11.4261 26.6043 11.6927 26.4188C11.9593 26.2335 12.179 25.9784 12.3521 25.6536C12.5251 25.3288 12.6116 24.9281 12.6116 24.4515C12.6115 23.8336 12.4614 23.3296 12.1613 22.9395ZM10.8188 25.0764C10.7006 25.2494 10.5372 25.3765 10.3289 25.4577C10.1205 25.539 9.70749 25.5795 9.08961 25.5795H8.23168V23.3764H8.989C9.55392 23.3764 9.92992 23.394 10.117 23.4294C10.3712 23.4753 10.5813 23.59 10.7472 23.7736C10.9132 23.9572 10.9961 24.1903 10.9961 24.4727C10.9962 24.7021 10.937 24.9034 10.8188 25.0764Z" fill="white"/>
<path d="M20.1472 24.184C19.9777 23.688 19.7305 23.2687 19.4057 22.9262C19.0809 22.5838 18.6907 22.3454 18.2353 22.2112C17.8964 22.1124 17.4038 22.063 16.7577 22.063H13.8926V29.8269H16.8425C17.4215 29.8269 17.884 29.7722 18.23 29.6627C18.6925 29.5144 19.0597 29.3079 19.3315 29.043C19.6917 28.6935 19.9688 28.2363 20.163 27.6714C20.3219 27.2088 20.4013 26.6581 20.4013 26.0191C20.4013 25.2918 20.3166 24.6801 20.1472 24.184ZM18.6219 27.3722C18.5159 27.7201 18.3791 27.9698 18.2114 28.1216C18.0437 28.2734 17.8328 28.3811 17.5786 28.4446C17.3844 28.4941 17.0684 28.5188 16.6306 28.5188H15.4602V23.3764H16.1646C16.8035 23.3764 17.2326 23.4011 17.4515 23.4506C17.7445 23.5141 17.9864 23.6359 18.177 23.816C18.3677 23.9961 18.5159 24.2467 18.6219 24.568C18.7278 24.8893 18.7808 25.3501 18.7808 25.9503C18.7808 26.5505 18.7278 27.0244 18.6219 27.3722Z" fill="white"/>
<path d="M27.0647 23.3764V22.063H21.7422V29.8269H23.3098V26.5275H26.551V25.2141H23.3098V23.3764H27.0647Z" fill="white"/>
</svg>
