<?xml version="1.0" encoding="utf-8"?><svg xmlns="http://www.w3.org/2000/svg" xmlns:xlink="http://www.w3.org/1999/xlink"><symbol viewBox="0 0 8 8" id="+" xmlns="http://www.w3.org/2000/svg"><path fill-rule="evenodd" clip-rule="evenodd" d="M3 0v3H0v2h3v3h2V5h3V3H5V0H3z"/></symbol><symbol viewBox="0 0 310 310" id="001-twitter" xmlns="http://www.w3.org/2000/svg"><path d="M302.973 57.388a117.512 117.512 0 0 1-14.993 5.463 66.276 66.276 0 0 0 13.494-23.73 5 5 0 0 0-7.313-5.824 117.994 117.994 0 0 1-34.878 13.783c-12.381-12.098-29.197-18.983-46.581-18.983-36.695 0-66.549 29.853-66.549 66.547 0 2.89.183 5.764.545 8.598C101.163 99.244 58.83 76.863 29.76 41.204a5.001 5.001 0 0 0-8.196.642c-5.896 10.117-9.013 21.688-9.013 33.461 0 16.035 5.725 31.249 15.838 43.137a56.37 56.37 0 0 1-8.907-3.977 5 5 0 0 0-7.427 4.257c-.007.295-.007.59-.007.889 0 23.935 12.882 45.484 32.577 57.229a57.372 57.372 0 0 1-5.063-.735 4.998 4.998 0 0 0-5.699 6.437c7.29 22.76 26.059 39.501 48.749 44.605-18.819 11.787-40.34 17.961-62.932 17.961a120.4 120.4 0 0 1-14.095-.826 5 5 0 0 0-3.286 9.174c29.023 18.609 62.582 28.445 97.047 28.445 67.754 0 110.139-31.95 133.764-58.753 29.46-33.421 46.356-77.658 46.356-121.367 0-1.826-.028-3.67-.084-5.508 11.623-8.757 21.63-19.355 29.773-31.536a5 5 0 0 0-6.182-7.351z"/></symbol><symbol viewBox="0 0 330.001 330.001" id="002-internet" xmlns="http://www.w3.org/2000/svg"><path d="M165.001 0C74.02 0 .001 74.018.001 164.997c0 90.983 74.019 165.004 165 165.004 8.284 0 15-6.716 15-15 0-8.284-6.716-15-15-15-74.44 0-135-60.563-135-135.004C30 90.56 90.561 30 165.001 30s135 60.56 135 134.997v37.507c0 12.407-10.096 22.5-22.504 22.5-12.406 0-22.499-10.093-22.499-22.5v-37.507c0-49.626-40.372-90-89.997-90-49.626 0-89.999 40.374-89.999 90 0 49.63 40.373 90.007 89.999 90.007 25.927 0 49.323-11.026 65.762-28.63 8.706 16.978 26.379 28.63 46.734 28.63 28.951 0 52.504-23.551 52.504-52.5v-37.507C330 74.018 255.982 0 165.001 0zm0 225.004c-33.084 0-59.999-26.919-59.999-60.007 0-33.084 26.915-60 59.999-60 33.083 0 59.997 26.916 59.997 60 0 33.088-26.915 60.007-59.997 60.007z"/></symbol><symbol viewBox="0 0 304.36 304.36" id="003-vk" xmlns="http://www.w3.org/2000/svg"><path d="M261.945 175.576c10.096 9.857 20.752 19.131 29.807 29.982 4 4.822 7.787 9.798 10.684 15.394 4.105 7.955.387 16.709-6.746 17.184l-44.34-.02c-11.436.949-20.559-3.655-28.23-11.474-6.139-6.253-11.824-12.908-17.727-19.372-2.42-2.642-4.953-5.128-7.979-7.093-6.053-3.929-11.307-2.726-14.766 3.587-3.523 6.421-4.322 13.531-4.668 20.687-.475 10.441-3.631 13.186-14.119 13.664-22.414 1.057-43.686-2.334-63.447-13.641-17.422-9.968-30.932-24.04-42.691-39.971-22.895-31.021-40.428-65.108-56.186-100.15C-2.01 76.458.584 72.22 9.295 72.07c14.465-.281 28.928-.261 43.41-.02 5.879.086 9.771 3.458 12.041 9.012 7.826 19.243 17.402 37.551 29.422 54.521 3.201 4.518 6.465 9.036 11.113 12.216 5.142 3.521 9.057 2.354 11.476-3.374 1.535-3.632 2.207-7.544 2.553-11.434 1.146-13.383 1.297-26.743-.713-40.079-1.234-8.323-5.922-13.711-14.227-15.286-4.238-.803-3.607-2.38-1.555-4.799 3.564-4.172 6.916-6.769 13.598-6.769h50.111c7.889 1.557 9.641 5.101 10.721 13.039l.043 55.663c-.086 3.073 1.535 12.192 7.07 14.226 4.43 1.448 7.35-2.096 10.008-4.905 11.998-12.734 20.561-27.783 28.211-43.366 3.395-6.852 6.314-13.968 9.143-21.078 2.096-5.276 5.385-7.872 11.328-7.757l48.229.043c1.43 0 2.877.021 4.262.258 8.127 1.385 10.354 4.881 7.844 12.817-3.955 12.451-11.65 22.827-19.174 33.251-8.043 11.129-16.645 21.877-24.621 33.072-7.328 10.223-6.746 15.376 2.357 24.255zm0 0" fill-rule="evenodd" clip-rule="evenodd"/></symbol><symbol viewBox="0 0 80 80" id="Icon_uslugi_01" xmlns="http://www.w3.org/2000/svg"><path d="M64.944 59.5c-.6.9-1.3 1.7-2 2.5m5.001-7.6c-.5 1-1 2-1.6 3m3.5-8c-.3 1-.6 2-1 3m-5.401-32c6.5 7.7 8.8 17.7 6.9 27m-54.699-26c.8-1 1.6-2 2.6-2.9m-5.8 7.9c.5-1 1.1-2 1.8-3m-3.8 8c.3-1 .7-2 1.1-3m4.1 32c-6.1-7.8-8-17.8-5.7-27M39.445 48a7.5 7.5 0 1 0 0-15 7.5 7.5 0 0 0 0 15zM45.944 17.2l-1.8 12.8c.8.3 1.6.7 2.3 1.2l9.5-8.7c-2.8-2.5-6.2-4.4-10-5.3zM59.745 26.7l-9.5 8.8c.9 1.7 1.4 3.5 1.4 5.5 0 3.6-1.6 6.8-4.1 8.9l6.1 11.4c6.5-4.4 10.7-11.9 10.7-20.3 0-5.4-1.7-10.3-4.6-14.3z"/><path d="M33.045 31.2c1.6-1.1 3.5-1.8 5.5-2l1.8-12.8h-.6c-6.2 0-11.9 2.3-16.2 6.1l9.5 8.7zm9.4 21.3c-.9.2-1.8.3-2.8.3-6.6 0-11.9-5.3-11.9-11.9 0-2 .5-3.9 1.4-5.5l-9.5-8.8c-2.9 4-4.6 9-4.6 14.3 0 13.6 11 24.6 24.6 24.6 3.1 0 6.1-.6 8.8-1.7l-6-11.3zM56.944 11v6m3-3h-6M19.945 62v6m3-3h-6"/></symbol><symbol viewBox="0 0 80 80" id="Icon_uslugi_02" xmlns="http://www.w3.org/2000/svg"><path d="M38.493 67.477c13.917 0 25.2-11.283 25.2-25.2 0-13.918-11.283-25.2-25.2-25.2-13.918 0-25.2 11.282-25.2 25.2 0 13.917 11.282 25.2 25.2 25.2z"/><path d="M61.026 13h-37v28h37V13z"/><path d="M48.026 13h-11v6h11v-6zM57.675 38.834l.125-.072.068-.127c1.636-3.08 3.621-4.385 5.877-4.95 1.199-.287 2.273-.327 3.12-.157.73.146 1.261.438 1.59.831-.653 1.418-2.197 3.72-3.758 5.872-1.648 2.272-3.259 4.302-3.74 4.832-.529.577-2.858 2.759-5.255 4.807-1.197 1.022-2.398 2-3.388 2.72-.497.36-.93.649-1.28.846a3.53 3.53 0 0 1-.432.212 1.07 1.07 0 0 1-.133.044c-.03.008-.044.008-.043.008H32.127c-1.072 0-1.823.614-2.507 1.363-.26.283-.526.606-.802.94l-.268.324c-.29.349-.602.713-.95 1.082a313.39 313.39 0 0 1-3.063-2.835l-1.695-1.578c-2.105-1.956-4.408-4.078-6.056-5.504 1.448-1.32 5.659-5.303 7.494-7.139a12.155 12.155 0 0 1 2.421-1.857c.943-.544 1.902-.896 2.725-.896h6.4c.321 0 .718.138 1.186.404.462.261.94.617 1.42.99l.337.265c.357.281.712.562 1.034.784.215.148.431.282.64.38.205.096.44.177.683.177h7.8c1.35 0 2.2.532 2.7 1.2l.266.354.383-.22 5.4-3.1z"/><path d="M38.026 47h11c5 0 5-7 0-7h-7.8c-1.1 0-3.5-3-5.3-3h-6.4c-1.8 0-4.2 1.6-5.5 2.9-2.1 2.1-7.3 7-7.9 7.5 3.3 2.8 10.1 9.3 11.6 10.6 2-2 2.8-3.9 4.5-3.9h18.3c1.5 0 9.8-7.6 10.9-8.8 1-1.1 6.5-8.2 7.7-11.1-.8-1.1-2.9-1.5-5.4-.9-2.4.6-4.5 2-6.2 5.2l-5.5 2.5"/><path d="M16.787 43.163L10 49.953 25.063 65.01l6.788-6.789-15.064-15.059zM15.627 49l2.6 2.6M27.026 33h2m2 0h2m2 0h2"/></symbol><symbol viewBox="0 0 80 80" id="Icon_uslugi_03" xmlns="http://www.w3.org/2000/svg"><path d="M63 67.7H17c-4.4 0-8-3.6-8-8v-7h62v7c0 4.4-3.6 8-8 8z"/><path d="M68 50.7c0-1.2.5-5.5-2.4-6.2-.2-.5-1.3-2.8-2.2-4.8-.8-1.8-2.7-3-4.7-3H51v19h16.6s1.4-.9 1.4-2c0-1 .3-2.6-1-3zM16 16.7h-2m-2 0h-2m36 0h-9.8c-.4-1-1.5-1.8-2.7-1.8-.4 0-.7 0-1.1.2C31.7 13.3 30 12 28 12c-2.6 0-4.7 2.7-4.7 4.7H18m52 5h-4c-.7-1-2-2.1-3.7-1.9-.7-1.2-2-2.2-3.6-2.2-2.3 0-4.1 2-4.1 4H45"/><path d="M51 55.7h16.6s1.4-.9 1.4-2c0-1 .3-2.7-1-3 0-1.2.5-5.5-2.4-6.2-.2-.5-1.3-2.8-2.2-4.8-.8-1.8-2.7-3-4.7-3H51"/><path d="M61 44.6l-1.6-3.5c-.1-.3-.4-.4-.7-.4H55v5h5.3c.6 0 1-.6.7-1.1zM51 27.7H18v28h33v-28z"/><path d="M31 55.7c0 2.2-1.8 4-4 4s-4-1.8-4-4 1.8-4 4-4 4 1.8 4 4zM62 55.7c0 2.2-1.8 4-4 4s-4-1.8-4-4 1.8-4 4-4 4 1.8 4 4z"/><path d="M38 40.7H12v19h26v-19z"/><path d="M29 40.7h-8v5h8v-5zM15 55.7h2m2 0h2m2 0h2"/></symbol><symbol viewBox="0 0 80 80" id="Icon_uslugi_04" xmlns="http://www.w3.org/2000/svg"><path d="M10.2 34.4C9.4 37.2 9 40.1 9 43c0 6.9 2.2 13.2 6 18.4M37.9 12c-11.8.8-21.8 8.2-26.3 18.6M70 34.4c.8 2.7 1.2 5.6 1.2 8.6 0 6.9-2.2 13.2-6 18.4M42.3 12c11.8.8 21.9 8.2 26.4 18.6"/><path d="M57.5 60.8C62.1 56.3 65 50 65 43.1c0-13.7-11.1-24.7-24.8-24.7-13.6 0-24.7 11-24.7 24.7 0 6.9 2.9 13.2 7.5 17.7m17-42.6v4m-14.9 1.5l2.4 3.1M16.4 37.2l3.8.9m-2.4 15.1l3.6-1.6m34-27.9L53 26.8m11.1 10.4l-3.8.9m2.3 15.1l-3.5-1.6"/><path d="M49.503 58.663c4.67-4.703 4.643-12.3-.06-16.97-4.703-4.67-12.3-4.643-16.97.06-4.67 4.702-4.643 12.3.06 16.97 4.703 4.67 12.3 4.643 16.97-.06z"/><path d="M55.2 38.8l-12.9 7.4c-1.4-.5-3-.3-4.2.7-1.9 1.5-2.2 4.3-.7 6.3 1.5 1.9 4.3 2.2 6.2.7 1.2-1 1.8-2.5 1.7-3.9l10.4-10.5-.5-.7zM52 35.5c-4.4-5.9-12.8-7.1-18.7-2.7-2.2 1.6-3.7 3.8-4.6 6.3l.4.4c.5-.5 1-1.1 1.7-1.5 5-3.8 12.1-3.3 15.6 1.7l5.9-3.5c-.1-.3-.2-.5-.3-.7z"/></symbol><symbol viewBox="0 0 80 80" id="Icon_uslugi_05" xmlns="http://www.w3.org/2000/svg"><path d="M56.85 56.85c9.178-9.177 9.178-24.056 0-33.233-9.177-9.177-24.056-9.177-33.233 0-9.177 9.177-9.177 24.056 0 33.233 9.177 9.178 24.056 9.178 33.233 0z"/><path d="M15.96 23.722c5.4-7.6 14.3-12.6 24.4-12.6 9.6 0 18.1 4.6 23.6 11.6m-7.2 42.8c-4.7 3.1-10.4 5-16.4 5-10.1 0-19-5-24.4-12.7M56.762 37.422c0-3.7-7.2-6.7-16-6.7s-16 3-16 6.7v13.4c1 3 8.1 6 17 6s14.3-4.1 15-6v-13.4zM28.762 38.722v12"/><path d="M42.962 23.022c-1-.3-2.1-.3-3.1 0l-30.1 8.7v3.1l30.2 9.2c.9.3 1.8.3 2.6 0l29.2-9.2v-3.1l-28.8-8.7z"/><path d="M67.062 36.422l4.7-1.6v-3.1l-28.8-8.7c-1-.3-2.1-.3-3.1 0l-30.1 8.7v3.1l30.2 9.2c.9.3 1.8.3 2.6 0l20.2-6.4"/><path d="M41.661 31.422l20.8 6.1c1.4.3 2.3 1.7 2.3 3.3v8M68.762 60.722l-3-10h-2l-3 10c-.3 1 .9 2 2 2h4c1.1 0 2.3-.9 2-2z"/><path d="M67.762 48.722c0 1.7-1.4 3-3 3-1.7 0-3-1.3-3-3s1.4-3 3-3c1.7 0 3 1.4 3 3z"/></symbol><symbol viewBox="0 0 80 80" id="Icon_uslugi_06" xmlns="http://www.w3.org/2000/svg"><path d="M40 68c16.016 0 29-12.984 29-29S56.016 10 40 10 11 22.984 11 39s12.984 29 29 29z"/><path d="M66 14H14v40h52V14z"/><path d="M53 47.7c.5-.2.9-.4 1.4-.4 1.7 0 5.7 2.9 7 1.7 1-.9-1.9-5-1.9-6.3 0-1.6 2.1-2.8 2.1-4.3 0-1.6-2.1-2.8-2.1-4.3 0-1.6 2.3-2.8 2.3-4.3 0-1.6-2.3-2.8-2.3-4.3s3.2-5.2 1.9-6.3c-1.2-1.2-5.3 1.7-7 1.7-1.7 0-3.1-2-4.8-2-1.7 0-3.1 2-4.8 2-1.7 0-3.1-2-4.8-2-1.7 0-3.1 2-4.8 2-1.7 0-3.1-2-4.8-2-1.7 0-3.1 2-4.8 2-1.7 0-5.7-2.9-7-1.7-1.3 1.1 1.9 4.7 1.9 6.3 0 1.6-2.3 2.8-2.3 4.3 0 1.6 2.3 2.8 2.3 4.3 0 1.6-2.3 2.8-2.3 4.3s2.3 2.8 2.3 4.3-3.2 5.2-1.9 6.3c1.2 1.2 5.3-1.7 7-1.7.5 0 1 .2 1.4.4M34 27h13m-17 5h21M27 54h-8m42 0h-8m13-17v17h-3m0-40h3v17M19 14h42m5 19v2m-52 2v17h3m0-40h-3v17m0 2v2M36 55v15l4-3 4 3V55h-8z"/><path d="M40 39.5c2-3 6.7-1.1 6 2.5 3.6-.7 5.5 4 2.5 6 3 2 1.1 6.7-2.5 6 .7 3.6-4 5.5-6 2.5-2 3-6.7 1.1-6-2.5-3.6.7-5.5-4-2.5-6-3-2-1.1-6.7 2.5-6-.7-3.6 4-5.6 6-2.5zM34 42l1 1m11 11l-1-1m1-11l-1 1M34 54l1-1m14-5h-2m-14 0h-2m9-9v2m0 16v-2"/><path d="M40 52a4 4 0 1 0 0-8 4 4 0 0 0 0 8z"/></symbol><symbol viewBox="0 0 80 80" id="Icon_uslugi_11" xmlns="http://www.w3.org/2000/svg"><path d="M35.5 62C50.136 62 62 50.136 62 35.5S50.136 9 35.5 9 9 20.864 9 35.5 20.864 62 35.5 62zM61 56v13m-21 0V56"/><path d="M69 21H30v32h39V21z"/><path d="M30 34V21h39v32H30v-8M19.5 33.8c2.6 0 4.5-2.1 4.5-4.7v-1.6c0-2.6-1.9-4.7-4.5-4.7S15 24.9 15 27.5V29c0 2.6 1.9 4.8 4.5 4.8z"/><path d="M40 37H17c-4.7 0-8 1.5-8 6v9c0 2.1 1.9 4 4 4h13V42h9c3 0 5-2.8 5-5z"/><path d="M26 43H14v27h12V43zM26 43v27m-6-16v16m-6-27v27m20-22h7l3-4h6l6-10h4l3-5h2M37 69h6m15 0h6M71 16H28v7h43v-7z"/></symbol><symbol viewBox="0 0 80 80" id="Icon_uslugi_12" xmlns="http://www.w3.org/2000/svg"><path d="M37 50c10.493 0 19-8.507 19-19s-8.507-19-19-19-19 8.507-19 19 8.507 19 19 19zM27 26v6m3-3h-6m44 6v6m3-3h-6"/><path d="M18 65h21c2.9 0 13.3-3.1 14.4-3.9 1.1-.8 7.8-8.5 9.5-10.8-.4-1.1-2.1-2.1-4.4-1.9-2.6.3-5.9 5.3-6.1 5.4l-8.1 1.8c-.3-.1-3.1-1-5.8-1.7-.9-.2-2.5-2.3-2.5-2.5 0-1 .4-1 2-1.8 1.1-.6 4.6-1.2 5.8-4 1.1-2.5.4-5-4.1-3.2-1.9.7-9.9 3-13.3 4.4-1.3 1.3-3.2 4-4.6 5H18V65z"/><path d="M44.5 30.4c0-2.6-2.1-4.8-4.8-4.8-2.6 0-4.8 2.1-4.8 4.8 0 2.6 2.1 4.8 4.8 4.8 2.7 0 4.8-2.1 4.8-4.8zm15.2-10.1c0-2.6-2.1-4.8-4.8-4.8-2.7 0-4.8 2.1-4.8 4.8 0 2.6 2.1 4.8 4.8 4.8 2.7 0 4.8-2.1 4.8-4.8zm-6.5 24.3a4.8 4.8 0 1 0 0-9.6 4.8 4.8 0 0 0 0 9.6zM19 47H9v21h10V47zM14 51v3m26-33v8m0-12v2M65 16v15"/></symbol><symbol viewBox="0 0 80 80" id="Icon_uslugi_13" xmlns="http://www.w3.org/2000/svg"><path d="M41 70c16.016 0 29-12.984 29-29S57.015 12 41 12 12 24.984 12 41s12.984 29 29 29z"/><path d="M41 32c3.6 0 6-.6 10-2v-3c0-1.6-5.5-4-10-4s-10 2.4-10 4v3c4 1.4 6.4 2 10 2z"/><path d="M41 11c-2.6 0-5 2.1-5 4.7v3.6c0 2.6 2.4 4.7 5 4.7s5-2.1 5-4.7v-3.6c0-2.6-2.4-4.7-5-4.7zM41 68c3.6 0 6-.6 10-2v-3c0-1.6-5.5-4-10-4s-10 2.4-10 4v3c4 1.4 6.4 2 10 2z"/><path d="M41 47c-2.6 0-5 2.1-5 4.7v3.6c0 2.6 2.4 4.7 5 4.7s5-2.1 5-4.7v-3.6c0-2.6-2.4-4.7-5-4.7zM20 68c3.6 0 6-.6 10-2v-3c0-1.6-5.5-4-10-4s-10 2.4-10 4v3c4 1.4 6.4 2 10 2z"/><path d="M20 47c-2.6 0-5 2.1-5 4.7v3.6c0 2.6 2.4 4.7 5 4.7s5-2.1 5-4.7v-3.6c0-2.6-2.4-4.7-5-4.7zM61 68c3.6 0 6-.6 10-2v-3c0-1.6-5.5-4-10-4s-10 2.4-10 4v3c4 1.4 6.4 2 10 2z"/><path d="M61 47c-2.6 0-5 2.1-5 4.7v3.6c0 2.6 2.4 4.7 5 4.7s5-2.1 5-4.7v-3.6c0-2.6-2.4-4.7-5-4.7zM41 35v9m20 0v-5H20v5"/></symbol><symbol viewBox="0 0 80 80" id="Icon_uslugi_14" xmlns="http://www.w3.org/2000/svg"><path d="M53 12.2V27h5c1.7 0 3 1.3 3 3v24.5c5.5-4.5 9-11.3 9-19 0-10.9-7.1-20.2-17-23.3z"/><path d="M12 27c-1.7 0-3 1.3-3 3v29c0 1.7 1.3 3 3 3h46c1.7 0 3-1.3 3-3V30c0-1.7-1.3-3-3-3h-2"/><path d="M20 12v-2c0-.6.4-1 1-1h31c.6 0 1 .4 1 1v20M24 71l2-2h19l2 2m-18-4v-5h13v5M9 56h52"/><path d="M15 50V15c0-.6.4-1 1-1h31c.6 0 1 .4 1 1v23M14 22h27m-23-4h2m2 0h2m2 0h2m20 22v2m5-6v2m0-6v2"/><path d="M44 36.5l-1.6-3.9-3 1.3c-.6-.9-1.4-1.6-2.2-2.2l1.3-3-4-1.7-1.3 3c-1-.2-2.1-.2-3.1 0l-1.3-3-3.9 1.6 1.3 3c-.9.6-1.6 1.4-2.2 2.2l-3-1.3-1.6 3.9 3 1.3c-.2 1-.2 2.1 0 3.1l-3 1.3L21 46l3-1.3c.6.9 1.4 1.6 2.2 2.2l-1.3 3 3.9 1.6 1.3-3c1 .2 2.1.2 3.1 0l1.3 3 3.9-1.6-1.3-3c.9-.6 1.6-1.4 2.2-2.2l3 1.3 1.6-3.9-3-1.3c.2-1 .2-2.1 0-3.1l3.1-1.2z"/><path d="M35.5 37.8c.9 2.1-.1 4.5-2.2 5.4-2.1.9-4.5-.1-5.4-2.2-.9-2.1.1-4.5 2.2-5.4 2.1-.9 4.5.1 5.4 2.2z"/></symbol><symbol viewBox="0 0 80 80" id="Icon_uslugi_15" xmlns="http://www.w3.org/2000/svg"><path d="M70 40c0-16.569-13.431-30-30-30-16.569 0-30 13.431-30 30 0 16.569 13.431 30 30 30 16.569 0 30-13.431 30-30z"/><path d="M22 50h23v21H28l-6-4.5V50zm4-25h6v10h-6z"/><path d="M15 67h7c2.3 0 2.8 3 6 3h8"/><path d="M15 67h7c2.3 0 2.8 3 6 3h8M48 54h-5c-1.1 0-2 .9-2 2v2c0 1.1.9 2 2 2h5c1.1 0 2-.9 2-2v-2c0-1.1-.9-2-2-2zm-1-6h-5c-1.1 0-2 .9-2 2v2c0 1.1.9 2 2 2h5c1.1 0 2-.9 2-2v-2c0-1.1-.9-2-2-2zm0 12h-5c-1.1 0-2 .9-2 2v2c0 1.1.9 2 2 2h5c1.1 0 2-.9 2-2v-2c0-1.1-.9-2-2-2zm-2 6h-5c-1.1 0-2 .9-2 2v1c0 1.1.9 2 2 2h5c1.1 0 2-.9 2-2v-1c0-1.1-.9-2-2-2z"/><path d="M21 48H11v22h10V48zM46 18v4M46 25v4H25l-4.2 5.6c-.6.8-1.8.4-1.8-.6v-5h-3V9h30v6"/><path d="M46 25v4H25l-4.2 5.6c-.6.8-1.8.4-1.8-.6v-5h-3V9h30v6"/><path d="M54 33h5l4.2 5.6c.6.8 1.8.4 1.8-.6v-5h3V15H36v4"/><path d="M54 33h5l4.2 5.6c.6.8 1.8.4 1.8-.6v-5h3V15H36v4"/><path d="M39 39h6l4.2 5.6c.6.8 1.8.4 1.8-.6v-5h3V22H27v4"/><path d="M39 39h6l4.2 5.6c.6.8 1.8.4 1.8-.6v-5h3V22H27v4M32 39h-5v-7"/><path d="M32 39h-5v-7"/><path d="M29.2 62c4.7-1.8 7.7-6.2 7.8-11v-5c0-.7 1-2.3 1-5.6s-.6-4.5-2-6.3c-1.4-1.8-4-1.3-4 .5V36c0 4-1.5 6.6-4.1 9.6L24 50h-2"/><path d="M29.2 62c4.7-1.8 7.7-6.2 7.8-11v-5c0-.7 1-2.3 1-5.6s-.6-4.5-2-6.3c-1.4-1.8-4-1.3-4 .5V36c0 4-1.5 6.6-4.1 9.6L24 50h-2m-6 1v4"/></symbol><symbol viewBox="0 0 80 80" id="Icon_uslugi_16" xmlns="http://www.w3.org/2000/svg"><path d="M40 19h14.1c.6 4 3.9 6.6 7.9 7.2v20.2c0 10.8-19.2 20.1-22 20.1-2.8 0-22-9.3-22-20.1V26.2c4-.6 7.3-3.2 7.9-7.2H40z"/><path d="M68 37v9.3c0 6.8-4.4 13.3-12.8 19.2M47 14h8m-30 0h8m-8.2 51.6C16.4 59.7 12 53.1 12 46.3V37M53.7 41.4c0 8.1-6.5 14.6-14.6 14.6s-14.6-6.5-14.6-14.6S31 26.8 39.1 26.8c1.8 0 3.6.3 5.2 1"/><path d="M53.2 26.9L40 40l-5.5-5.4-4.4 4.4 9.9 9.8 17.6-17.5-4.4-4.4zM68 25v2m0 2v2m0 2v2M12 25v2m0 2v2m0 2v2m27-21h2m-6 0h2m6 0h2"/></symbol><symbol viewBox="0 0 9 16" id="arrow" xmlns="http://www.w3.org/2000/svg"><mask id="aqa"><path fill-rule="evenodd" clip-rule="evenodd" d="M2.343.879l6.364 6.364a1 1 0 0 1 0 1.414L2.343 15.02a1 1 0 0 1-1.414-1.415L5.585 8.95H0v-2h5.585L.93 2.293A1 1 0 0 1 2.343.879z"/></mask><path fill-rule="evenodd" clip-rule="evenodd" d="M2.343.879l6.364 6.364a1 1 0 0 1 0 1.414L2.343 15.02a1 1 0 0 1-1.414-1.415L5.585 8.95H0v-2h5.585L.93 2.293A1 1 0 0 1 2.343.879z"/><path d="M8.707 7.243L7.293 8.657l1.414-1.414zM2.343.879L3.757-.536 2.343.88zm6.364 7.778L7.293 7.243l1.414 1.414zM2.343 15.02l1.414 1.414-1.414-1.414zm-1.414 0l-1.415 1.414L.93 15.021zm0-1.415l-1.415-1.414L.93 13.607zM5.585 8.95L7 10.364l3.414-3.414H5.585v2zM0 8.95h-2v2h2v-2zm0-2v-2h-2v2h2zm5.585 0v2h4.829L7 5.535 5.585 6.95zM.93 2.293L-.486 3.707.93 2.293zm0-1.414L-.486-.536.93.88zm9.192 4.95L3.757-.537.929 2.293l6.364 6.364 2.828-2.829zm0 4.242a3 3 0 0 0 0-4.243L7.293 8.657a1 1 0 0 1 0-1.414l2.828 2.828zm-6.364 6.364l6.364-6.364-2.828-2.828L.93 13.607l2.828 2.828zm-4.243 0a3 3 0 0 0 4.243 0L.929 13.607a1 1 0 0 1 1.414 0l-2.829 2.828zm0-4.243a3 3 0 0 0 0 4.243l2.829-2.828a1 1 0 0 1 0 1.414l-2.829-2.829zm4.657-4.657l-4.657 4.657 2.829 2.829L7 10.364 4.17 7.535zM0 10.95h5.585v-4H0v4zm-2-4v2h4v-2h-4zm7.585-2H0v4h5.585v-4zm-6.07-1.243L4.17 8.364 7 5.535 2.343.88-.486 3.707zm0-4.243a3 3 0 0 0 0 4.243L2.342.879a1 1 0 0 1 0 1.414L-.486-.536zm4.242 0a3 3 0 0 0-4.243 0l2.829 2.829a1 1 0 0 1-1.414 0L3.757-.536z" mask="url(#aqa)"/></symbol><symbol viewBox="0 0 20 20" id="blocks" xmlns="http://www.w3.org/2000/svg"><path d="M0 0h5.185v5H0zm7.407 0h5.185v5H7.407zm7.408 0H20v5h-5.185zM0 7.5h5.185v5H0zm7.407 0h5.185v5H7.407zm7.408 0H20v5h-5.185zM0 15h5.185v5H0zm7.407 0h5.185v5H7.407zm7.408 0H20v5h-5.185z"/></symbol><symbol viewBox="0 0 24 24" id="cart" xmlns="http://www.w3.org/2000/svg"><path d="M9 22a1 1 0 1 0 0-2 1 1 0 0 0 0 2zm11 0a1 1 0 1 0 0-2 1 1 0 0 0 0 2zM1 1h4l2.68 13.39a2 2 0 0 0 2 1.61h9.72a2 2 0 0 0 2-1.61L23 6H6"/></symbol><symbol viewBox="0 0 12 12" id="category" xmlns="http://www.w3.org/2000/svg"><circle cx="2.769" cy="2.769" r="2.269"/><circle cx="9.231" cy="2.769" r="2.269"/><circle cx="2.769" cy="9.231" r="2.269"/><circle cx="9.231" cy="9.231" r="2.269"/></symbol><symbol viewBox="0 0 14 10" id="check" xmlns="http://www.w3.org/2000/svg"><path fill-rule="evenodd" clip-rule="evenodd" d="M5 10L0 5.192l1.4-1.346L5 7.308 12.6 0 14 1.346 5 10z"/></symbol><symbol viewBox="0 0 14 14" id="close" xmlns="http://www.w3.org/2000/svg"><path fill-rule="evenodd" clip-rule="evenodd" d="M14 1.4L12.6 0 7 5.6 1.4 0 0 1.4 5.6 7 0 12.6 1.4 14 7 8.4l5.6 5.6 1.4-1.4L8.4 7 14 1.4z"/></symbol><symbol viewBox="0 0 12 8" id="down" xmlns="http://www.w3.org/2000/svg"><path opacity=".54" fill-rule="evenodd" clip-rule="evenodd" d="M10.6.6L6 5.2 1.4.6 0 2l6 6 6-6L10.6.6z"/></symbol><symbol viewBox="0 0 20 20" id="download" xmlns="http://www.w3.org/2000/svg"><path d="M1 11v5a2 2 0 0 0 2 2h14a2 2 0 0 0 2-2v-5"/><path d="M9.293 14.707a1 1 0 0 0 1.414 0l6.364-6.364a1 1 0 0 0-1.414-1.414L10 12.586 4.343 6.929A1 1 0 0 0 2.93 8.343l6.364 6.364zM9 1v13h2V1H9z"/></symbol><symbol viewBox="0 0 20 20" id="download2" xmlns="http://www.w3.org/2000/svg"><path d="M1 11v5a2 2 0 0 0 2 2h14a2 2 0 0 0 2-2v-5"/><path d="M9.293 14.707a1 1 0 0 0 1.414 0l6.364-6.364a1 1 0 0 0-1.414-1.414L10 12.586 4.343 6.929A1 1 0 0 0 2.93 8.343l6.364 6.364zM9 1v13h2V1H9z"/></symbol><symbol viewBox="0 0 32 24" id="email" xmlns="http://www.w3.org/2000/svg"><path d="M31.25 1.938a2.435 2.435 0 0 0-.906-.875A2.487 2.487 0 0 0 29.156.75H2.875c-.438 0-.813.094-1.188.313-.375.187-.687.5-.906.843C.5 2.281.375 2.75.375 3.25v17.5c0 .469.125.906.344 1.281.219.375.5.657.875.875a2.53 2.53 0 0 0 1.281.344h26.25a2.53 2.53 0 0 0 1.281-.344c.375-.218.657-.5.875-.875a2.53 2.53 0 0 0 .344-1.281V3.25c0-.5-.125-.938-.375-1.313zM29.125 2h.094L17.78 12c-.812.688-2.156.719-3 .031L2.844 2h26.281zM22.75 13.5l-.875.875 7.563 7.563a1.108 1.108 0 0 1-.313.062H2.875c-.125 0-.219 0-.313-.063l7.594-7.562-.875-.875-7.594 7.563c-.062-.094-.062-.188-.062-.313V3.25c0-.188.063-.375.125-.531L14 13c.625.531 1.5.875 2.313.875.843 0 1.656-.375 2.312-.938L30.281 2.75c.063.156.094.313.094.5v17.5c0 .125 0 .219-.063.313L22.75 13.5z"/></symbol><symbol viewBox="0 0 20 20" id="error" xmlns="http://www.w3.org/2000/svg"><path d="M6 14l8-8M6 6l8 8"/></symbol><symbol viewBox="0 0 10 20" id="fb" xmlns="http://www.w3.org/2000/svg"><path d="M6.452 19.375v-8.553h2.87l.43-3.333h-3.3V5.361c0-.965.268-1.623 1.651-1.623h1.765V.757A23.473 23.473 0 0 0 7.297.625C4.752.625 3.01 2.179 3.01 5.031V7.49H.132v3.333H3.01v8.553h3.442z"/></symbol><symbol viewBox="0 0 14 12" id="filter" xmlns="http://www.w3.org/2000/svg"><path d="M13.07.5a.21.21 0 0 1 .04.004l-4.512 5.19-.001.002h-.001v.002c-.24.266-.383.603-.384.964v4.269H5.74l-.03.01h-.003a2.38 2.38 0 0 1-.046-.003l-.025-.002a1.417 1.417 0 0 0-.106-.005.18.18 0 0 1-.084-.019V6.663c0-.362-.144-.7-.384-.966l-.002-.002L.547.504A.212.212 0 0 1 .587.5H13.07zM4.946 6.663v4.288l-.257-4.92a.944.944 0 0 1 .257.632zM13.07 0H.588 13.07z"/></symbol><symbol viewBox="0 0 80 80" id="icon_pay_01" xmlns="http://www.w3.org/2000/svg"><path d="M67.619 46.831c3.204-15.128-6.463-29.99-21.591-33.194-15.129-3.204-29.99 6.463-33.194 21.591-3.204 15.128 6.462 29.99 21.59 33.194 15.129 3.204 29.99-6.462 33.195-21.59z"/><path d="M51.9 33l-.2-.2c-1.1-1.2-1.2-2.9-.3-3.8l4.1-3.9c1.5-1.4 3.6-1.6 4.8-.4l.2.2c1.1 1.2.8 3.3-.7 4.7l-4.1 3.9c-1 .9-2.7.6-3.8-.5zm-21 5.1l-5.4-2-7.2 22.8c.4.3.8.7 1.2 1 1.4 1.2 2.6 2.6 3.7 4.1l7 1c1.5-1.7 2.7-2.8 4-4 10.2.8 15-6.8 16-8 1-1.2-19.3-14.9-19.3-14.9z"/><path d="M52.2 54h-20c-1.7 0-3-1.3-3-3V13c0-1.7 1.3-3 3-3h20c1.7 0 3 1.3 3 3v38c0 1.7-1.3 3-3 3z"/><path d="M55.2 15h-26v31h26V15zm-.5 38.1l-.2-.2c-1.1-1-1.5-2.4-.9-3.1l2.6-3c.9-1.1 2.6-1.2 3.8-.2l.2.2c1.1 1 1.3 2.7.3 3.8l-2.6 3c-.7.7-2.1.5-3.2-.5z"/><path d="M29.8 38c1-3.1 1.5-5.3 1.8-9 .2-2.1-.7-3.9-1.6-5.2-1-1.3-3.3-1-3.7.5-2.1 6.6-2.4 8.4-3.7 11.7-1.4 3.7-.6 8.9-1.3 10.4-.1.3-4.9 6.4-6.2 8.3 1.4.7 4.3 2 5.5 3 1.4 1.2 2.8 2.7 3.9 4.2l1.1.1 6.3-6.5c2.6-7.9.3-14.4-2.1-17.5z"/><path d="M31.8 55.4c2.7-7.8.5-14.3-2-17.4 1-3.1 1.5-5.3 1.8-9 .2-2.1-.7-3.9-1.6-5.2-1-1.3-3.3-1-3.7.5-2.1 6.6-2.4 8.4-3.7 11.7-1.4 3.7-.6 8.9-1.3 10.4-.1.3-4.9 6.4-6.2 8.3 1.4.7 4.3 2 5.5 3 1.4 1.2 2.8 2.7 3.9 4.2l1.1.1"/><path d="M16.878 50.343l-5.447 5.442 15.408 15.421 5.447-5.442-15.408-15.421zM54.7 46.1l-.2-.2c-1.1-1-1.6-2.4-.9-3.1l2.7-3.1c1-1.1 2.7-1.2 3.8-.2l.2.2c1.1 1 1.3 2.7.3 3.8l-2.7 3.1c-.6.7-2.1.5-3.2-.5z"/><path d="M54.7 39.3l-.2-.2c-1.1-1-1.6-2.4-.9-3.1l2.7-3.1c1-1.1 2.7-1.2 3.8-.2l.2.2c1.1 1 1.3 2.7.3 3.8l-2.7 3.1c-.6.7-2.1.5-3.2-.5zM39.2 50h6m-7.6-23c.8-1.8 2.5-3 4.6-3 2 0 3.8 1.2 4.6 3m-12.1-3c1.6-2.4 4.4-4 7.5-4 3.1 0 5.9 1.6 7.5 4M39.2 37c0 1.1.9 2 2 2h2.3c1 0 1.7-.8 1.7-1.7 0-.7-.5-1.4-1.2-1.7l-3.6-1.2c-.7-.2-1.2-.9-1.2-1.7 0-1 .8-1.7 1.7-1.7h2.3c1.1 0 2 .9 2 2m-3-2v-3m0 11v3"/></symbol><symbol viewBox="0 0 80 80" id="icon_pay_02" xmlns="http://www.w3.org/2000/svg"><path d="M68 40c0-15.464-12.536-28-28-28S12 24.536 12 40s12.536 28 28 28 28-12.536 28-28z"/><path d="M37 16l-3-2-3 2-3-2-3 2-4-2v40c0 2.2 1.8 4 4 4h16V14l-4 2z"/><path d="M33 23c-2.2 0-4 1.8-4 4v27c0 2.2-1.8 4-4 4h12V23h-4z"/><path d="M38 38V27c0-2.2-1.8-4-4-4h20c2.2 0 4 1.8 4 4v11H38z"/><path d="M41 20v-6l-4 2-3-2-3 2-3-2-3 2-4-2v40c0 2.2 1.8 4 4 4"/><path d="M25 58c2.2 0 4-1.8 4-4V27c0-2.2 1.8-4 4-4h1M34 68V37c0-1.1.9-2 2-2h24c1.1 0 2 .9 2 2v31c0 1.1-.9 2-2 2H36c-1.1 0-2-.9-2-2z"/><path d="M56 43H40v6h16v-6zM39 53h4m3 0h4m3 0h4m-18 4h4m3 0h4m3 0h4m-4 4h4m-7 0h-4m-3 0h-4M38 38V27c0-2.2-1.8-4-4-4h20c2.2 0 4 1.8 4 4v11H38zM25 58h7"/></symbol><symbol viewBox="0 0 80 80" id="icon_pay_03" xmlns="http://www.w3.org/2000/svg"><path d="M67 40c0-14.912-12.089-27-27-27-14.912 0-27 12.088-27 27s12.088 27 27 27c14.911 0 27-12.088 27-27z"/><path d="M42 64v-4s4-2.4 4-7V35l-14.4-2-6.4 5.2c-1.4 1.3-2.2 3.2-2.2 5.1V64h19z"/><path d="M31 8v39h5v4h21V8H31z"/><path d="M52 43V16c-1.7 0-3-1.3-3-3H39c0 1.7-1.3 3-3 3v27c1.7 0 3 1.3 3 3h10c0-1.7 1.3-3 3-3zM44 19v2"/><path d="M44 25c2.8 0 5 1.8 5 4s-2.2 4-5 4-5-1.8-5-4 2.2-4 5-4zM39.3 36.2C37 38.6 27.9 47.4 27.9 47.4l8 10.4s3.4-4.1 1.1-9.1c0 0 4-4.5 5-5.9 2.3-3.2-.4-8.9-2.7-6.6z"/><path d="M27.9 47.4s9.1-8.9 11.4-11.2c2.3-2.3 5 3.4 2.8 6.6-1 1.4-5 5.9-5 5.9 2.2 5-1.1 9.1-1.1 9.1M45 63H21v7h24v-7z"/><path d="M21 70v-7h24v7m-21-3h3"/></symbol><symbol viewBox="0 0 80 80" id="icon_pay_04" xmlns="http://www.w3.org/2000/svg"><path d="M38 68c15.464 0 28-12.536 28-28S53.464 12 38 12 10 24.536 10 40s12.536 28 28 28z"/><path d="M70 26H18v29h52V26z"/><path d="M58 26H18v29h52V30M55 50h9M25 33h8M35 38h5m-5-5h13"/><path d="M9 20h18c2.8 0 5 2.2 5 5v25c0-2.8-2.2-5-5-5H9V20zM27 55c2.8 0 5-2.2 5-5M67.6 28.4L49 47l-7 3 3-7 18.6-18.6c.8-.8 2-.8 2.8 0l1.2 1.2c.8.8.8 2 0 2.8z"/><path d="M66 24l2-2c.6-.6 1.4-.6 2 0 .6.6.6 1.4 0 2l-2 2m-6 0l4 4M46 42l4 4M53 50h-2"/></symbol><symbol viewBox="0 0 80 80" id="icon_tech_01" xmlns="http://www.w3.org/2000/svg"><path d="M67.568 42.461c0-14.635-11.864-26.5-26.5-26.5-14.635 0-26.5 11.865-26.5 26.5 0 14.636 11.865 26.5 26.5 26.5 14.636 0 26.5-11.864 26.5-26.5z"/><path d="M36.072 34.473l-15.5 15.5 13.7 14.2 6.9-6.9c1.6-1.6 4.8.8 7.1-1.4l2.3-2.3 2.3-2.3-16.8-16.8z"/><path d="M31.473 21.873c1.1-3.1.3-6.7-2.2-9.2-2.7-2.8-6.8-3.4-10.2-1.8l5.3 5.3-4.2 4.2-5.3-5.3c-1.6 3.3-1 7.5 1.8 10.2 2.5 2.5 6.1 3.2 9.2 2.2l32.7 32.7c1.6 1.6 4.1 1.6 5.7 0 1.6-1.6 1.6-4.1 0-5.7l-32.8-32.6z"/><path d="M46.273 26.773l-2.1-2.1c-.8-.8-2-.8-2.8 0l-4.2 4.2 4.9 4.9 4.2-4.2c.8-.8.8-2 0-2.8z"/><path d="M37.072 28.873l4.2-4.2c.8-.8 2-.8 2.8 0l2.1 2.1c.8.8.8 2 0 2.8l-4.2 4.2M52.672 30.273l-2.1-2.1c-.8-.8-2-.8-2.8 0l-5.7 5.7 4.9 4.9 5.7-5.7c.8-.7.8-2 0-2.8z"/><path d="M46.972 38.773l5.7-5.7c.8-.8.8-2 0-2.8l-2.1-2.1c-.8-.8-2-.8-2.8 0l-5.7 5.7M57.773 37.973c.7-.7.7-1.9-.1-2.7l-2.1-2.1c-.8-.8-2-.8-2.7-.1l-5.9 5.9c-.7.7-.7 1.9.1 2.7l2.1 2.1c.8.8 2 .8 2.7.1l5.9-5.9z"/><path d="M40.273 27.773c-1.2-1.2-2.5-1.9-4.4-1.6-1.9.3-5.1.6-6.2 1.4-1.1.8-2.1 4.8-2.1 7.8 0 3.7-.1 7.3-.9 8.1l-6.5 6.5 16.9-1.5c4-4 3.4-10.8.1-14l4.5 4.5c3.2 3.2 8 .9 8.8-1.1-1-.9-10.2-10.1-10.2-10.1z"/><path d="M20.173 50.073l6.5-6.5c.8-.8.9-4.4.9-8.1 0-3.1 1-7 2.1-7.8 1.1-.8 4.2-1.1 6.2-1.4 2-.3 3.2.4 4.4 1.6l10.2 10.2c-.8 2-5.6 4.3-8.8 1.1l-4.5-4.5c3.2 3.2 3.8 10-.1 14M60.673 43.673c.7-.7.7-1.7 0-2.4l-1.8-1.8c-.7-.7-1.7-.7-2.4 0l-5.4 5.4c-.7.7-.7 1.7 0 2.4l1.8 1.8c.7.7 1.7.7 2.4 0l5.4-5.4z"/><path d="M38.928 63.018L20.963 45.063 14.6 51.428l17.965 17.956 6.362-6.366zM59.572 55.473l2 2m-41-7l3 3"/></symbol><symbol viewBox="0 0 80 80" id="icon_tech_02" xmlns="http://www.w3.org/2000/svg"><path d="M39.5 66C53.031 66 64 55.031 64 41.5S53.031 17 39.5 17 15 27.969 15 41.5 25.969 66 39.5 66z"/><path d="M57 27v-2c0-7.2-7.6-13-17-13s-17 5.8-17 13v2h-2v5h38v-5h-2zM30 64V52m20 0v12M26 39v5.9c0 1.4.5 2.7 1.3 3.7l4.9 6.1c1.1 1.4 2.9 2.3 4.7 2.3h6.2c1.8 0 3.5-.8 4.7-2.3l4.9-6.1c.9-1.1 1.3-2.4 1.3-3.7V39c0-3.3-2.7-6-6-6H32c-3.3 0-6 2.7-6 6z"/><path d="M24 30v3.1c0 2.7 6.6 4.9 16 4.9s16-2.2 16-4.9V30H24z"/><path d="M56 30v3.1c0 2.7-6.6 4.9-16 4.9s-16-2.2-16-4.9V30m34 37v-4c0-1.9-.9-2.7-2.5-3.8L51 56m3 6l-12 7v2m-16-9l12 7v2m-16-5v-3c0-1.9.9-2.7 2.5-3.8L29 56M44 12v-2h-8v2h-4v7h4v4h8v-4h4v-7h-4z"/><path d="M48 19v-7h-4m-12 7v-7h4m8 11V10h-8v13m-8 8c2 1.3 4.3 2 6.6 2h10.8c2.4 0 4.6-.7 6.6-2"/></symbol><symbol viewBox="0 0 80 80" id="icon_tech_03" xmlns="http://www.w3.org/2000/svg"><path d="M40 63c14.912 0 27-12.088 27-27S54.912 9 40 9 13 21.088 13 36s12.088 27 27 27z"/><path d="M57 29c0-7.4-7.4-15-16.5-15S24 21.6 24 29v11s1.6 1 4 2c0 5.8 3.1 10.7 8.1 13.7.1 0 .2.1.3.1 2.7 1.5 5.9 1.5 8.6 0 .1 0 .1-.1.1-.1 2.5-1.5 4.4-3.5 5.8-5.9.5.1.9.2 1.2.2 3.3 0 5-4 5-4V29H57z"/><path d="M57 42V29.3C57 22 49.6 14 40.5 14S24 22 24 29.3V40m8 12v7m17-7v7m1.97-2.93l-9.971 9.97 4.03 4.03L55 60.1l-4.03-4.03zm-20.94-.141l-4.031 4.03 9.97 9.97L40 65.9l-9.97-9.97zM23.3 44h.7V34h-.7c-2.2 0-4.3 2.1-4.3 4.3v1.4c0 2.2 2.1 4.3 4.3 4.3zm34.4 0H57V34h.7c2.4 0 4.3 1.9 4.3 4.3v1.4c0 2.4-1.9 4.3-4.3 4.3z"/><path d="M53 38v3.6c0 5.8-3 11.1-8 14.1-.1 0-.1.1-.1.1-2.6 1.6-5.9 1.6-8.6 0-.1 0-.2-.1-.3-.1-5-3-8.1-8.3-8.1-14.1V34M34 22c0 7 13.9 16 21 16m-27-4c.9-3 5-7 8-7"/><path d="M41 50h10.2c2.3 0 4.3-1.4 5.1-3.5L57 45v-2"/><path d="M42 52h-3c-1.1 0-2-.9-2-2v-1c0-1.1.9-2 2-2h3c1.1 0 2 .9 2 2v1c0 1.1-.9 2-2 2z"/></symbol><symbol viewBox="0 0 80 80" id="icon_tech_04" xmlns="http://www.w3.org/2000/svg"><path d="M53.5 50.7c9.665 0 17.5-7.835 17.5-17.5s-7.835-17.5-17.5-17.5S36 23.535 36 33.2s7.835 17.5 17.5 17.5z"/><path d="M47 20.7h-9.8c-.4-1-1.5-1.8-2.7-1.8-.4 0-.7 0-1.1.2C32.7 17.3 31 16 29 16c-2.6 0-4.7 2.7-4.7 4.7H15m56 5h-4c-.7-1-2-2.1-3.7-1.9-.7-1.2-2-2.2-3.6-2.2-2.3 0-4.1 2-4.1 4H46M70 54.7c0-1.2.5-5.5-2.4-6.2-.2-.5-1.3-2.8-2.2-4.8-.8-1.8-2.7-3-4.7-3H53v19h16.6s1.4-.9 1.4-2c0-1 .3-2.6-1-3z"/><path d="M53 59.7h16.6s1.4-.9 1.4-2c0-1 .3-2.7-1-3 0-1.2.5-5.5-2.4-6.2-.2-.5-1.3-2.8-2.2-4.8-.8-1.8-2.7-3-4.7-3H53"/><path d="M63 48.6l-1.6-3.5c-.1-.3-.4-.4-.7-.4H57v5h5.3c.6 0 1-.6.7-1.1zM21 31.7v28h32v-28H21z"/><path d="M21 39.7v-8h32v28H21v-9m0-2v-6"/><path d="M34 59.7c0 2.2-1.8 4-4 4s-4-1.8-4-4 1.8-4 4-4 4 1.8 4 4zm30 0c0 2.2-1.8 4-4 4s-4-1.8-4-4 1.8-4 4-4 4 1.8 4 4zM31 47.7H12m30-8H17m31-8H17m-2 0h-2m-2 0H9m1 16H8m7-8h-2"/></symbol><symbol viewBox="0 0 40 40" id="info" xmlns="http://www.w3.org/2000/svg"><g clip-path="url(#blclip0)"><path d="M20 40c11 0 20-9 20-20S31 0 20 0 0 9 0 20s9 20 20 20z"/><path d="M20 40C9 40 0 31 0 20S9 0 20 0s20 9 20 20-9 20-20 20z"/><path d="M20 29.5s-.9.6-1.5.6h-.1c-.1 0-.3 0-.4-.1h-.2c-1.1-.3-1.6-1.3-1.4-2.4l1.5-6 .7-2.7c.6-2.5-2 .5-2.5-.6-.4-.8 2-2.4 3.8-3.6 0 0 .9-.6 1.5-.6h.1c.1 0 .3 0 .4.1h.2c1.1.3 1.7 1.3 1.5 2.4l-1.5 6-.7 2.7c-.6 2.5 1.9-.5 2.5.6.3.8-2.1 2.3-3.9 3.6zm3.802-18.8c-.4 1.5-1.9 2.4-3.4 2-1.5-.4-2.4-1.9-2-3.4.4-1.5 1.9-2.4 3.4-2 1.5.4 2.4 1.9 2 3.4z"/><path opacity=".1" d="M34.1 5.9c7.8 7.8 7.8 20.5 0 28.3-7.8 7.8-20.5 7.8-28.3 0"/></g><defs><clipPath id="blclip0"><path d="M0 0h40v40H0z"/></clipPath></defs></symbol><symbol viewBox="0 0 8 12" id="left" xmlns="http://www.w3.org/2000/svg"><path opacity=".54" fill-rule="evenodd" clip-rule="evenodd" d="M7.4 1.4L6 0 0 6l6 6 1.4-1.4L2.8 6l4.6-4.6z"/></symbol><symbol viewBox="0 0 16 16" id="left-arrow" xmlns="http://www.w3.org/2000/svg"><path fill-rule="evenodd" clip-rule="evenodd" d="M16 7H3.8l5.6-5.6L8 0 0 8l8 8 1.4-1.4L3.8 9H16V7z"/></symbol><symbol viewBox="0 0 20 20" id="list" xmlns="http://www.w3.org/2000/svg"><path d="M0 0h20v5H0zm0 7.5h20v5H0zM0 15h20v5H0z"/></symbol><symbol viewBox="0 0 24 24" id="loop" xmlns="http://www.w3.org/2000/svg"><g opacity=".5"><path opacity=".54" fill-rule="evenodd" clip-rule="evenodd" d="M15.502 14h-.794l-.276-.274A6.47 6.47 0 0 0 16 9.5 6.5 6.5 0 1 0 9.5 16a6.47 6.47 0 0 0 4.225-1.566l.276.274v.792l4.998 4.991L20.49 19l-4.988-5zM9.5 14a4.5 4.5 0 1 1 0-9 4.5 4.5 0 0 1 0 9z"/></g></symbol><symbol viewBox="0 0 24 24" id="minus" xmlns="http://www.w3.org/2000/svg"><path d="M6 11h12v2H6z"/></symbol><symbol viewBox="0 0 40 40" id="minus2" xmlns="http://www.w3.org/2000/svg"><path d="M20 40C8.953 40 0 31.047 0 20S8.953 0 20 0s20 8.953 20 20-8.953 20-20 20z"/><rect x="8" y="18" width="24" height="4" rx="2"/><path opacity=".1" d="M34.14 5.86c7.813 7.812 7.813 20.468 0 28.28-7.812 7.813-20.468 7.813-28.28 0"/></symbol><symbol viewBox="0 0 21 8" id="next" xmlns="http://www.w3.org/2000/svg"><path d="M20.354 4.354a.5.5 0 0 0 0-.708L17.172.464a.5.5 0 1 0-.707.708L19.293 4l-2.828 2.828a.5.5 0 1 0 .707.708l3.182-3.182zM0 4.5h20v-1H0v1z"/></symbol><symbol viewBox="0 0 47 47" id="pdf" xmlns="http://www.w3.org/2000/svg"><path d="M45.391 12.72L33.417.276a.905.905 0 0 0-.65-.277H14.92a3.626 3.626 0 0 0-3.622 3.62v12.65H4.065a2.713 2.713 0 0 0-2.71 2.709V32.54a2.713 2.713 0 0 0 2.71 2.709h7.233v8.136A3.622 3.622 0 0 0 14.92 47h27.102a3.621 3.621 0 0 0 3.622-3.612V13.346a.904.904 0 0 0-.253-.627zm-12.4-10.28l9.829 10.214h-9.83V2.44zM4.064 33.442a.903.903 0 0 1-.902-.901V18.979c0-.498.405-.902.902-.902h24.407c.498 0 .903.404.903.901v13.563a.903.903 0 0 1-.902.901H4.064zm39.771 9.946c0 .995-.814 1.804-1.814 1.804H14.92c-1 0-1.815-.81-1.815-1.806V35.25h15.367a2.713 2.713 0 0 0 2.71-2.71V18.98a2.713 2.713 0 0 0-2.71-2.71H13.105V3.621c0-1 .814-1.813 1.815-1.813h16.262v11.75c0 .499.405.903.904.903h11.75v28.927z"/><path d="M12.161 22.94c-.3-.39-.672-.644-1.117-.76-.29-.078-.911-.117-1.864-.117H6.664v7.764h1.568v-2.929h1.022c.71 0 1.252-.037 1.626-.111a2.27 2.27 0 0 0 .813-.368c.266-.186.486-.44.66-.765.172-.325.259-.726.259-1.203 0-.617-.15-1.121-.45-1.512zm-1.342 2.136c-.118.173-.282.3-.49.382-.209.081-.622.122-1.24.122h-.857v-2.204h.757c.565 0 .94.018 1.128.053.254.046.464.161.63.345.166.183.25.416.25.699 0 .23-.06.43-.178.603zm9.328-.892a3.393 3.393 0 0 0-.741-1.258 2.597 2.597 0 0 0-1.17-.715c-.34-.099-.832-.148-1.478-.148h-2.865v7.764h2.95c.579 0 1.041-.055 1.387-.164.462-.149.83-.355 1.101-.62.36-.35.638-.807.832-1.372.159-.462.238-1.013.238-1.652 0-.727-.084-1.339-.254-1.835zm-1.525 3.188c-.106.348-.243.598-.41.75-.168.151-.38.26-.633.323-.195.05-.51.074-.948.074h-1.17v-5.143h.704c.639 0 1.068.025 1.287.075.292.063.534.185.725.365.19.18.339.43.445.752.106.321.159.782.159 1.382 0 .6-.053 1.074-.16 1.422zm8.443-3.996v-1.313h-5.323v7.764h1.568v-3.3h3.241v-1.313H23.31v-1.838h3.755z"/></symbol><symbol viewBox="0 0 24 24" id="plus" xmlns="http://www.w3.org/2000/svg"><path d="M6 11h12v2H6z"/><path d="M13 6v12h-2V6z"/></symbol><symbol viewBox="0 0 21 8" id="prev" xmlns="http://www.w3.org/2000/svg"><path d="M.646 3.646a.5.5 0 0 0 0 .708l3.182 3.182a.5.5 0 0 0 .708-.708L1.707 4l2.829-2.828a.5.5 0 1 0-.708-.708L.646 3.646zM21 3.5H1v1h20v-1z"/></symbol><symbol viewBox="0 0 8 12" id="right" xmlns="http://www.w3.org/2000/svg"><path opacity=".54" fill-rule="evenodd" clip-rule="evenodd" d="M.6 10.6L2 12l6-6-6-6L.6 1.4 5.2 6 .6 10.6z"/></symbol><symbol viewBox="0 0 14 12" id="round" xmlns="http://www.w3.org/2000/svg"><path d="M13.391 1.2a.604.604 0 0 0-.608.6v2.315L10.39 1.757A6.112 6.112 0 0 0 6.087 0C2.725 0 0 2.686 0 6s2.725 6 6.087 6c2.945 0 5.4-2.061 5.965-4.8h-1.249c-.54 2.07-2.447 3.6-4.716 3.6-2.69 0-4.87-2.15-4.87-4.8 0-2.651 2.18-4.8 4.87-4.8a4.89 4.89 0 0 1 3.445 1.407L11.756 4.8H9.74a.604.604 0 0 0-.609.6c0 .331.273.6.61.6h3.651A.604.604 0 0 0 14 5.4V1.8c0-.331-.273-.6-.609-.6z"/></symbol><symbol viewBox="0 0 81 82" id="round-left" xmlns="http://www.w3.org/2000/svg"><path d="M52.5 81H41C18.909 81 1 63.091 1 41S18.909 1 41 1h40"/></symbol><symbol viewBox="0 0 129 129" id="search" xmlns="http://www.w3.org/2000/svg"><path d="M51.6 96.7c11 0 21-3.9 28.8-10.5l35 35c.8.8 1.8 1.2 2.9 1.2s2.1-.4 2.9-1.2c1.6-1.6 1.6-4.2 0-5.8l-35-35c6.5-7.8 10.5-17.9 10.5-28.8 0-24.9-20.2-45.1-45.1-45.1-24.8 0-45.1 20.3-45.1 45.1 0 24.9 20.3 45.1 45.1 45.1zm0-82c20.4 0 36.9 16.6 36.9 36.9C88.5 72 72 88.5 51.6 88.5S14.7 71.9 14.7 51.6c0-20.3 16.6-36.9 36.9-36.9z"/></symbol><symbol viewBox="0 0 10 6" id="select" xmlns="http://www.w3.org/2000/svg"><path d="M1 1l4 4 4-4"/></symbol><symbol viewBox="0 0 0 0" id="sprite" xmlns="http://www.w3.org/2000/svg"/><symbol viewBox="0 0 486.569 486.569" id="supermarket" xmlns="http://www.w3.org/2000/svg"><path d="M146.069 320.369h268.1c30.4 0 55.2-24.8 55.2-55.2v-114c0-.2 0-.4-.1-.6 0-.2-.1-.5-.1-.7s-.1-.4-.1-.6c-.1-.2-.1-.4-.2-.7-.1-.2-.1-.4-.2-.6-.1-.2-.1-.4-.2-.6-.1-.2-.2-.4-.3-.7-.1-.2-.2-.4-.3-.5l-.3-.6c-.1-.2-.2-.3-.3-.5-.1-.2-.3-.4-.4-.6-.1-.2-.2-.3-.4-.5-.1-.2-.3-.3-.4-.5s-.3-.3-.4-.5-.3-.3-.4-.4l-.5-.5c-.2-.1-.3-.3-.5-.4-.2-.1-.4-.3-.6-.4-.2-.1-.3-.2-.5-.3s-.4-.2-.6-.4l-.6-.3-.6-.3-.6-.3c-.2-.1-.4-.1-.6-.2-.2-.1-.5-.2-.7-.2s-.4-.1-.5-.1c-.3-.1-.5-.1-.8-.1-.1 0-.2-.1-.4-.1l-339.8-46.9v-47.4c0-.5 0-1-.1-1.4 0-.1 0-.2-.1-.4 0-.3-.1-.6-.1-.9-.1-.3-.1-.5-.2-.8 0-.2-.1-.3-.1-.5l-.3-.9c0-.1-.1-.3-.1-.4-.1-.3-.2-.5-.4-.8-.1-.1-.1-.3-.2-.4-.1-.2-.2-.4-.4-.6-.1-.2-.2-.3-.3-.5s-.2-.3-.3-.5-.3-.4-.4-.6l-.3-.3-.6-.6-.3-.3c-.2-.2-.4-.4-.7-.6-.1-.1-.3-.2-.4-.3-.2-.2-.4-.3-.6-.5-.3-.2-.6-.4-.8-.5-.1-.1-.2-.1-.3-.2-.4-.2-.9-.4-1.3-.6l-73.7-31c-6.9-2.9-14.8.3-17.7 7.2s.3 14.8 7.2 17.7l65.4 27.6v295.8c0 28 21 51.2 48.1 54.7-4.9 8.2-7.8 17.8-7.8 28 0 30.1 24.5 54.5 54.5 54.5s54.5-24.5 54.5-54.5c0-10-2.7-19.5-7.5-27.5h121.4c-4.8 8.1-7.5 17.5-7.5 27.5 0 30.1 24.5 54.5 54.5 54.5s54.5-24.5 54.5-54.5-24.5-54.5-54.5-54.5h-255c-15.6 0-28.2-12.7-28.2-28.2v-36.6c8.2 4.8 17.9 7.6 28.2 7.6zm67.2 111.6c0 15.2-12.4 27.5-27.5 27.5s-27.5-12.4-27.5-27.5 12.4-27.5 27.5-27.5 27.5 12.3 27.5 27.5zm215.4 0c0 15.2-12.4 27.5-27.5 27.5s-27.5-12.4-27.5-27.5 12.4-27.5 27.5-27.5 27.5 12.3 27.5 27.5zm-14.5-138.6h-268.1c-15.6 0-28.2-12.7-28.2-28.2v-145.9l324.5 44.7v101.1c0 15.7-12.7 28.3-28.2 28.3z"/></symbol><symbol viewBox="0 0 12 8" id="up" xmlns="http://www.w3.org/2000/svg"><path opacity=".54" fill-rule="evenodd" clip-rule="evenodd" d="M6 0L0 6l1.4 1.4L6 2.8l4.6 4.6L12 6 6 0z"/></symbol><symbol viewBox="0 0 20 20" id="valid" xmlns="http://www.w3.org/2000/svg"><path d="M6 10l3 3 7-7"/></symbol><symbol viewBox="0 0 20 16" id="vk" xmlns="http://www.w3.org/2000/svg"><path d="M17.927.416L1.692 6.678C.583 7.122.59 7.74 1.49 8.015l4.049 1.263 1.549 4.75c.188.52.095.726.641.726.422 0 .609-.192.843-.42l2.025-1.97 4.211 3.112c.775.427 1.335.206 1.528-.72L19.101 1.73C19.384.595 18.668.08 17.927.417zM6.174 8.989l9.127-5.758c.455-.276.873-.128.53.177l-7.815 7.05-.304 3.246L6.174 8.99z"/></symbol></svg>