<?xml version="1.0" encoding="utf-8"?><svg xmlns="http://www.w3.org/2000/svg" xmlns:xlink="http://www.w3.org/1999/xlink"><symbol viewBox="0 0 8 8" id="+" xmlns="http://www.w3.org/2000/svg"><path fill-rule="evenodd" clip-rule="evenodd" d="M3 0v3H0v2h3v3h2V5h3V3H5V0H3z"/></symbol><symbol viewBox="0 0 310 310" id="001-twitter" xmlns="http://www.w3.org/2000/svg"><path d="M302.973 57.388a117.512 117.512 0 0 1-14.993 5.463 66.276 66.276 0 0 0 13.494-23.73 5 5 0 0 0-7.313-5.824 117.994 117.994 0 0 1-34.878 13.783c-12.381-12.098-29.197-18.983-46.581-18.983-36.695 0-66.549 29.853-66.549 66.547 0 2.89.183 5.764.545 8.598C101.163 99.244 58.83 76.863 29.76 41.204a5.001 5.001 0 0 0-8.196.642c-5.896 10.117-9.013 21.688-9.013 33.461 0 16.035 5.725 31.249 15.838 43.137a56.37 56.37 0 0 1-8.907-3.977 5 5 0 0 0-7.427 4.257c-.007.295-.007.59-.007.889 0 23.935 12.882 45.484 32.577 57.229a57.372 57.372 0 0 1-5.063-.735 4.998 4.998 0 0 0-5.699 6.437c7.29 22.76 26.059 39.501 48.749 44.605-18.819 11.787-40.34 17.961-62.932 17.961a120.4 120.4 0 0 1-14.095-.826 5 5 0 0 0-3.286 9.174c29.023 18.609 62.582 28.445 97.047 28.445 67.754 0 110.139-31.95 133.764-58.753 29.46-33.421 46.356-77.658 46.356-121.367 0-1.826-.028-3.67-.084-5.508 11.623-8.757 21.63-19.355 29.773-31.536a5 5 0 0 0-6.182-7.351z"/></symbol><symbol viewBox="0 0 330.001 330.001" id="002-internet" xmlns="http://www.w3.org/2000/svg"><path d="M165.001 0C74.02 0 .001 74.018.001 164.997c0 90.983 74.019 165.004 165 165.004 8.284 0 15-6.716 15-15 0-8.284-6.716-15-15-15-74.44 0-135-60.563-135-135.004C30 90.56 90.561 30 165.001 30s135 60.56 135 134.997v37.507c0 12.407-10.096 22.5-22.504 22.5-12.406 0-22.499-10.093-22.499-22.5v-37.507c0-49.626-40.372-90-89.997-90-49.626 0-89.999 40.374-89.999 90 0 49.63 40.373 90.007 89.999 90.007 25.927 0 49.323-11.026 65.762-28.63 8.706 16.978 26.379 28.63 46.734 28.63 28.951 0 52.504-23.551 52.504-52.5v-37.507C330 74.018 255.982 0 165.001 0zm0 225.004c-33.084 0-59.999-26.919-59.999-60.007 0-33.084 26.915-60 59.999-60 33.083 0 59.997 26.916 59.997 60 0 33.088-26.915 60.007-59.997 60.007z"/></symbol><symbol viewBox="0 0 304.36 304.36" id="003-vk" xmlns="http://www.w3.org/2000/svg"><path d="M261.945 175.576c10.096 9.857 20.752 19.131 29.807 29.982 4 4.822 7.787 9.798 10.684 15.394 4.105 7.955.387 16.709-6.746 17.184l-44.34-.02c-11.436.949-20.559-3.655-28.23-11.474-6.139-6.253-11.824-12.908-17.727-19.372-2.42-2.642-4.953-5.128-7.979-7.093-6.053-3.929-11.307-2.726-14.766 3.587-3.523 6.421-4.322 13.531-4.668 20.687-.475 10.441-3.631 13.186-14.119 13.664-22.414 1.057-43.686-2.334-63.447-13.641-17.422-9.968-30.932-24.04-42.691-39.971-22.895-31.021-40.428-65.108-56.186-100.15C-2.01 76.458.584 72.22 9.295 72.07c14.465-.281 28.928-.261 43.41-.02 5.879.086 9.771 3.458 12.041 9.012 7.826 19.243 17.402 37.551 29.422 54.521 3.201 4.518 6.465 9.036 11.113 12.216 5.142 3.521 9.057 2.354 11.476-3.374 1.535-3.632 2.207-7.544 2.553-11.434 1.146-13.383 1.297-26.743-.713-40.079-1.234-8.323-5.922-13.711-14.227-15.286-4.238-.803-3.607-2.38-1.555-4.799 3.564-4.172 6.916-6.769 13.598-6.769h50.111c7.889 1.557 9.641 5.101 10.721 13.039l.043 55.663c-.086 3.073 1.535 12.192 7.07 14.226 4.43 1.448 7.35-2.096 10.008-4.905 11.998-12.734 20.561-27.783 28.211-43.366 3.395-6.852 6.314-13.968 9.143-21.078 2.096-5.276 5.385-7.872 11.328-7.757l48.229.043c1.43 0 2.877.021 4.262.258 8.127 1.385 10.354 4.881 7.844 12.817-3.955 12.451-11.65 22.827-19.174 33.251-8.043 11.129-16.645 21.877-24.621 33.072-7.328 10.223-6.746 15.376 2.357 24.255zm0 0" fill-rule="evenodd" clip-rule="evenodd"/></symbol><symbol viewBox="0 0 24 24" id="cart" xmlns="http://www.w3.org/2000/svg"><path d="M9 22a1 1 0 1 0 0-2 1 1 0 0 0 0 2zm11 0a1 1 0 1 0 0-2 1 1 0 0 0 0 2zM1 1h4l2.68 13.39a2 2 0 0 0 2 1.61h9.72a2 2 0 0 0 2-1.61L23 6H6"/></symbol><symbol viewBox="0 0 14 10" id="check" xmlns="http://www.w3.org/2000/svg"><path fill-rule="evenodd" clip-rule="evenodd" d="M5 10L0 5.192l1.4-1.346L5 7.308 12.6 0 14 1.346 5 10z"/></symbol><symbol viewBox="0 0 14 14" id="close" xmlns="http://www.w3.org/2000/svg"><path fill-rule="evenodd" clip-rule="evenodd" d="M14 1.4L12.6 0 7 5.6 1.4 0 0 1.4 5.6 7 0 12.6 1.4 14 7 8.4l5.6 5.6 1.4-1.4L8.4 7 14 1.4z"/></symbol><symbol viewBox="0 0 12 8" id="down" xmlns="http://www.w3.org/2000/svg"><path opacity=".54" fill-rule="evenodd" clip-rule="evenodd" d="M10.6.6L6 5.2 1.4.6 0 2l6 6 6-6L10.6.6z"/></symbol><symbol viewBox="0 0 20 20" id="download" xmlns="http://www.w3.org/2000/svg"><path d="M1 11v5a2 2 0 0 0 2 2h14a2 2 0 0 0 2-2v-5"/><path d="M9.293 14.707a1 1 0 0 0 1.414 0l6.364-6.364a1 1 0 0 0-1.414-1.414L10 12.586 4.343 6.929A1 1 0 0 0 2.93 8.343l6.364 6.364zM9 1v13h2V1H9z"/></symbol><symbol viewBox="0 0 32 24" id="email" xmlns="http://www.w3.org/2000/svg"><path d="M31.25 1.938a2.435 2.435 0 0 0-.906-.875A2.487 2.487 0 0 0 29.156.75H2.875c-.438 0-.813.094-1.188.313-.375.187-.687.5-.906.843C.5 2.281.375 2.75.375 3.25v17.5c0 .469.125.906.344 1.281.219.375.5.657.875.875a2.53 2.53 0 0 0 1.281.344h26.25a2.53 2.53 0 0 0 1.281-.344c.375-.218.657-.5.875-.875a2.53 2.53 0 0 0 .344-1.281V3.25c0-.5-.125-.938-.375-1.313zM29.125 2h.094L17.78 12c-.812.688-2.156.719-3 .031L2.844 2h26.281zM22.75 13.5l-.875.875 7.563 7.563a1.108 1.108 0 0 1-.313.062H2.875c-.125 0-.219 0-.313-.063l7.594-7.562-.875-.875-7.594 7.563c-.062-.094-.062-.188-.062-.313V3.25c0-.188.063-.375.125-.531L14 13c.625.531 1.5.875 2.313.875.843 0 1.656-.375 2.312-.938L30.281 2.75c.063.156.094.313.094.5v17.5c0 .125 0 .219-.063.313L22.75 13.5z"/></symbol><symbol viewBox="0 0 10 20" id="fb" xmlns="http://www.w3.org/2000/svg"><path d="M6.452 19.375v-8.553h2.87l.43-3.333h-3.3V5.361c0-.965.268-1.623 1.651-1.623h1.765V.757A23.473 23.473 0 0 0 7.297.625C4.752.625 3.01 2.179 3.01 5.031V7.49H.132v3.333H3.01v8.553h3.442z"/></symbol><symbol viewBox="0 0 8 12" id="left" xmlns="http://www.w3.org/2000/svg"><path opacity=".54" fill-rule="evenodd" clip-rule="evenodd" d="M7.4 1.4L6 0 0 6l6 6 1.4-1.4L2.8 6l4.6-4.6z"/></symbol><symbol viewBox="0 0 24 24" id="loop" xmlns="http://www.w3.org/2000/svg"><g opacity=".5"><path opacity=".54" fill-rule="evenodd" clip-rule="evenodd" d="M15.502 14h-.794l-.276-.274A6.47 6.47 0 0 0 16 9.5 6.5 6.5 0 1 0 9.5 16a6.47 6.47 0 0 0 4.225-1.566l.276.274v.792l4.998 4.991L20.49 19l-4.988-5zM9.5 14a4.5 4.5 0 1 1 0-9 4.5 4.5 0 0 1 0 9z"/></g></symbol><symbol viewBox="0 0 24 24" id="minus" xmlns="http://www.w3.org/2000/svg"><path d="M6 11h12v2H6z"/></symbol><symbol viewBox="0 0 21 8" id="next" xmlns="http://www.w3.org/2000/svg"><path d="M20.354 4.354a.5.5 0 0 0 0-.708L17.172.464a.5.5 0 1 0-.707.708L19.293 4l-2.828 2.828a.5.5 0 1 0 .707.708l3.182-3.182zM0 4.5h20v-1H0v1z"/></symbol><symbol viewBox="0 0 24 24" id="plus" xmlns="http://www.w3.org/2000/svg"><path d="M6 11h12v2H6z"/><path d="M13 6v12h-2V6z"/></symbol><symbol viewBox="0 0 21 8" id="prev" xmlns="http://www.w3.org/2000/svg"><path d="M.646 3.646a.5.5 0 0 0 0 .708l3.182 3.182a.5.5 0 0 0 .708-.708L1.707 4l2.829-2.828a.5.5 0 1 0-.708-.708L.646 3.646zM21 3.5H1v1h20v-1z"/></symbol><symbol viewBox="0 0 8 12" id="right" xmlns="http://www.w3.org/2000/svg"><path opacity=".54" fill-rule="evenodd" clip-rule="evenodd" d="M.6 10.6L2 12l6-6-6-6L.6 1.4 5.2 6 .6 10.6z"/></symbol><symbol viewBox="0 0 10 6" id="select" xmlns="http://www.w3.org/2000/svg"><path d="M1 1l4 4 4-4"/></symbol><symbol viewBox="0 0 0 0" id="sprite" xmlns="http://www.w3.org/2000/svg"/><symbol viewBox="0 0 12 8" id="up" xmlns="http://www.w3.org/2000/svg"><path opacity=".54" fill-rule="evenodd" clip-rule="evenodd" d="M6 0L0 6l1.4 1.4L6 2.8l4.6 4.6L12 6 6 0z"/></symbol></svg>