<svg width="20" height="16" viewBox="0 0 20 16" fill="none" xmlns="http://www.w3.org/2000/svg">
<path d="M17.9266 0.415608L1.69156 6.6775C0.583488 7.12208 0.59006 7.74011 1.48959 8.01569L5.53866 9.27949L7.08793 14.0294C7.27627 14.5493 7.18343 14.7555 7.72935 14.7555C8.15066 14.7555 8.33756 14.5634 8.57221 14.3342C8.72142 14.1882 9.60738 13.3268 10.5966 12.365L14.8084 15.4769C15.5834 15.9044 16.1431 15.6829 16.336 14.7571L19.1008 1.72866C19.3838 0.593825 18.6681 0.0790699 17.9266 0.415608ZM6.17411 8.98914L15.3007 3.23109C15.7564 2.95478 16.1741 3.10333 15.8311 3.4078L8.01633 10.4587L7.71205 13.7041L6.17411 8.98914Z" fill="white"/>
</svg>
