<svg width="17" height="17" viewBox="0 0 17 17" fill="none" xmlns="http://www.w3.org/2000/svg">
    <path fill-rule="evenodd" clip-rule="evenodd" d="M13.8039 2.35876C12.2854 0.838479 10.266 0.000881509 8.11441 0C3.68124 0 0.0730883 3.60786 0.071358 8.0424C0.0707376 9.46 0.441102 10.8436 1.14497 12.0634L0.00390625 16.2312L4.26764 15.1127C5.4424 15.7535 6.76508 16.0912 8.11121 16.0917H8.11448C8.11474 16.0917 8.11428 16.0917 8.11454 16.0917C12.5473 16.0917 16.1556 12.4835 16.1575 8.04883C16.1583 5.89971 15.3225 3.87897 13.8039 2.35876ZM8.11445 14.7334H8.11174C6.91223 14.7329 5.73568 14.4106 4.70927 13.8015L4.46519 13.6567L1.93503 14.3203L2.6104 11.8535L2.45143 11.6005C1.78227 10.5362 1.42885 9.306 1.42937 8.04286C1.43081 4.35704 4.42977 1.35841 8.11716 1.35841C9.9027 1.35896 11.5812 2.05526 12.8434 3.31885C14.1055 4.58245 14.8002 6.26205 14.7995 8.04828C14.798 11.7344 11.7991 14.7334 8.11445 14.7334Z" fill="white"/>
    <path fill-rule="evenodd" clip-rule="evenodd" d="M11.783 9.72704C11.5821 9.62645 10.594 9.14035 10.4098 9.07323C10.2256 9.00617 10.0916 8.97264 9.95764 9.17382C9.82369 9.37496 9.43853 9.82767 9.32129 9.96182C9.20408 10.0959 9.08681 10.1128 8.88589 10.0121C8.68494 9.91148 8.03739 9.69929 7.26979 9.01462C6.67232 8.4817 6.26902 7.82364 6.15174 7.62239C6.03453 7.42124 6.13927 7.31249 6.23989 7.21226C6.3303 7.12218 6.44088 6.97755 6.54137 6.86018C6.64183 6.74287 6.67533 6.65897 6.74232 6.52494C6.80932 6.39079 6.77585 6.27342 6.72557 6.17286C6.67533 6.07227 6.27342 5.08309 6.10597 4.68063C5.94279 4.28881 5.77713 4.3419 5.65376 4.33566C5.53671 4.32982 5.40256 4.32861 5.2686 4.32861C5.13464 4.32861 4.91688 4.37892 4.73271 4.58007C4.54851 4.78128 4.0293 5.26752 4.0293 6.25661C4.0293 7.24582 4.74942 8.20144 4.84992 8.33553C4.95038 8.46972 6.26702 10.4995 8.283 11.37C8.76248 11.5771 9.13683 11.7008 9.42867 11.7934C9.91011 11.9464 10.3482 11.9247 10.6945 11.873C11.0806 11.8153 11.8835 11.3869 12.051 10.9175C12.2185 10.448 12.2185 10.0456 12.1682 9.96179C12.118 9.87798 11.984 9.82767 11.783 9.72704Z" fill="white"/>
</svg>
