<svg width="63" height="55" viewBox="0 0 63 55" fill="none" xmlns="http://www.w3.org/2000/svg">
<g clip-path="url(#clip0)">
<path d="M48.5737 40.0181C54.1252 30.4691 50.8847 18.2277 41.3357 12.6761C31.7866 7.12454 19.5452 10.3651 13.9937 19.9141C8.44208 29.4631 11.6826 41.7045 21.2317 47.2561C30.7807 52.8077 43.0221 49.5671 48.5737 40.0181Z" fill="#E9EAEB"/>
<path d="M48.4 11.1001C53.6 15.7001 56.9 22.6001 56.9 30.2001C56.9 40.7001 50.8 49.6001 42 53.4001" stroke="#56437E" stroke-width="2" stroke-miterlimit="10"/>
<path d="M46.5999 10.1999L48.8999 11.3999C50.1999 8.6999 49.0999 5.4999 46.5999 4.0999L44.2999 2.8999C42.9999 5.5999 44.0999 8.8999 46.5999 10.1999Z" fill="#D1BBFF" stroke="#56437E" stroke-width="2" stroke-miterlimit="10"/>
<path d="M56.2 24.2999L56.9 26.7C59.4 26 60.9 23.2 60.1 20.6L59.4 18.2C56.9 18.9 55.4 21.5999 56.2 24.2999Z" fill="#D1BBFF" stroke="#56437E" stroke-width="2" stroke-miterlimit="10"/>
<path d="M52.6001 15.9L53.9001 17.9C56.1001 16.4 56.8001 13.4 55.3001 11.2L54.0001 9.19995C51.8001 10.6 51.1001 13.6 52.6001 15.9Z" fill="#D1BBFF" stroke="#56437E" stroke-width="2" stroke-miterlimit="10"/>
<path d="M57.3 37.4C59.1 37.4 60.7 37.2 61.3 35.3C61.8 33.5 61.3 29 61.3 29C57.9 29.7 56.3 33 57.3 37.4Z" fill="#D1BBFF" stroke="#56437E" stroke-width="2" stroke-miterlimit="10"/>
<path d="M53.6999 42.7999L52.3999 44.9999C54.5999 46.3999 57.5999 45.6999 58.9999 43.2999L60.2999 41.1999C58.0999 39.6999 55.0999 40.4999 53.6999 42.7999Z" fill="#D1BBFF" stroke="#56437E" stroke-width="2" stroke-miterlimit="10"/>
<path d="M48.1999 49.8L45.8999 51.5C47.6999 54.1 51.1999 54.8 53.6999 52.9L55.9999 51.2C54.2999 48.6 50.7999 48 48.1999 49.8Z" fill="#D1BBFF" stroke="#56437E" stroke-width="2" stroke-miterlimit="10"/>
<path d="M14.1001 11.1001C8.9001 15.7001 5.6001 22.6001 5.6001 30.2001C5.6001 40.7001 11.7001 49.6001 20.5001 53.4001" stroke="#56437E" stroke-width="2" stroke-miterlimit="10"/>
<path d="M15.8999 10.1999L13.5999 11.3999C12.2999 8.6999 13.3999 5.4999 15.8999 4.0999L18.1999 2.8999C19.4999 5.5999 18.3999 8.8999 15.8999 10.1999Z" fill="#D1BBFF" stroke="#56437E" stroke-width="2" stroke-miterlimit="10"/>
<path d="M6.29993 24.2999L5.59993 26.7C3.09993 26 1.59993 23.2 2.39993 20.6L3.09993 18.2C5.59993 18.9 7.09993 21.5999 6.29993 24.2999Z" fill="#D1BBFF" stroke="#56437E" stroke-width="2" stroke-miterlimit="10"/>
<path d="M9.8999 15.9L8.5999 17.9C6.3999 16.4 5.6999 13.4 7.1999 11.2L8.4999 9.19995C10.6999 10.6 11.2999 13.6 9.8999 15.9Z" fill="#D1BBFF" stroke="#56437E" stroke-width="2" stroke-miterlimit="10"/>
<path d="M5.20001 37.4C3.40001 37.4 1.80001 37.2 1.20001 35.3C0.700005 33.5 1.20001 29 1.20001 29C4.60001 29.7 6.20001 33 5.20001 37.4Z" fill="#D1BBFF" stroke="#56437E" stroke-width="2" stroke-miterlimit="10"/>
<path d="M8.79995 42.8001L10.1 44.9001C7.89995 46.3001 4.89995 45.6001 3.49995 43.2001L2.19995 41.1001C4.39995 39.7001 7.39995 40.5001 8.79995 42.8001Z" fill="#D1BBFF" stroke="#56437E" stroke-width="2" stroke-miterlimit="10"/>
<path d="M14.3 49.8L16.6 51.5C14.8 54.1 11.3 54.8 8.8 52.9L6.5 51.2C8.2 48.6 11.7 48 14.3 49.8Z" fill="#D1BBFF" stroke="#56437E" stroke-width="2" stroke-miterlimit="10"/>
<path d="M25.3 36C23.1 36 20.3 33.2 20.3 31V23C20.3 18.8 24.2 16 27.3 16C27.3 16 32.8 16 34.3 16C37.4 16 40.3 18.8 40.3 23V29V32C40.3 34.2 39.5 36 37.3 36V53H25.3V36Z" fill="#D1BBFF"/>
<path d="M31.3 13C34 13 36.3 10.8 36.3 8V6C36.3 3.2 34 1 31.3 1C28.6 1 26.3 3.2 26.3 6V8C26.3 10.8 28.6 13 31.3 13Z" fill="white" stroke="#56437E" stroke-width="2" stroke-miterlimit="10"/>
<path d="M25.3 53V23" stroke="#56437E" stroke-width="2" stroke-miterlimit="10"/>
<path d="M40.3 23V32C40.3 34.2 39.5 36 37.3 36V53" stroke="#56437E" stroke-width="2" stroke-miterlimit="10"/>
<path d="M31.3 36V53" stroke="#56437E" stroke-width="2" stroke-miterlimit="10"/>
<path d="M40.3 23C40.3 18.8 37.4 16 34.3 16C32.8 16 27.3 16 27.3 16C24.2 16 20.3 18.8 20.3 23V31C20.3 33.2 23.1 36 25.3 36" stroke="#56437E" stroke-width="2" stroke-miterlimit="10"/>
<path d="M27.3 33H15.3V43H27.3V33Z" fill="white" stroke="#56437E" stroke-width="2" stroke-miterlimit="10"/>
<path d="M40.3 54H22.3" stroke="#56437E" stroke-width="2" stroke-miterlimit="10"/>
</g>
<defs>
<clipPath id="clip0">
<rect width="62.5" height="55" fill="white"/>
</clipPath>
</defs>
</svg>
