<svg width="72" height="59" viewBox="0 0 72 59" fill="none" xmlns="http://www.w3.org/2000/svg">
<g clip-path="url(#clip0)">
<path d="M55.5737 44.0183C61.1252 34.4693 57.8847 22.2279 48.3357 16.6763C38.7866 11.1248 26.5452 14.3653 20.9937 23.9143C15.4421 33.4633 18.6826 45.7048 28.2317 51.2563C37.7807 56.8079 50.0221 53.5673 55.5737 44.0183Z" fill="#E9EAEB"/>
<path d="M14.1001 15.0999C8.9001 19.6999 5.6001 26.5999 5.6001 34.1999C5.6001 44.6999 12.5001 54.1999 21.2001 57.9999" stroke="#56437E" stroke-width="2" stroke-miterlimit="10"/>
<path d="M15.8999 14.1999L13.5999 15.3999C12.2999 12.6999 13.3999 9.4999 15.8999 8.0999L18.1999 6.8999C19.4999 9.5999 18.3999 12.8999 15.8999 14.1999Z" fill="#D1BBFF" stroke="#56437E" stroke-width="2" stroke-miterlimit="10"/>
<path d="M6.29993 28.2999L5.59993 30.7C3.09993 30 1.59993 27.2 2.39993 24.6L3.09993 22.2C5.59993 22.9 7.09993 25.5999 6.29993 28.2999Z" fill="#D1BBFF" stroke="#56437E" stroke-width="2" stroke-miterlimit="10"/>
<path d="M9.8999 19.9L8.5999 21.9C6.3999 20.4 5.6999 17.4 7.1999 15.2L8.4999 13.2C10.6999 14.6 11.2999 17.6 9.8999 19.9Z" fill="#D1BBFF" stroke="#56437E" stroke-width="2" stroke-miterlimit="10"/>
<path d="M5.20001 41.4C3.40001 41.4 1.80001 41.2 1.20001 39.3C0.700005 37.5 1.20001 33 1.20001 33C4.60001 33.7 6.20001 37 5.20001 41.4Z" fill="#D1BBFF" stroke="#56437E" stroke-width="2" stroke-miterlimit="10"/>
<path d="M8.79995 46.7999L10.1 48.8999C7.89995 50.2999 4.89995 49.5999 3.49995 47.1999L2.19995 45.0999C4.39995 43.6999 7.39995 44.4999 8.79995 46.7999Z" fill="#D1BBFF" stroke="#56437E" stroke-width="2" stroke-miterlimit="10"/>
<path d="M14.3 53.7998L16.6 55.4998C14.8 58.0998 11.3 58.7998 8.8 56.8998L6.5 55.1998C8.2 52.5998 11.7 51.9998 14.3 53.7998Z" fill="#D1BBFF" stroke="#56437E" stroke-width="2" stroke-miterlimit="10"/>
<path d="M58.3 7.30006V18.1001C62.3 16.6001 66.6001 17.3001 70.4001 20.0001L69.5 18.4001L66.5 13.0001L70.3001 9.20006C66.6001 6.50006 62.3 5.80006 58.3 7.30006Z" fill="#D1BBFF" stroke="#56437E" stroke-width="2" stroke-miterlimit="10" stroke-linejoin="round"/>
<path d="M45.3 4.00006V14.8001C49.4 12.8001 54.3 12.8001 58.3 15.1001V4.20006C54.2 2.00006 49.4 1.90006 45.3 4.00006Z" fill="#D1BBFF" stroke="#56437E" stroke-width="2" stroke-miterlimit="10" stroke-linejoin="round"/>
<path d="M45.3 0V58" stroke="#56437E" stroke-width="2" stroke-miterlimit="10" stroke-linejoin="round"/>
<path d="M28.8 17.8C31.4 17.8 33.3 15.7 33.3 13.1V11.5C33.3 8.90005 31.4 6.80005 28.8 6.80005C26.2 6.80005 24.3 8.90005 24.3 11.5V13C24.3 15.6 26.2 17.8 28.8 17.8Z" fill="white" stroke="#56437E" stroke-width="2" stroke-miterlimit="10"/>
<path d="M22.6964 40.6951L22.5462 40.5H22.3C20.4762 40.5 18.8 38.8239 18.8 37V27C18.8 24.892 19.5612 23.5606 20.814 22.7291C22.1048 21.8724 23.9863 21.5 26.3 21.5H26.3108H26.322H26.3335H26.3455H26.3578H26.3706H26.3838H26.3973H26.4113H26.4256H26.4404H26.4555H26.471H26.4869H26.5032H26.5199H26.5369H26.5543H26.5721H26.5903H26.6089H26.6278H26.6471H26.6668H26.6869H26.7073H26.7281H26.7492H26.7707H26.7926H26.8148H26.8374H26.8603H26.8836H26.9073H26.9313H26.9556H26.9803H27.0054H27.0308H27.0565H27.0826H27.109H27.1358H27.1629H27.1903H27.218H27.2461H27.2746H27.3033H27.3324H27.3618H27.3915H27.4216H27.452H27.4826H27.5137H27.545H27.5766H27.6086H27.6409H27.6734H27.7063H27.7395H27.773H27.8068H27.8409H27.8753H27.91H27.945H27.9803H28.0159H28.0518H28.0879H28.1244H28.1611H28.1982H28.2355H28.2731H28.3109H28.3491H28.3875H28.4262H28.4652H28.5045H28.544H28.5838H28.6239H28.6642H28.7048H28.7457H28.7868H28.8282H28.8698H28.9117H28.9539H28.9963H29.039H29.0819H29.1251H29.1685H29.2121H29.256H29.3002H29.3445H29.3892H29.434H29.4791H29.5245H29.57H29.6158H29.6618H29.7081H29.7546H29.8013H29.8482H29.8953H29.9427H29.9903H30.0381H30.0861H30.1344H30.1828H30.2315H30.2803H30.3294H30.3787H30.4282H30.4779H30.5277H30.5778H30.6281H30.6786H30.7293H30.7801H30.8312H30.8824H30.9339H30.9855H31.0373H31.0893H31.1415H31.1938H31.2464H31.2991H31.352H31.405H31.4583H31.5117H31.5652H31.619H31.6729H31.7269H31.7812H31.8356H31.8901H31.9448H31.9997H32.0547H32.1099H32.1652H32.2207H32.2763H32.332H32.388H32.444H32.5002H32.5566H32.613H32.6696H32.7264H32.7833H32.8403H32.8974H32.9547H33.0121H33.0696H33.1273H33.1851H33.2429H33.301H33.3591H33.4173H33.4757H33.5342H33.5928H33.6515H33.7103H33.7692H33.8282H33.8873H33.9465H34.0059H34.0653H34.1248H34.1844H34.2441H34.3039H34.3638H34.4238H34.4838H34.544H34.6042H34.6645H34.7249H34.7854H34.846H34.9066H34.9673H35.0281H35.0889H35.1499H35.2108H35.2719H35.333H35.3942H35.4554H35.5167H35.5781H35.6395H35.701H35.7625H35.8241H35.8857H35.9474H36.0091H36.0709H36.1327H36.1946H36.2565H36.3184H36.3804H36.4424H36.5045H36.5666H36.6287H36.6908H36.753H36.8152H36.8774H36.9397H37.0019H37.0642H37.1265H37.1888H37.2512H37.3135H37.3759H37.4383H37.5007H37.563H37.6254H37.6878H37.7502H37.8126H37.875H37.9375H37.9998H38.0622H38.1246H38.187H38.2494H38.3117H38.3741H38.4364H38.4987H38.561H38.6233H38.6855H38.7477H38.8099H38.8721H38.9342H38.9964H39.0585H39.1205H39.1825H39.2445H39.3065H39.3684H39.4302H39.492H39.5538H39.6156H39.6772H39.7389H39.8005H39.862H39.9235H39.9849H40.0463H40.1076H40.1689H40.23H40.2912H40.3522H40.4132H40.4742H40.535H40.5958H40.6565H40.7172H40.7777H40.8382H40.8986H40.959H41.0192H41.0794H41.1394H41.1994H41.2593H41.3191H41.3789H41.4385H41.498H41.5575H41.6168H41.676H41.7352H41.7942H41.8531H41.9119H41.9706H42.0292H42.0877H42.1461H42.2044H42.2625H42.3206H42.3785H42.4363H42.4939H42.5515H42.6089H42.6662H42.7233H42.7804H42.8373H42.894H42.9507H43.0072H43.0635H43.1197H43.1758H43.2318H43.2875H43.3432H43.3987H43.454H43.5092H43.5643H43.6191H43.6739H43.7284H43.7829H43.8371H43.8912H43.9451H43.9989H44.0525H44.1059H44.1592H44.2122H44.2652H44.3179H44.3704H44.4228H44.475H44.527H44.5789H44.6305H44.682H44.7333H44.7843H44.8352H44.8859H44.9364H44.9868H45.0369H45.0868H45.1365H45.186H45.2353H45.2844H45.3333H45.382H45.4305H45.4787H45.5268H45.5746H45.6222H45.6697H45.7168H45.7638H45.8105H45.857H45.9033H45.9494H45.9952H46.0408H46.0862H46.1313H46.1762H46.2208H46.2653H46.3094H46.3534H46.3971H46.4405H46.4837H46.5266H46.5693H46.6118H46.654H46.6959H46.7376H46.779H46.8202H46.8611H46.9017H46.9421H46.9822H47.022H47.0616H47.1009H47.1399H47.1787H47.2171H47.2553H47.2933H47.3309H47.3683H47.4053H47.4421H47.4786H47.5148H47.5507H47.5864H47.6217H47.6567H47.6915H47.7259H47.7601H47.7939H47.8274H47.8607H47.8936H47.9262H47.9585H47.9905H48.0222H48.0536H48.0846H48.1154H48.1458H48.1759H48.2057H48.2351H48.2642H48.293H48.3215H48.3497H48.3775H48.4049H48.4321H48.4589H48.4853H48.5115H48.5372H48.5627H48.5878H48.6125H48.6369H48.661H48.6847H48.708H48.731H48.7537H48.7625C48.64 22.3373 48.2211 23.2465 47.5529 23.991C46.7557 24.8793 45.6344 25.5 44.3 25.5H35.3H34.8V26V27V57.5H23.8V42.3V42.1299L23.6964 41.9951L22.6964 40.6951Z" fill="white" stroke="#56437E"/>
<path d="M35.3 58V26H44.3C47.3 26 49.3 23.2 49.3 21C47.7 21 28.1 21 26.3 21C21.6 21 18.3 22.5 18.3 27V37C18.3 39.1 20.2 41 22.3 41" stroke="#56437E" stroke-width="2" stroke-miterlimit="10"/>
<path d="M23.3 27V58" stroke="#56437E" stroke-width="2" stroke-miterlimit="10"/>
<path d="M29.3 40V58" stroke="#56437E" stroke-width="2" stroke-miterlimit="10" stroke-linejoin="round"/>
<path d="M48.3 58H21.3" stroke="#56437E" stroke-width="2" stroke-miterlimit="10"/>
</g>
<defs>
<clipPath id="clip0">
<rect width="71.3" height="59" fill="white"/>
</clipPath>
</defs>
</svg>
