<svg width="65" height="54" viewBox="0 0 65 54" fill="none" xmlns="http://www.w3.org/2000/svg">
<g clip-path="url(#clip0)">
<path d="M49.2904 41.2593C55.7846 31.9855 53.5314 19.2031 44.2576 12.7089C34.9839 6.2147 22.2015 8.46793 15.7073 17.7417C9.21308 27.0154 11.4663 39.7978 20.74 46.292C30.0138 52.7862 42.7962 50.533 49.2904 41.2593Z" fill="#E9EAEB"/>
<path d="M33 42.5H3C2.17614 42.5 1.5 41.8239 1.5 41V9.20711L9.20711 1.5H33C33.8239 1.5 34.5 2.17614 34.5 3V41C34.5 41.8239 33.8239 42.5 33 42.5Z" fill="white" stroke="#56437E"/>
<path d="M2.20711 9.5L9.5 2.20711V9.5H2.20711Z" fill="#D1BBFF" stroke="#56437E"/>
<path d="M3 43H33C34.1 43 35 42.1 35 41V3C35 1.9 34.1 1 33 1H9L1 9V41C1 42.1 1.9 43 3 43Z" stroke="#56437E" stroke-width="2" stroke-miterlimit="10"/>
<path d="M4 10H10V4" stroke="#56437E" stroke-width="2" stroke-miterlimit="10"/>
<path d="M19 17H7" stroke="#56437E" stroke-width="2" stroke-miterlimit="10"/>
<path d="M16 21H7" stroke="#56437E" stroke-width="2" stroke-miterlimit="10"/>
<path d="M13 25H7" stroke="#56437E" stroke-width="2" stroke-miterlimit="10"/>
<path d="M50.3 10.1001C55.4 14.7001 58.7 21.6001 58.7 29.2001C58.7 39.7001 52.6 48.6001 44 52.4001" stroke="#56437E" stroke-width="2" stroke-miterlimit="10"/>
<path d="M48.5999 9.1999L50.8999 10.3999C52.1999 7.6999 51.0999 4.4999 48.5999 3.0999L46.2999 1.8999C44.9999 4.5999 45.9999 7.8999 48.5999 9.1999Z" fill="#D1BBFF" stroke="#56437E" stroke-width="2" stroke-miterlimit="10"/>
<path d="M58 23.2997L58.7 25.6997C61.2 24.9997 62.6 22.1997 61.9 19.5997L61.2 17.1997C58.7 17.8997 57.2 20.5997 58 23.2997Z" fill="#D1BBFF" stroke="#56437E" stroke-width="2" stroke-miterlimit="10"/>
<path d="M54.4 14.8997L55.7 16.8997C57.9 15.3997 58.5 12.3997 57.1 10.1997L55.8 8.19971C53.7 9.59971 53 12.5997 54.4 14.8997Z" fill="#D1BBFF" stroke="#56437E" stroke-width="2" stroke-miterlimit="10"/>
<path d="M59.0999 36.4C60.8999 36.4 62.4999 36.2 62.9999 34.3C63.4999 32.5 62.9999 28 62.9999 28C59.6999 28.7 58.0999 32 59.0999 36.4Z" fill="#D1BBFF" stroke="#56437E" stroke-width="2" stroke-miterlimit="10"/>
<path d="M55.6 41.8001L54.3 44.0001C56.5 45.4001 59.4 44.7001 60.8 42.3001L62.1 40.2001C59.9 38.7001 56.9 39.5001 55.6 41.8001Z" fill="#D1BBFF" stroke="#56437E" stroke-width="2" stroke-miterlimit="10"/>
<path d="M50.1 48.7998L47.8 50.4998C49.5 53.0998 53 53.7998 55.5 51.8998L57.8 50.1998C56.1 47.5998 52.7 46.9998 50.1 48.7998Z" fill="#D1BBFF" stroke="#56437E" stroke-width="2" stroke-miterlimit="10"/>
<path d="M23.7 26.0001V25.093L22.8464 25.9465L20.6 28.193L18.5 26.093V23.9072L24.8536 17.5537L25.2071 17.2001L24.8536 16.8465L22.2306 14.2236C23.8263 12.9158 26.109 12.1001 28.4 12.1001C34.3239 12.1001 39.1 16.8762 39.1 22.8001V32.8985L36.6398 35.4533L36.5 35.5985V35.8001V42.7001V43.2001H37H38.7C39.4048 43.2001 39.9 43.7568 39.9 44.4001V47.0001V47.5001H40.4H41.3C42.0048 47.5001 42.5 48.0568 42.5 48.7001V52.5001H18.5V48.7001C18.5 47.9953 19.0567 47.5001 19.7 47.5001H20.6H21.1V47.0001V44.4001C21.1 43.6953 21.6567 43.2001 22.3 43.2001H24H24.5V42.7001V39.3001V39.093L24.3536 38.9465L21.3071 35.9001L26.9536 30.2537L27.1 30.1072V29.9001V26.5001V26.0001H26.6H23.7Z" fill="#D1BBFF" stroke="#56437E"/>
<path d="M40.4 46.9997V44.3997C40.4 43.3997 39.6 42.6997 38.7 42.6997H32.7" stroke="#56437E" stroke-width="2" stroke-miterlimit="10"/>
<path d="M26.6001 42.6997H22.3001C21.3001 42.6997 20.6001 43.4997 20.6001 44.3997V46.9997" stroke="#56437E" stroke-width="2" stroke-miterlimit="10"/>
<path d="M30.9 46.9995H41.2C42.2 46.9995 42.9 47.7995 42.9 48.6995V52.9995H18V48.6995C18 47.6995 18.8 46.9995 19.7 46.9995H24.9" stroke="#56437E" stroke-width="2" stroke-miterlimit="10"/>
<path d="M29.2 46.9995H27.5" stroke="#56437E" stroke-width="2" stroke-miterlimit="10"/>
<path d="M30.9 42.6997H29.2" stroke="#56437E" stroke-width="2" stroke-miterlimit="10"/>
<path d="M26.6001 26.2998V29.6998L20.6001 35.7998L24.0001 39.1998V42.6998" stroke="#56437E" stroke-width="2" stroke-miterlimit="10"/>
<path d="M25.8 15.8999L18 23.6999V26.2999L20.6 28.8999L23.2 26.2999H28.4C30.3 26.2999 31.8 24.7999 31.8 22.8999" stroke="#56437E" stroke-width="2" stroke-miterlimit="10"/>
<path d="M37 41.8001V35.8001L39.6 33.2001V22.8001C39.6 16.6001 34.6 11.6001 28.4 11.6001C25.8 11.6001 23.2 12.6001 21.5 14.2001L24.1 16.8001" stroke="#56437E" stroke-width="2" stroke-miterlimit="10"/>
<path d="M29.2 15.1001C33 15.1001 36.0999 18.2001 36.0999 22.0001V25.4001" fill="#D1BBFF"/>
<path d="M29.2 15.1001C33 15.1001 36.0999 18.2001 36.0999 22.0001V25.4001" stroke="#56437E" stroke-width="2" stroke-miterlimit="10"/>
</g>
<defs>
<clipPath id="clip0">
<rect width="64.2" height="54" fill="white"/>
</clipPath>
</defs>
</svg>
