<svg width="63" height="54" viewBox="0 0 63 54" fill="none" xmlns="http://www.w3.org/2000/svg">
<g clip-path="url(#clip0)">
<path d="M48.4 9.5C53.6 14.1 56.9 21 56.9 28.6C56.9 39.1 50.8 48 42 51.8" stroke="#56437E" stroke-width="2" stroke-miterlimit="10"/>
<path d="M46.6001 8.60015L49.0001 9.90015C50.3001 7.20015 49.2001 4.00015 46.7001 2.60015L44.4001 1.40015C43.0001 4.00015 44.1001 7.30015 46.6001 8.60015Z" fill="#D1BBFF" stroke="#56437E" stroke-width="2" stroke-miterlimit="10"/>
<path d="M56.2 22.7001L56.9 25.1001C59.4 24.4001 60.9 21.6001 60.1 19.0001L59.4 16.6001C56.9 17.3001 55.4 20.1001 56.2 22.7001Z" fill="#D1BBFF" stroke="#56437E" stroke-width="2" stroke-miterlimit="10"/>
<path d="M52.6001 14.3001L53.9001 16.3001C56.1001 14.8001 56.8001 11.8001 55.3001 9.6001L54.0001 7.6001C51.8001 9.0001 51.1001 12.1001 52.6001 14.3001Z" fill="#D1BBFF" stroke="#56437E" stroke-width="2" stroke-miterlimit="10"/>
<path d="M57.3 35.9C59.1 35.9 60.7 35.7 61.3 33.8C61.8 32 61.3 27.5 61.3 27.5C57.9 28.1 56.3 31.4 57.3 35.9Z" fill="#D1BBFF" stroke="#56437E" stroke-width="2" stroke-miterlimit="10"/>
<path d="M53.6999 41.2998L52.3999 43.3998C54.5999 44.7998 57.5999 44.0998 58.9999 41.6998L60.2999 39.5998C58.0999 38.1998 55.0999 38.8998 53.6999 41.2998Z" fill="#D1BBFF" stroke="#56437E" stroke-width="2" stroke-miterlimit="10"/>
<path d="M48.1999 48.2999L45.8999 49.9999C47.6999 52.5999 51.1999 53.2999 53.6999 51.3999L55.9999 49.6999C54.2999 46.9999 50.7999 46.3999 48.1999 48.2999Z" fill="#D1BBFF" stroke="#56437E" stroke-width="2" stroke-miterlimit="10"/>
<path d="M14.1001 9.5C8.9001 14.1 5.6001 21 5.6001 28.6C5.6001 39.1 11.7001 48 20.5001 51.8" stroke="#56437E" stroke-width="2" stroke-miterlimit="10"/>
<path d="M15.8999 8.60005L13.5999 9.80005C12.2999 7.10005 13.3999 3.90005 15.8999 2.50005L18.1999 1.30005C19.4999 4.00005 18.3999 7.30005 15.8999 8.60005Z" fill="#D1BBFF" stroke="#56437E" stroke-width="2" stroke-miterlimit="10"/>
<path d="M6.29993 22.7001L5.59993 25.1001C3.09993 24.4001 1.59993 21.6001 2.39993 19.0001L3.09993 16.6001C5.59993 17.3001 7.09993 20.1001 6.29993 22.7001Z" fill="#D1BBFF" stroke="#56437E" stroke-width="2" stroke-miterlimit="10"/>
<path d="M9.8999 14.3001L8.5999 16.3001C6.3999 14.8001 5.6999 11.8001 7.1999 9.6001L8.4999 7.6001C10.6999 9.0001 11.2999 12.1001 9.8999 14.3001Z" fill="#D1BBFF" stroke="#56437E" stroke-width="2" stroke-miterlimit="10"/>
<path d="M5.20001 35.9C3.40001 35.9 1.80001 35.7 1.20001 33.8C0.700005 32 1.20001 27.5 1.20001 27.5C4.60001 28.1 6.20001 31.4 5.20001 35.9Z" fill="#D1BBFF" stroke="#56437E" stroke-width="2" stroke-miterlimit="10"/>
<path d="M8.79995 41.2998L10.1 43.3998C7.89995 44.7998 4.89995 44.0998 3.49995 41.6998L2.19995 39.5998C4.39995 38.1998 7.39995 38.8998 8.79995 41.2998Z" fill="#D1BBFF" stroke="#56437E" stroke-width="2" stroke-miterlimit="10"/>
<path d="M14.3 48.2999L16.6 49.9999C14.8 52.5999 11.3 53.2999 8.8 51.3999L6.5 49.6999C8.2 46.9999 11.7 46.3999 14.3 48.2999Z" fill="#D1BBFF" stroke="#56437E" stroke-width="2" stroke-miterlimit="10"/>
<path d="M43.3001 32.3999L33.3001 22.3999H27.3001L21.3001 16.3999L13.1001 24.8999L15.8001 27.5999C15.7001 28.4999 15.5001 29.7999 16.4001 30.5999L26.0001 41.1999L27.3001 42.4999C29.2001 44.3999 31.8001 43.1999 32.3001 41.4999C34.1001 42.3999 36.1001 41.1999 36.3001 39.4999C38.4001 40.1999 40.8001 38.9999 41.3001 37.4999C43.7001 37.2999 44.9001 34.6999 43.3001 32.3999Z" fill="white" stroke="#56437E" stroke-width="2" stroke-miterlimit="10"/>
<path d="M43.2 17.6003C43.2 17.6003 40.2 19.3003 39.6 19.4003C38.7 19.5003 33.5 17.8003 32.7 17.6003C31.9 17.4003 23.7 20.0003 23.1 21.0003C22.5 22.0003 25.1 24.7003 27.4 24.4003C29.6 24.1003 33 23.0003 34 24.0003C34 24.0003 40 29.3003 42.2 31.3003C44.1 33.0003 47.6 28.1003 48.4 27.2003L50.4 24.9003L43.2 17.6003Z" fill="#E9EAEB" stroke="#56437E" stroke-width="2" stroke-miterlimit="10"/>
<path d="M24.6999 37.1999C24.5999 36.0999 23.4999 34.9999 22.2999 34.6999C21.9999 33.7999 21.0999 32.3999 19.4999 32.3999C19.1999 31.1999 17.0999 29.6999 16.0999 30.6999L14.8999 31.8999C13.8999 32.8999 14.4999 34.7999 15.9999 35.0999C16.0999 35.8999 16.6999 37.2999 18.6999 37.6999C19.0999 38.8999 19.7999 39.7999 21.3999 40.0999C21.9999 41.6999 23.7999 43.0999 25.2999 41.5999L26.1999 40.6999C26.9999 39.4999 26.0999 37.6999 24.6999 37.1999Z" fill="#E9EAEB" stroke="#56437E" stroke-width="2" stroke-miterlimit="10"/>
<path d="M32.3 41.3999L29.3 38.3999" stroke="#56437E" stroke-width="2" stroke-miterlimit="10"/>
<path d="M36.3 39.3999L32.3 35.3999" stroke="#56437E" stroke-width="2" stroke-miterlimit="10"/>
<path d="M41.3 37.3999L36.3 32.3999" stroke="#56437E" stroke-width="2" stroke-miterlimit="10"/>
<path d="M44.2 13.4999C40.6 10.2999 35.9 8.3999 30.7 8.3999C25.5 8.3999 20.8 10.2999 17.2 13.4999" stroke="#56437E" stroke-width="2" stroke-miterlimit="10"/>
<path d="M20.1001 46.3999C23.2001 48.2999 26.8001 49.3999 30.7001 49.3999C34.6001 49.3999 38.2001 48.2999 41.3001 46.3999" stroke="#BCC0C4" stroke-width="2" stroke-miterlimit="10"/>
</g>
<defs>
<clipPath id="clip0">
<rect width="62.5" height="53.4" fill="white"/>
</clipPath>
</defs>
</svg>
