<svg width="40" height="40" viewBox="0 0 40 40" fill="none" xmlns="http://www.w3.org/2000/svg">
<path d="M20 40C31.0457 40 40 31.0457 40 20C40 8.9543 31.0457 0 20 0C8.9543 0 0 8.9543 0 20C0 31.0457 8.9543 40 20 40Z" fill="white"/>
<path d="M20 40C8.95312 40 0 31.0469 0 20C0 8.95312 8.95312 0 20 0C31.0469 0 40 8.95312 40 20C40 31.0469 31.0469 40 20 40Z" fill="#9681BA"/>
<path d="M20 10.0781C14.5234 10.0781 10.0781 14.5234 10.0781 20C10.0781 25.4766 14.5234 29.9219 20 29.9219C25.4766 29.9219 29.9219 25.4766 29.9219 20C29.9219 14.5234 25.4766 10.0781 20 10.0781ZM23.7266 23.9922C23.4766 24.2422 23.0625 24.25 22.8125 23.9922L19.6953 20.875C19.5625 20.75 19.4922 20.5781 19.5 20.3984C19.5 20.3828 19.5 20.3672 19.5 20.3516V13.6172C19.4688 13.2578 19.7344 12.9375 20.0938 12.9062C20.4531 12.875 20.7734 13.1406 20.8047 13.5C20.8047 13.5391 20.8047 13.5781 20.8047 13.6172V20.1328L23.7266 23.0547C23.9844 23.3047 23.9922 23.7188 23.7422 23.9766C23.7344 23.9844 23.7344 23.9844 23.7266 23.9922Z" fill="white"/>
<path opacity="0.1" d="M34.1406 5.85938C41.9531 13.6719 41.9531 26.3281 34.1406 34.1406C26.3281 41.9531 13.6719 41.9531 5.85938 34.1406" fill="black"/>
</svg>
