<svg width="40" height="40" viewBox="0 0 40 40" fill="none" xmlns="http://www.w3.org/2000/svg">
<path d="M20 40C31.0457 40 40 31.0457 40 20C40 8.9543 31.0457 0 20 0C8.9543 0 0 8.9543 0 20C0 31.0457 8.9543 40 20 40Z" fill="white"/>
<path d="M20 40C8.95312 40 0 31.0469 0 20C0 8.95312 8.95312 0 20 0C31.0469 0 40 8.95312 40 20C40 31.0469 31.0469 40 20 40Z" fill="#9681BA"/>
<path d="M29.7 24.2C29.7 25.4 28.8 26.3 27.6 26.3C26.4 26.3 25.5 25.4 25.5 24.2C25.5 23 26.4 22.1 27.6 22.1C28.8 22.1 29.7 23.1 29.7 24.2Z" fill="white"/>
<path d="M16.2 24.2C16.2 25.4 15.3 26.3 14.1 26.3C12.9 26.3 12 25.4 12 24.2C12 23 12.9 22.1 14.1 22.1C15.3 22.1 16.2 23.1 16.2 24.2Z" fill="white"/>
<path d="M30.8004 18.4H30.3004L28.5004 15.2C28.3004 14.9 28.0004 14.7 27.6004 14.7C26.7004 14.7 23.4004 14.7 23.4004 14.7C23.4004 14.7 23.4004 23.2 23.4004 24.2H24.6004C24.7004 22.6 26.0004 21.3 27.6004 21.3C29.2004 21.3 30.6004 22.6 30.6004 24.2H30.8004C31.4004 24.2 31.9004 23.7 31.9004 23.1V19.5C31.8004 18.8 31.4004 18.4 30.8004 18.4ZM28.3004 19.5H24.4004V15.9H26.8004C27.1004 15.9 27.3004 16.1 27.5004 16.3L28.7004 18.8C29.0004 19.1 28.7004 19.5 28.3004 19.5Z" fill="white"/>
<path d="M8.7002 10.9V24.3H11.1002C11.2002 22.7 12.5002 21.4 14.1002 21.4C15.7002 21.4 17.1002 22.7 17.1002 24.3H23.5002V10.9H8.7002Z" fill="white"/>
<path opacity="0.1" d="M34.1406 5.85938C41.9531 13.6719 41.9531 26.3281 34.1406 34.1406C26.3281 41.9531 13.6719 41.9531 5.85938 34.1406" fill="black"/>
</svg>
