<svg width="40" height="40" viewBox="0 0 40 40" fill="none" xmlns="http://www.w3.org/2000/svg">
<path d="M20 40C31.0457 40 40 31.0457 40 20C40 8.9543 31.0457 0 20 0C8.9543 0 0 8.9543 0 20C0 31.0457 8.9543 40 20 40Z" fill="white"/>
<path d="M20 40C8.95312 40 0 31.0469 0 20C0 8.95312 8.95312 0 20 0C31.0469 0 40 8.95312 40 20C40 31.0469 31.0469 40 20 40Z" fill="#9681BA"/>
<path d="M20 21.5879L29.3801 13.3333H10.6199L20 21.5879ZM17.4659 20.6746L20 22.785L22.4932 20.6746L29.3801 26.6666H10.6199L17.4659 20.6746ZM10 26.037V13.9699L16.8733 20.0034L10 26.037ZM30 26.037V13.9699L23.1267 20.0034L30 26.037Z" fill="white"/>
<path opacity="0.1" d="M34.1406 5.85938C41.9531 13.6719 41.9531 26.3281 34.1406 34.1406C26.3281 41.9531 13.6719 41.9531 5.85938 34.1406" fill="black"/>
</svg>
