<svg width="40" height="40" viewBox="0 0 40 40" fill="none" xmlns="http://www.w3.org/2000/svg">
<path d="M20 40C31.0457 40 40 31.0457 40 20C40 8.9543 31.0457 0 20 0C8.9543 0 0 8.9543 0 20C0 31.0457 8.9543 40 20 40Z" fill="white"/>
<path d="M20 40C8.95312 40 0 31.0469 0 20C0 8.95312 8.95312 0 20 0C31.0469 0 40 8.95312 40 20C40 31.0469 31.0469 40 20 40Z" fill="#9681BA"/>
<path d="M19.9219 9.89062C15.6016 9.89062 12.1016 13.3906 12.1016 17.7109C12.1016 24.3594 19.9219 30.1172 19.9219 30.1172C19.9219 30.1172 27.7422 24.3594 27.7422 17.7109C27.7422 13.3906 24.2422 9.89062 19.9219 9.89062ZM19.9219 21.0078C18.0703 21.0078 16.5781 19.5078 16.5781 17.6641C16.5781 15.8125 18.0781 14.3203 19.9219 14.3203C21.7656 14.3203 23.2656 15.8203 23.2656 17.6641C23.2656 19.5078 21.7734 21.0078 19.9219 21.0078Z" fill="white"/>
<path opacity="0.1" d="M34.1406 5.85938C41.9531 13.6719 41.9531 26.3281 34.1406 34.1406C26.3281 41.9531 13.6719 41.9531 5.85938 34.1406" fill="black"/>
</svg>
