<svg width="40" height="40" viewBox="0 0 40 40" fill="none" xmlns="http://www.w3.org/2000/svg">
<path d="M20 40C31.0457 40 40 31.0457 40 20C40 8.9543 31.0457 0 20 0C8.9543 0 0 8.9543 0 20C0 31.0457 8.9543 40 20 40Z" fill="white"/>
<path d="M20 40C8.95312 40 0 31.0469 0 20C0 8.95312 8.95312 0 20 0C31.0469 0 40 8.95312 40 20C40 31.0469 31.0469 40 20 40Z" fill="#9681BA"/>
<path fill-rule="evenodd" clip-rule="evenodd" d="M29.3 16.2V27.8H11.5V16.2H29.3ZM30.8 15.4V10H10V15.4H30.8ZM18.5 20.1C17.6 20.1 17 20.8 17 21.6C17 22.5 17.7 23.1 18.5 23.1H22.4C23.3 23.1 23.9 22.4 23.9 21.6C23.9 20.7 23.2 20.1 22.4 20.1H18.5Z" fill="white"/>
<path opacity="0.1" d="M34.1406 5.85938C41.9531 13.6719 41.9531 26.3281 34.1406 34.1406C26.3281 41.9531 13.6719 41.9531 5.85938 34.1406" fill="black"/>
</svg>
