<svg width="40" height="40" viewBox="0 0 40 40" fill="none" xmlns="http://www.w3.org/2000/svg">
<path d="M20 40C31.0457 40 40 31.0457 40 20C40 8.9543 31.0457 0 20 0C8.9543 0 0 8.9543 0 20C0 31.0457 8.9543 40 20 40Z" fill="white"/>
<path d="M20 40C8.95312 40 0 31.0469 0 20C0 8.95312 8.95312 0 20 0C31.0469 0 40 8.95312 40 20C40 31.0469 31.0469 40 20 40ZM19.2969 8.82812C18.4141 8.82812 18.5078 10.0937 19.3906 10.1094C22.3047 10.1562 28.3906 12.6719 28.5234 19.7812C28.5391 20.7031 29.7109 20.7969 29.7109 19.6875C29.7109 11.5625 22.5781 8.82812 19.2969 8.82812ZM25.9688 18.8672C25.9688 19.5156 27.1562 19.5156 27.1562 18.9609C27.1562 13.7422 22.9375 11.4766 20.2109 11.4766C19.2422 11.4766 19.7031 12.7578 20.1172 12.7578C24.7891 12.75 25.9688 17.6719 25.9688 18.8672ZM20.8516 15.3125C22.1484 15.3125 23.4062 16.5312 23.4062 17.8672C23.4062 18.4688 24.5 18.6484 24.5 17.9609C24.5 15.6484 22.875 14.125 21.0312 14.125C20.1094 14.125 20.25 15.3125 20.8516 15.3125ZM29.3516 25.8984C27.3125 24.5703 24.8594 22.1953 23.9609 22.3359C22.9453 22.5 22.7812 24.5078 21.4922 24.7109C19.2578 25.0625 13.9375 20.5547 14.3672 17.5938C14.5625 16.2578 17.1016 15.8594 16.7422 14.8594C16.3594 13.7891 13.7031 10.4453 13.0859 9.65625C11.8281 8.03125 7.76562 11.1641 8.0625 13.2188C8.27344 14.6562 10.9297 19.9062 14.9141 23.8984C18.8359 27.8281 23.9609 30.3203 25.4219 30.9297C27.3906 31.7344 31.4141 27.2422 29.3516 25.8984Z" fill="#9681BA"/>
<path opacity="0.1" d="M34.1406 5.85938C41.9531 13.6719 41.9531 26.3281 34.1406 34.1406C26.3281 41.9531 13.6719 41.9531 5.85938 34.1406" fill="black"/>
</svg>
