<svg width="100" height="70" viewBox="0 0 100 70" fill="none" xmlns="http://www.w3.org/2000/svg">
    <path fill-rule="evenodd" clip-rule="evenodd"
          d="M96.7736 70C98.8587 64.4718 100 58.4774 100 52.2154C100 24.4822 77.6142 2 50 2C22.3858 2 0 24.4822 0 52.2154C0 58.4774 1.14132 64.4718 3.22644 70H96.7736Z"/>
    <path d="M72.0996 38V69H28.5996V38" stroke="#56437E" stroke-width="2" stroke-miterlimit="10"/>
    <path d="M45.3004 48.1H33.9004V69H45.3004V48.1Z" stroke="#56437E" stroke-width="2" stroke-miterlimit="10"/>
    <path d="M42.5 58.5V61.2" stroke="#56437E" stroke-width="2" stroke-miterlimit="10"/>
    <path d="M66.9004 48.1H50.4004V61.2H66.9004V48.1Z" stroke="#56437E" stroke-width="2" stroke-miterlimit="10"/>
    <path d="M36 33V37" stroke="#505050" stroke-width="2" stroke-miterlimit="10"/>
    <path d="M46 34V37" stroke="#505050" stroke-width="2" stroke-miterlimit="10"/>
    <path d="M56 34V37" stroke="#505050" stroke-width="2" stroke-miterlimit="10"/>
    <path d="M66 34V37" stroke="#505050" stroke-width="2" stroke-miterlimit="10"/>
    <path d="M68 21H33V24L26 30V33H76V30L68 24V21Z" fill="#D1BBFF" stroke="#56437E" stroke-width="2"
          stroke-miterlimit="10"/>
    <path d="M68 17H33V21H68V17Z" stroke="#56437E" stroke-width="2" stroke-miterlimit="10"/>
    <path d="M36 33V30L40 24V21" stroke="#56437E" stroke-width="2" stroke-miterlimit="10"/>
    <path d="M66 33V30L61 24V21" stroke="#56437E" stroke-width="2" stroke-miterlimit="10"/>
    <path d="M46 33V30L48 24V21" stroke="#56437E" stroke-width="2" stroke-miterlimit="10"/>
    <path d="M56 33V30L54 24V21" stroke="#56437E" stroke-width="2" stroke-miterlimit="10"/>
    <path d="M24.2002 69H74.7002" stroke="#56437E" stroke-width="2" stroke-miterlimit="10"/>
    <path d="M76.5 69H81.7" stroke="#56437E" stroke-width="2" stroke-miterlimit="10"/>
    <path d="M19 69H22.5" stroke="#56437E" stroke-width="2" stroke-miterlimit="10"/>
    <path d="M26 37C26 39.8 28.2 42 31 42C33.8 42 36 39.8 36 37C36 39.8 38.2 42 41 42C43.8 42 46 39.8 46 37C46 39.8 48.2 42 51 42C53.8 42 56 39.8 56 37C56 39.8 58 42 60.8 42C63.6 42 66 39.8 66 37C66 39.8 68.5 42 71.3 42C74.1 42 76 39.8 76 37V33H26V37Z"
          fill="#D1BBFF" stroke="#56437E" stroke-width="2" stroke-miterlimit="10"/>
</svg>
