<svg width="100" height="70" viewBox="0 0 100 70" fill="none" xmlns="http://www.w3.org/2000/svg">
    <path fill-rule="evenodd" clip-rule="evenodd"
          d="M96.7736 70C98.8587 64.4718 100 58.4774 100 52.2154C100 24.4822 77.6142 2 50 2C22.3858 2 0 24.4822 0 52.2154C0 58.4774 1.14132 64.4718 3.22644 70H96.7736Z"
          />
    <path d="M34 62H32C30.3 62 29 60.7 29 59V38" stroke="#56437E" stroke-width="2" stroke-miterlimit="10"/>
    <path d="M57 62H44" stroke="#56437E" stroke-width="2" stroke-miterlimit="10"/>
    <path d="M72.1 38V59C72.1 60.7 70.8 62 69.1 62H67" stroke="#56437E" stroke-width="2" stroke-miterlimit="10"/>
    <path d="M68 37H33V51H68V37Z" stroke="#56437E" stroke-width="2" stroke-miterlimit="10"/>
    <path d="M26 37C26 39.8 28.2 42 31 42C33.8 42 36 39.8 36 37C36 39.8 38.2 42 41 42C43.8 42 46 39.8 46 37C46 39.8 48.2 42 51 42C53.8 42 56 39.8 56 37C56 39.8 58 42 60.8 42C63.6 42 66 39.8 66 37C66 39.8 68.5 42 71.3 42C74.1 42 76 39.8 76 37V33H26V37Z"
          fill="#D1BBFF" stroke="#56437E" stroke-width="2" stroke-miterlimit="10"/>
    <path d="M68 21H33V24L26 30V33H76V30L68 24V21Z" fill="#D1BBFF" stroke="#56437E" stroke-width="2"
          stroke-miterlimit="10"/>
    <path d="M68 17H33V21H68V17Z" stroke="#56437E" stroke-width="2" stroke-miterlimit="10"/>
    <path d="M36 33V30L40 24V21" stroke="#56437E" stroke-width="2" stroke-miterlimit="10"/>
    <path d="M66 33V30L61 24V21" stroke="#56437E" stroke-width="2" stroke-miterlimit="10"/>
    <path d="M46 33V30L48 24V21" stroke="#56437E" stroke-width="2" stroke-miterlimit="10"/>
    <path d="M56 33V30L54 24V21" stroke="#56437E" stroke-width="2" stroke-miterlimit="10"/>
    <path d="M76 69H81" stroke="#56437E" stroke-width="2" stroke-miterlimit="10"/>
    <path d="M24 69H74" stroke="#56437E" stroke-width="2" stroke-miterlimit="10"/>
    <path d="M19 69H22" stroke="#56437E" stroke-width="2" stroke-miterlimit="10"/>
    <path d="M67 62C67 64.8 64.8 67 62 67C59.2 67 57 64.8 57 62C57 59.2 59.2 57 62 57C64.8 57 67 59.2 67 62Z"
          stroke="#56437E" stroke-width="2" stroke-miterlimit="10"/>
    <path d="M44 62C44 64.8 41.8 67 39 67C36.2 67 34 64.8 34 62C34 59.2 36.2 57 39 57C41.8 57 44 59.2 44 62Z"
          stroke="#56437E" stroke-width="2" stroke-miterlimit="10"/>
</svg>
