<svg width="100" height="68" viewBox="0 0 100 68" fill="none" xmlns="http://www.w3.org/2000/svg">
    <path fill-rule="evenodd" clip-rule="evenodd"
          d="M96.77 67.6796C99.6306 60.112 100.612 51.9633 99.6305 43.9328C98.6488 35.9024 95.7332 28.2301 91.1338 21.5745C86.5344 14.9188 80.3887 9.47867 73.2242 5.7209C66.0596 1.96313 58.0902 0 50 0C41.9098 0 33.9404 1.96313 26.7758 5.7209C19.6113 9.47867 13.4656 14.9188 8.86621 21.5745C4.26684 28.2301 1.35118 35.9024 0.369482 43.9328C-0.612213 51.9633 0.36938 60.112 3.23001 67.6796H96.77Z"
          />
    <path d="M75.3 48.6796H24V54.2896H75.3V48.6796Z" fill="#D1BBFF"/>
    <path d="M56.0098 38.8296L45.2198 39.0196L43.0498 30.6096H57.9998L56.0098 38.8296Z" fill="#D1BBFF"/>
    <path d="M27 19.6796C26.2044 19.6796 25.4413 19.9956 24.8787 20.5582C24.3161 21.1209 24 21.8839 24 22.6796V51.6796C24 52.4752 24.3161 53.2383 24.8787 53.8009C25.4413 54.3635 26.2044 54.6796 27 54.6796H73C73.7956 54.6796 74.5587 54.3635 75.1213 53.8009C75.6839 53.2383 76 52.4752 76 51.6796V22.6796C76 21.8839 75.6839 21.1209 75.1213 20.5582C74.5587 19.9956 73.7956 19.6796 73 19.6796H60"
          stroke="#56437E" stroke-width="2" stroke-miterlimit="10"/>
    <path d="M39 63.6796L41 61.6796H60L62 63.6796" stroke="#56437E" stroke-width="2" stroke-miterlimit="10"/>
    <path d="M44 59.6796V54.6796H57V59.6796" stroke="#56437E" stroke-width="2" stroke-miterlimit="10"/>
    <path d="M24 48.6796H76" stroke="#56437E" stroke-width="2" stroke-miterlimit="10"/>
    <path d="M26.9004 19.6796H60.0004" stroke="#56437E" stroke-width="2" stroke-miterlimit="10"/>
    <path d="M45.9099 44.3996C46.0823 44.4016 46.2515 44.3523 46.3959 44.2579C46.5403 44.1635 46.6534 44.0283 46.7207 43.8695C46.7881 43.7107 46.8068 43.5355 46.7743 43.3661C46.7419 43.1967 46.6599 43.0407 46.5386 42.9181C46.4173 42.7954 46.2623 42.7115 46.0933 42.6771C45.9243 42.6427 45.7488 42.6594 45.5893 42.7249C45.4297 42.7905 45.2933 42.902 45.1972 43.0452C45.1012 43.1885 45.0499 43.3571 45.0499 43.5296C45.0485 43.6434 45.0698 43.7563 45.1124 43.8618C45.1551 43.9673 45.2182 44.0633 45.2982 44.1442C45.3782 44.2251 45.4734 44.2894 45.5784 44.3332C45.6834 44.377 45.7961 44.3996 45.9099 44.3996Z"
          stroke="#56437E" stroke-width="2" stroke-miterlimit="10"/>
    <path d="M55.4099 44.3996C55.5823 44.4016 55.7515 44.3523 55.8959 44.2579C56.0403 44.1635 56.1534 44.0283 56.2207 43.8695C56.2881 43.7107 56.3068 43.5355 56.2743 43.3661C56.2419 43.1967 56.1599 43.0407 56.0386 42.9181C55.9173 42.7954 55.7623 42.7115 55.5933 42.6771C55.4243 42.6427 55.2488 42.6594 55.0893 42.7249C54.9297 42.7905 54.7933 42.902 54.6972 43.0452C54.6012 43.1885 54.5499 43.3571 54.5499 43.5296C54.5485 43.6434 54.5698 43.7563 54.6124 43.8618C54.6551 43.9673 54.7182 44.0633 54.7982 44.1442C54.8782 44.2251 54.9734 44.2894 55.0784 44.3332C55.1834 44.377 55.2961 44.3996 55.4099 44.3996Z"
          stroke="#56437E" stroke-width="2" stroke-miterlimit="10"/>
    <path d="M39 26.2595H42.45L44.77 37.8195C44.8478 38.2182 45.0642 38.5764 45.3808 38.8309C45.6975 39.0853 46.0939 39.2194 46.5 39.2095H54.89C55.2935 39.2195 55.6873 39.0847 56 38.8295C56.3128 38.5767 56.5283 38.2233 56.61 37.8295L58 30.5795H43.32"
          stroke="#56437E" stroke-width="2" stroke-miterlimit="10"/>
    <path d="M76.6201 66.6796H81.6201" stroke="#56437E" stroke-width="2" stroke-miterlimit="10"/>
    <path d="M24.6201 66.6796H74.6201" stroke="#56437E" stroke-width="2" stroke-miterlimit="10"/>
    <path d="M19.6201 66.6796H22.6201" stroke="#56437E" stroke-width="2" stroke-miterlimit="10"/>
</svg>
