<svg width="40" height="40" viewBox="0 0 40 40" fill="none" xmlns="http://www.w3.org/2000/svg">
<path d="M20 40C31.0457 40 40 31.0457 40 20C40 8.9543 31.0457 0 20 0C8.9543 0 0 8.9543 0 20C0 31.0457 8.9543 40 20 40Z" fill="#E6E6E6"/>
<path d="M14 30C15.1046 30 16 29.1046 16 28C16 26.8954 15.1046 26 14 26C12.8954 26 12 26.8954 12 28C12 29.1046 12.8954 30 14 30Z" fill="#5A4377"/>
<path d="M23 30C24.1046 30 25 29.1046 25 28C25 26.8954 24.1046 26 23 26C21.8954 26 21 26.8954 21 28C21 29.1046 21.8954 30 23 30Z" fill="#5A4377"/>
<path d="M26.0003 16H10.2003C9.60031 16 9.10031 16.5 9.20031 17.1L10.8003 23.3C10.9003 23.7 11.3003 24 11.8003 24H24.0003C24.6003 24 25.0003 23.6 25.0003 23.1L26.0003 16Z" stroke="#5A4377" stroke-width="2" stroke-miterlimit="10"/>
<path d="M26 16L26.5 13.4C26.8 12.6 27.5 12 28.4 12H31" stroke="#5A4377" stroke-width="2" stroke-miterlimit="10"/>
</svg>
