<svg width="40" height="40" viewBox="0 0 40 40" fill="none" xmlns="http://www.w3.org/2000/svg">
<path d="M20 40C31.0457 40 40 31.0457 40 20C40 8.9543 31.0457 0 20 0C8.9543 0 0 8.9543 0 20C0 31.0457 8.9543 40 20 40Z" fill="#E6E6E6"/>
<path d="M10.4 18H29.6C30.3 18 30.8 18.8 30.5 19.6L28.2 28.2C28.1 28.7 27.6999 29 27.2999 29H12.7C12.3 29 11.9 28.7 11.8 28.2L9.49995 19.6C9.19995 18.8 9.69995 18 10.4 18Z" stroke="#5A4377" stroke-width="2" stroke-miterlimit="10"/>
<path d="M23 16V12C23 10.3 21.7 9 20 9C18.3 9 17 10.3 17 12V16" stroke="#5A4377" stroke-width="2" stroke-miterlimit="10"/>
</svg>
