<svg width="40" height="40" viewBox="0 0 40 40" fill="none" xmlns="http://www.w3.org/2000/svg">
<path d="M20 40C31.0457 40 40 31.0457 40 20C40 8.9543 31.0457 0 20 0C8.9543 0 0 8.9543 0 20C0 31.0457 8.9543 40 20 40Z" fill="#E6E6E6"/>
<path d="M14.8997 14H25.0997C25.5997 14 25.9997 14.4 26.0997 14.9L27.7997 27.9C27.8997 28.5 27.3997 29 26.7997 29H13.0997C12.4997 29 11.9997 28.5 12.0997 27.9L13.7997 14.9C13.9997 14.4 14.3997 14 14.8997 14Z" stroke="#5A4377" stroke-width="2" stroke-miterlimit="10"/>
<path d="M23 12C23 10.3 21.7 9 20 9C18.3 9 17 10.3 17 12" stroke="#5A4377" stroke-width="2" stroke-miterlimit="10"/>
</svg>
