<?xml version="1.0" encoding="utf-8"?>
<svg xmlns="http://www.w3.org/2000/svg">

    <symbol viewBox="0 0 100 70" id="1">
        <path fill-rule="evenodd" clip-rule="evenodd"
              d="M96.7736 70C98.8587 64.4718 100 58.4774 100 52.2154C100 24.4822 77.6142 2 50 2C22.3858 2 0 24.4822 0 52.2154C0 58.4774 1.14132 64.4718 3.22644 70H96.7736Z"/>
        <path d="M72.0996 38V69H28.5996V38" stroke="#56437E" stroke-width="2" stroke-miterlimit="10"/>
        <path d="M45.3004 48.1H33.9004V69H45.3004V48.1Z" stroke="#56437E" stroke-width="2" stroke-miterlimit="10"/>
        <path d="M42.5 58.5V61.2" stroke="#56437E" stroke-width="2" stroke-miterlimit="10"/>
        <path d="M66.9004 48.1H50.4004V61.2H66.9004V48.1Z" stroke="#56437E" stroke-width="2" stroke-miterlimit="10"/>
        <path d="M36 33V37" stroke="#505050" stroke-width="2" stroke-miterlimit="10"/>
        <path d="M46 34V37" stroke="#505050" stroke-width="2" stroke-miterlimit="10"/>
        <path d="M56 34V37" stroke="#505050" stroke-width="2" stroke-miterlimit="10"/>
        <path d="M66 34V37" stroke="#505050" stroke-width="2" stroke-miterlimit="10"/>
        <path d="M68 21H33V24L26 30V33H76V30L68 24V21Z" fill="#D1BBFF" stroke="#56437E" stroke-width="2"
              stroke-miterlimit="10"/>
        <path d="M68 17H33V21H68V17Z" stroke="#56437E" stroke-width="2" stroke-miterlimit="10"/>
        <path d="M36 33V30L40 24V21" stroke="#56437E" stroke-width="2" stroke-miterlimit="10"/>
        <path d="M66 33V30L61 24V21" stroke="#56437E" stroke-width="2" stroke-miterlimit="10"/>
        <path d="M46 33V30L48 24V21" stroke="#56437E" stroke-width="2" stroke-miterlimit="10"/>
        <path d="M56 33V30L54 24V21" stroke="#56437E" stroke-width="2" stroke-miterlimit="10"/>
        <path d="M24.2002 69H74.7002" stroke="#56437E" stroke-width="2" stroke-miterlimit="10"/>
        <path d="M76.5 69H81.7" stroke="#56437E" stroke-width="2" stroke-miterlimit="10"/>
        <path d="M19 69H22.5" stroke="#56437E" stroke-width="2" stroke-miterlimit="10"/>
        <path d="M26 37C26 39.8 28.2 42 31 42C33.8 42 36 39.8 36 37C36 39.8 38.2 42 41 42C43.8 42 46 39.8 46 37C46 39.8 48.2 42 51 42C53.8 42 56 39.8 56 37C56 39.8 58 42 60.8 42C63.6 42 66 39.8 66 37C66 39.8 68.5 42 71.3 42C74.1 42 76 39.8 76 37V33H26V37Z"
              fill="#D1BBFF" stroke="#56437E" stroke-width="2" stroke-miterlimit="10"/>
    </symbol>

    <symbol viewBox="0 0 100 70" id="2">
        <path fill-rule="evenodd" clip-rule="evenodd"
              d="M96.7736 70C98.8587 64.4718 100 58.4774 100 52.2154C100 24.4822 77.6142 2 50 2C22.3858 2 0 24.4822 0 52.2154C0 58.4774 1.14132 64.4718 3.22644 70H96.7736Z"
        />
        <path d="M67 69H51L47 32H71L67 69Z" fill="#D1BBFF" stroke="#56437E" stroke-width="2" stroke-miterlimit="10"/>
        <circle cx="59" cy="45" r="8" fill="white" stroke="#56437E" stroke-width="2"/>
        <path d="M76 69H81" stroke="#56437E" stroke-width="2" stroke-miterlimit="10"/>
        <path d="M24 69H74" stroke="#56437E" stroke-width="2" stroke-miterlimit="10"/>
        <path d="M19 69H22" stroke="#56437E" stroke-width="2" stroke-miterlimit="10"/>
        <path d="M56 69H32C30.9 69 30 68.1 30 67V63H58V67C58 68.1 57.1 69 56 69Z" fill="white" stroke="#56437E"
              stroke-width="2" stroke-miterlimit="10"/>
        <path d="M58 63H30C28.9 63 28 62.1 28 61C28 59.9 28.9 59 30 59H58C59.1 59 60 59.9 60 61C60 62.1 59.1 63 58 63Z"
              fill="white" stroke="#56437E" stroke-width="2" stroke-miterlimit="10"/>
        <path d="M58 59H30C28.9 59 28 58.1 28 57C28 55.9 28.9 55 30 55H58C59.1 55 60 55.9 60 57C60 58.1 59.1 59 58 59Z"
              fill="white" stroke="#56437E" stroke-width="2" stroke-miterlimit="10"/>
        <path d="M58 51H30C30 45.5 34.5 41 40 41H48C53.5 41 58 45.5 58 51Z" fill="white" stroke="#56437E" stroke-width="2"
              stroke-miterlimit="10"/>
        <path d="M33.5 55C35.4 55 37 53.2667 37 51H30C30 53.2667 31.6 55 33.5 55Z" fill="white" stroke="#56437E"
              stroke-width="2" stroke-miterlimit="10"/>
        <path d="M40.5 55C42.4 55 44 53.2667 44 51H37C37 53.2667 38.6 55 40.5 55Z" fill="white" stroke="#56437E"
              stroke-width="2" stroke-miterlimit="10"/>
        <path d="M47.5 55C49.4 55 51 53.2667 51 51H44C44 53.2667 45.6 55 47.5 55Z" fill="white" stroke="#56437E"
              stroke-width="2" stroke-miterlimit="10"/>
        <path d="M54.5 55C56.4 55 58 53.2667 58 51H51C51 53.2667 52.6 55 54.5 55Z" fill="white" stroke="#56437E"
              stroke-width="2" stroke-miterlimit="10"/>
        <path d="M32 55L39 62L45 55H32Z" fill="#D1BBFF" stroke="#56437E" stroke-width="2" stroke-miterlimit="10"/>
        <path d="M43 55L49 60L55 55H43Z" fill="#D1BBFF" stroke="#56437E" stroke-width="2" stroke-miterlimit="10"/>
        <path d="M60 29L62 20L68 17" stroke="#56437E" stroke-width="2" stroke-miterlimit="10" stroke-linecap="round"/>
        <rect x="45" y="29" width="28" height="3" stroke="#56437E" stroke-width="2"/>
    </symbol>

    <symbol viewBox="0 0 100 70" id="3">
        <path fill-rule="evenodd" clip-rule="evenodd"
              d="M96.7736 70C98.8587 64.4718 100 58.4774 100 52.2154C100 24.4822 77.6142 2 50 2C22.3858 2 0 24.4822 0 52.2154C0 58.4774 1.14132 64.4718 3.22644 70H96.7736Z"
        />
        <path d="M46 69H32V36.7895C32 34.7053 33.8 33 36 33H42C44.2 33 46 34.7053 46 36.7895V69Z" stroke="#56437E"
              stroke-width="2" stroke-miterlimit="10"/>
        <path d="M36 48V38C36 37.4 36.4 37 37 37H39.9" stroke="#56437E" stroke-width="2" stroke-miterlimit="10"/>
        <path d="M41 18H37V33H41V18Z" stroke="#56437E" stroke-width="2" stroke-miterlimit="10"/>
        <path d="M37 22H41" stroke="#56437E" stroke-width="2" stroke-miterlimit="10"/>
        <path d="M67 69H53V36.7895C53 34.7053 54.8 33 57 33H63C65.2 33 67 34.7053 67 36.7895V69Z" stroke="#56437E"
              stroke-width="2" stroke-miterlimit="10"/>
        <path d="M57 48V38C57 37.4 57.4 37 58 37H60.9" stroke="#56437E" stroke-width="2" stroke-miterlimit="10"/>
        <path d="M62 18H58V33H62V18Z" stroke="#56437E" stroke-width="2" stroke-miterlimit="10"/>
        <path d="M58 22H62" stroke="#56437E" stroke-width="2" stroke-miterlimit="10"/>
        <path d="M57 69H43V33C43 30.8 44.8 29 47 29H53C55.2 29 57 30.8 57 33V69Z" fill="#D1BBFF" stroke="#56437E"
              stroke-width="2" stroke-miterlimit="10"/>
        <path d="M47 44V34C47 33.4 47.4 33 48 33H50.9" fill="#D1BBFF"/>
        <path d="M47 44V34C47 33.4 47.4 33 48 33H50.9" stroke="#56437E" stroke-width="2" stroke-miterlimit="10"/>
        <path d="M52 14H48V29H52V14Z" fill="#D1BBFF" stroke="#56437E" stroke-width="2" stroke-miterlimit="10"/>
        <path d="M48 18H52" stroke="#56437E" stroke-width="2" stroke-miterlimit="10"/>
        <path d="M76 69H81" stroke="#56437E" stroke-width="2" stroke-miterlimit="10"/>
        <path d="M24 69H74" stroke="#56437E" stroke-width="2" stroke-miterlimit="10"/>
        <path d="M19 69H22" stroke="#56437E" stroke-width="2" stroke-miterlimit="10"/>
    </symbol>

    <symbol viewBox="0 0 100 70" id="4">
        <path fill-rule="evenodd" clip-rule="evenodd"
              d="M96.7736 70C98.8587 64.4718 100 58.4774 100 52.2154C100 24.4822 77.6142 2 50 2C22.3858 2 0 24.4822 0 52.2154C0 58.4774 1.14132 64.4718 3.22644 70H96.7736Z"
        />
        <path d="M34 62H32C30.3 62 29 60.7 29 59V38" stroke="#56437E" stroke-width="2" stroke-miterlimit="10"/>
        <path d="M57 62H44" stroke="#56437E" stroke-width="2" stroke-miterlimit="10"/>
        <path d="M72.1 38V59C72.1 60.7 70.8 62 69.1 62H67" stroke="#56437E" stroke-width="2" stroke-miterlimit="10"/>
        <path d="M68 37H33V51H68V37Z" stroke="#56437E" stroke-width="2" stroke-miterlimit="10"/>
        <path d="M26 37C26 39.8 28.2 42 31 42C33.8 42 36 39.8 36 37C36 39.8 38.2 42 41 42C43.8 42 46 39.8 46 37C46 39.8 48.2 42 51 42C53.8 42 56 39.8 56 37C56 39.8 58 42 60.8 42C63.6 42 66 39.8 66 37C66 39.8 68.5 42 71.3 42C74.1 42 76 39.8 76 37V33H26V37Z"
              fill="#D1BBFF" stroke="#56437E" stroke-width="2" stroke-miterlimit="10"/>
        <path d="M68 21H33V24L26 30V33H76V30L68 24V21Z" fill="#D1BBFF" stroke="#56437E" stroke-width="2"
              stroke-miterlimit="10"/>
        <path d="M68 17H33V21H68V17Z" stroke="#56437E" stroke-width="2" stroke-miterlimit="10"/>
        <path d="M36 33V30L40 24V21" stroke="#56437E" stroke-width="2" stroke-miterlimit="10"/>
        <path d="M66 33V30L61 24V21" stroke="#56437E" stroke-width="2" stroke-miterlimit="10"/>
        <path d="M46 33V30L48 24V21" stroke="#56437E" stroke-width="2" stroke-miterlimit="10"/>
        <path d="M56 33V30L54 24V21" stroke="#56437E" stroke-width="2" stroke-miterlimit="10"/>
        <path d="M76 69H81" stroke="#56437E" stroke-width="2" stroke-miterlimit="10"/>
        <path d="M24 69H74" stroke="#56437E" stroke-width="2" stroke-miterlimit="10"/>
        <path d="M19 69H22" stroke="#56437E" stroke-width="2" stroke-miterlimit="10"/>
        <path d="M67 62C67 64.8 64.8 67 62 67C59.2 67 57 64.8 57 62C57 59.2 59.2 57 62 57C64.8 57 67 59.2 67 62Z"
              stroke="#56437E" stroke-width="2" stroke-miterlimit="10"/>
        <path d="M44 62C44 64.8 41.8 67 39 67C36.2 67 34 64.8 34 62C34 59.2 36.2 57 39 57C41.8 57 44 59.2 44 62Z"
              stroke="#56437E" stroke-width="2" stroke-miterlimit="10"/>
    </symbol>

</svg>