<?xml version="1.0" encoding="utf-8"?>
<svg xmlns="http://www.w3.org/2000/svg">

    <symbol viewBox="0 0 100 70" id="1">
        <path fill-rule="evenodd" clip-rule="evenodd"
              d="M96.7736 70C98.8587 64.4718 100 58.4774 100 52.2154C100 24.4822 77.6142 2 50 2C22.3858 2 0 24.4822 0 52.2154C0 58.4774 1.14132 64.4718 3.22644 70H96.7736Z"/>
        <path d="M72.0996 38V69H28.5996V38" stroke="#56437E" stroke-width="2" stroke-miterlimit="10"/>
        <path d="M45.3004 48.1H33.9004V69H45.3004V48.1Z" stroke="#56437E" stroke-width="2" stroke-miterlimit="10"/>
        <path d="M42.5 58.5V61.2" stroke="#56437E" stroke-width="2" stroke-miterlimit="10"/>
        <path d="M66.9004 48.1H50.4004V61.2H66.9004V48.1Z" stroke="#56437E" stroke-width="2" stroke-miterlimit="10"/>
        <path d="M36 33V37" stroke="#505050" stroke-width="2" stroke-miterlimit="10"/>
        <path d="M46 34V37" stroke="#505050" stroke-width="2" stroke-miterlimit="10"/>
        <path d="M56 34V37" stroke="#505050" stroke-width="2" stroke-miterlimit="10"/>
        <path d="M66 34V37" stroke="#505050" stroke-width="2" stroke-miterlimit="10"/>
        <path d="M68 21H33V24L26 30V33H76V30L68 24V21Z" fill="#D1BBFF" stroke="#56437E" stroke-width="2"
              stroke-miterlimit="10"/>
        <path d="M68 17H33V21H68V17Z" stroke="#56437E" stroke-width="2" stroke-miterlimit="10"/>
        <path d="M36 33V30L40 24V21" stroke="#56437E" stroke-width="2" stroke-miterlimit="10"/>
        <path d="M66 33V30L61 24V21" stroke="#56437E" stroke-width="2" stroke-miterlimit="10"/>
        <path d="M46 33V30L48 24V21" stroke="#56437E" stroke-width="2" stroke-miterlimit="10"/>
        <path d="M56 33V30L54 24V21" stroke="#56437E" stroke-width="2" stroke-miterlimit="10"/>
        <path d="M24.2002 69H74.7002" stroke="#56437E" stroke-width="2" stroke-miterlimit="10"/>
        <path d="M76.5 69H81.7" stroke="#56437E" stroke-width="2" stroke-miterlimit="10"/>
        <path d="M19 69H22.5" stroke="#56437E" stroke-width="2" stroke-miterlimit="10"/>
        <path d="M26 37C26 39.8 28.2 42 31 42C33.8 42 36 39.8 36 37C36 39.8 38.2 42 41 42C43.8 42 46 39.8 46 37C46 39.8 48.2 42 51 42C53.8 42 56 39.8 56 37C56 39.8 58 42 60.8 42C63.6 42 66 39.8 66 37C66 39.8 68.5 42 71.3 42C74.1 42 76 39.8 76 37V33H26V37Z"
              fill="#D1BBFF" stroke="#56437E" stroke-width="2" stroke-miterlimit="10"/>
    </symbol>

    <symbol viewBox="0 0 100 70" id="2">
        <path fill-rule="evenodd" clip-rule="evenodd"
              d="M96.7736 70C98.8587 64.4718 100 58.4774 100 52.2154C100 24.4822 77.6142 2 50 2C22.3858 2 0 24.4822 0 52.2154C0 58.4774 1.14132 64.4718 3.22644 70H96.7736Z"
        />
        <path d="M67 69H51L47 32H71L67 69Z" fill="#D1BBFF" stroke="#56437E" stroke-width="2" stroke-miterlimit="10"/>
        <circle cx="59" cy="45" r="8" fill="white" stroke="#56437E" stroke-width="2"/>
        <path d="M76 69H81" stroke="#56437E" stroke-width="2" stroke-miterlimit="10"/>
        <path d="M24 69H74" stroke="#56437E" stroke-width="2" stroke-miterlimit="10"/>
        <path d="M19 69H22" stroke="#56437E" stroke-width="2" stroke-miterlimit="10"/>
        <path d="M56 69H32C30.9 69 30 68.1 30 67V63H58V67C58 68.1 57.1 69 56 69Z" fill="white" stroke="#56437E"
              stroke-width="2" stroke-miterlimit="10"/>
        <path d="M58 63H30C28.9 63 28 62.1 28 61C28 59.9 28.9 59 30 59H58C59.1 59 60 59.9 60 61C60 62.1 59.1 63 58 63Z"
              fill="white" stroke="#56437E" stroke-width="2" stroke-miterlimit="10"/>
        <path d="M58 59H30C28.9 59 28 58.1 28 57C28 55.9 28.9 55 30 55H58C59.1 55 60 55.9 60 57C60 58.1 59.1 59 58 59Z"
              fill="white" stroke="#56437E" stroke-width="2" stroke-miterlimit="10"/>
        <path d="M58 51H30C30 45.5 34.5 41 40 41H48C53.5 41 58 45.5 58 51Z" fill="white" stroke="#56437E" stroke-width="2"
              stroke-miterlimit="10"/>
        <path d="M33.5 55C35.4 55 37 53.2667 37 51H30C30 53.2667 31.6 55 33.5 55Z" fill="white" stroke="#56437E"
              stroke-width="2" stroke-miterlimit="10"/>
        <path d="M40.5 55C42.4 55 44 53.2667 44 51H37C37 53.2667 38.6 55 40.5 55Z" fill="white" stroke="#56437E"
              stroke-width="2" stroke-miterlimit="10"/>
        <path d="M47.5 55C49.4 55 51 53.2667 51 51H44C44 53.2667 45.6 55 47.5 55Z" fill="white" stroke="#56437E"
              stroke-width="2" stroke-miterlimit="10"/>
        <path d="M54.5 55C56.4 55 58 53.2667 58 51H51C51 53.2667 52.6 55 54.5 55Z" fill="white" stroke="#56437E"
              stroke-width="2" stroke-miterlimit="10"/>
        <path d="M32 55L39 62L45 55H32Z" fill="#D1BBFF" stroke="#56437E" stroke-width="2" stroke-miterlimit="10"/>
        <path d="M43 55L49 60L55 55H43Z" fill="#D1BBFF" stroke="#56437E" stroke-width="2" stroke-miterlimit="10"/>
        <path d="M60 29L62 20L68 17" stroke="#56437E" stroke-width="2" stroke-miterlimit="10" stroke-linecap="round"/>
        <rect x="45" y="29" width="28" height="3" stroke="#56437E" stroke-width="2"/>
    </symbol>

    <symbol viewBox="0 0 100 70" id="3">
        <path fill-rule="evenodd" clip-rule="evenodd"
              d="M96.7736 70C98.8587 64.4718 100 58.4774 100 52.2154C100 24.4822 77.6142 2 50 2C22.3858 2 0 24.4822 0 52.2154C0 58.4774 1.14132 64.4718 3.22644 70H96.7736Z"
        />
        <path d="M46 69H32V36.7895C32 34.7053 33.8 33 36 33H42C44.2 33 46 34.7053 46 36.7895V69Z" stroke="#56437E"
              stroke-width="2" stroke-miterlimit="10"/>
        <path d="M36 48V38C36 37.4 36.4 37 37 37H39.9" stroke="#56437E" stroke-width="2" stroke-miterlimit="10"/>
        <path d="M41 18H37V33H41V18Z" stroke="#56437E" stroke-width="2" stroke-miterlimit="10"/>
        <path d="M37 22H41" stroke="#56437E" stroke-width="2" stroke-miterlimit="10"/>
        <path d="M67 69H53V36.7895C53 34.7053 54.8 33 57 33H63C65.2 33 67 34.7053 67 36.7895V69Z" stroke="#56437E"
              stroke-width="2" stroke-miterlimit="10"/>
        <path d="M57 48V38C57 37.4 57.4 37 58 37H60.9" stroke="#56437E" stroke-width="2" stroke-miterlimit="10"/>
        <path d="M62 18H58V33H62V18Z" stroke="#56437E" stroke-width="2" stroke-miterlimit="10"/>
        <path d="M58 22H62" stroke="#56437E" stroke-width="2" stroke-miterlimit="10"/>
        <path d="M57 69H43V33C43 30.8 44.8 29 47 29H53C55.2 29 57 30.8 57 33V69Z" fill="#D1BBFF" stroke="#56437E"
              stroke-width="2" stroke-miterlimit="10"/>
        <path d="M47 44V34C47 33.4 47.4 33 48 33H50.9" fill="#D1BBFF"/>
        <path d="M47 44V34C47 33.4 47.4 33 48 33H50.9" stroke="#56437E" stroke-width="2" stroke-miterlimit="10"/>
        <path d="M52 14H48V29H52V14Z" fill="#D1BBFF" stroke="#56437E" stroke-width="2" stroke-miterlimit="10"/>
        <path d="M48 18H52" stroke="#56437E" stroke-width="2" stroke-miterlimit="10"/>
        <path d="M76 69H81" stroke="#56437E" stroke-width="2" stroke-miterlimit="10"/>
        <path d="M24 69H74" stroke="#56437E" stroke-width="2" stroke-miterlimit="10"/>
        <path d="M19 69H22" stroke="#56437E" stroke-width="2" stroke-miterlimit="10"/>
    </symbol>

    <symbol viewBox="0 0 100 70" id="4">
        <path fill-rule="evenodd" clip-rule="evenodd"
              d="M96.7736 70C98.8587 64.4718 100 58.4774 100 52.2154C100 24.4822 77.6142 2 50 2C22.3858 2 0 24.4822 0 52.2154C0 58.4774 1.14132 64.4718 3.22644 70H96.7736Z"
        />
        <path d="M34 62H32C30.3 62 29 60.7 29 59V38" stroke="#56437E" stroke-width="2" stroke-miterlimit="10"/>
        <path d="M57 62H44" stroke="#56437E" stroke-width="2" stroke-miterlimit="10"/>
        <path d="M72.1 38V59C72.1 60.7 70.8 62 69.1 62H67" stroke="#56437E" stroke-width="2" stroke-miterlimit="10"/>
        <path d="M68 37H33V51H68V37Z" stroke="#56437E" stroke-width="2" stroke-miterlimit="10"/>
        <path d="M26 37C26 39.8 28.2 42 31 42C33.8 42 36 39.8 36 37C36 39.8 38.2 42 41 42C43.8 42 46 39.8 46 37C46 39.8 48.2 42 51 42C53.8 42 56 39.8 56 37C56 39.8 58 42 60.8 42C63.6 42 66 39.8 66 37C66 39.8 68.5 42 71.3 42C74.1 42 76 39.8 76 37V33H26V37Z"
              fill="#D1BBFF" stroke="#56437E" stroke-width="2" stroke-miterlimit="10"/>
        <path d="M68 21H33V24L26 30V33H76V30L68 24V21Z" fill="#D1BBFF" stroke="#56437E" stroke-width="2"
              stroke-miterlimit="10"/>
        <path d="M68 17H33V21H68V17Z" stroke="#56437E" stroke-width="2" stroke-miterlimit="10"/>
        <path d="M36 33V30L40 24V21" stroke="#56437E" stroke-width="2" stroke-miterlimit="10"/>
        <path d="M66 33V30L61 24V21" stroke="#56437E" stroke-width="2" stroke-miterlimit="10"/>
        <path d="M46 33V30L48 24V21" stroke="#56437E" stroke-width="2" stroke-miterlimit="10"/>
        <path d="M56 33V30L54 24V21" stroke="#56437E" stroke-width="2" stroke-miterlimit="10"/>
        <path d="M76 69H81" stroke="#56437E" stroke-width="2" stroke-miterlimit="10"/>
        <path d="M24 69H74" stroke="#56437E" stroke-width="2" stroke-miterlimit="10"/>
        <path d="M19 69H22" stroke="#56437E" stroke-width="2" stroke-miterlimit="10"/>
        <path d="M67 62C67 64.8 64.8 67 62 67C59.2 67 57 64.8 57 62C57 59.2 59.2 57 62 57C64.8 57 67 59.2 67 62Z"
              stroke="#56437E" stroke-width="2" stroke-miterlimit="10"/>
        <path d="M44 62C44 64.8 41.8 67 39 67C36.2 67 34 64.8 34 62C34 59.2 36.2 57 39 57C41.8 57 44 59.2 44 62Z"
              stroke="#56437E" stroke-width="2" stroke-miterlimit="10"/>
    </symbol>

    <symbol viewBox="0 0 100 68" id="5">
        <path fill-rule="evenodd" clip-rule="evenodd"
              d="M96.77 67.6796C99.6306 60.112 100.612 51.9633 99.6305 43.9328C98.6488 35.9024 95.7332 28.2301 91.1338 21.5745C86.5344 14.9188 80.3887 9.47867 73.2242 5.7209C66.0596 1.96313 58.0902 0 50 0C41.9098 0 33.9404 1.96313 26.7758 5.7209C19.6113 9.47867 13.4656 14.9188 8.86621 21.5745C4.26684 28.2301 1.35118 35.9024 0.369482 43.9328C-0.612213 51.9633 0.36938 60.112 3.23001 67.6796H96.77Z"
        />
        <path d="M78.4199 66.6796H83.4199" stroke="#56437E" stroke-width="2" stroke-miterlimit="10"/>
        <path d="M26.4199 66.6796H76.4199" stroke="#56437E" stroke-width="2" stroke-miterlimit="10"/>
        <path d="M21.4199 66.6796H24.4199" stroke="#56437E" stroke-width="2" stroke-miterlimit="10"/>
        <path d="M88.79 62.4596L89.29 59.7896L69.09 49.8996C69.09 49.8996 62.24 46.3396 60.33 52.0096L59.85 53.6796L59.75 56.3796L59 59.2696C59 59.2696 65.59 53.8296 70.1 55.8796L88.79 62.4596Z"
              fill="#D1BBFF" stroke="#56437E" stroke-width="2" stroke-miterlimit="10"/>
        <path d="M19.3 60.4196L44.06 39.1196C44.2767 38.9403 44.5487 38.8414 44.83 38.8396H63.13C63.3892 38.8393 63.6412 38.9243 63.8473 39.0816C64.0533 39.2388 64.2019 39.4595 64.27 39.7096C64.7 41.2596 66.04 44.2296 69.92 43.1496C75.1 41.7096 86.44 43.3596 86.44 43.3596C87.6022 43.5639 88.7944 43.523 89.94 43.2396C90.1148 43.1887 90.299 43.1789 90.4782 43.211C90.6574 43.2431 90.8268 43.3163 90.973 43.4247C91.1192 43.5332 91.2384 43.674 91.3211 43.8362C91.4039 43.9984 91.448 44.1775 91.45 44.3596V47.5096C91.4487 47.6646 91.4168 47.8177 91.3563 47.9604C91.2958 48.1031 91.2078 48.2324 91.0973 48.3411C90.9868 48.4497 90.856 48.5355 90.7123 48.5936C90.5686 48.6517 90.4149 48.6809 90.26 48.6796H88.26C85.79 48.6796 83.31 48.6796 80.84 48.7896C77.64 48.8896 74.45 49.0796 71.26 49.4096C69.8689 49.498 68.4979 49.7877 67.19 50.2696C65.6157 50.9846 64.307 52.1779 63.45 53.6796C61.95 56.0096 61.9 58.6196 61.91 61.2896C61.91 61.6026 61.7856 61.9027 61.5643 62.124C61.343 62.3453 61.0429 62.4696 60.73 62.4696H20.1C19.8686 62.4687 19.6428 62.3992 19.4509 62.27C19.259 62.1407 19.1098 61.9575 19.022 61.7435C18.9343 61.5294 18.9119 61.2942 18.9578 61.0674C19.0038 60.8407 19.1158 60.6326 19.28 60.4696L19.3 60.4196Z"
              fill="white" stroke="#56437E" stroke-width="2" stroke-miterlimit="10"/>
        <path d="M42.4198 55.0896C51.7148 55.0896 59.2498 47.5545 59.2498 38.2596C59.2498 28.9646 51.7148 21.4296 42.4198 21.4296C33.1249 21.4296 25.5898 28.9646 25.5898 38.2596C25.5898 47.5545 33.1249 55.0896 42.4198 55.0896Z"
              fill="#D1BBFF" stroke="#56437E" stroke-width="2" stroke-miterlimit="10"/>
        <path d="M42.4197 46.9995C47.2467 46.9995 51.1597 43.0865 51.1597 38.2595C51.1597 33.4326 47.2467 29.5195 42.4197 29.5195C37.5927 29.5195 33.6797 33.4326 33.6797 38.2595C33.6797 43.0865 37.5927 46.9995 42.4197 46.9995Z"
              fill="white" stroke="#56437E" stroke-width="2" stroke-miterlimit="10"/>
        <path d="M41.9925 41.9111L39.2168 38.7191L19.8388 55.5701L22.6145 58.762L41.9925 41.9111Z" fill="white"
              stroke="#56437E" stroke-width="2" stroke-miterlimit="10"/>
        <path d="M59.2197 38.2623L58.6934 34.3071L44.9545 36.1354L45.4808 40.0905L59.2197 38.2623Z" fill="white"
              stroke="#56437E" stroke-width="2" stroke-miterlimit="10"/>
        <path d="M49.1549 53.3822L52.9033 51.0024L44.5153 37.7902L40.7669 40.1699L49.1549 53.3822Z" fill="white"
              stroke="#56437E" stroke-width="2" stroke-miterlimit="10"/>
        <path d="M42.4205 42.9496C45.0107 42.9496 47.1105 40.8498 47.1105 38.2596C47.1105 35.6694 45.0107 33.5696 42.4205 33.5696C39.8303 33.5696 37.7305 35.6694 37.7305 38.2596C37.7305 40.8498 39.8303 42.9496 42.4205 42.9496Z"
              fill="white" stroke="#56437E" stroke-width="2" stroke-miterlimit="10"/>
        <path d="M18.5599 62.4596C20.4542 62.4596 21.9899 60.9239 21.9899 59.0296C21.9899 57.1353 20.4542 55.5996 18.5599 55.5996C16.6655 55.5996 15.1299 57.1353 15.1299 59.0296C15.1299 60.9239 16.6655 62.4596 18.5599 62.4596Z"
              fill="white" stroke="#56437E" stroke-width="2" stroke-miterlimit="10"/>
        <path d="M25.7902 35.6495L15.6602 57.2095" stroke="#56437E" stroke-width="2" stroke-miterlimit="10"/>
        <path d="M56.23 59.9495C57.7598 59.9495 59 58.7094 59 57.1795C59 55.6497 57.7598 54.4095 56.23 54.4095C54.7001 54.4095 53.46 55.6497 53.46 57.1795C53.46 58.7094 54.7001 59.9495 56.23 59.9495Z"
              fill="#56437E"/>
    </symbol>

    <symbol viewBox="0 0 100 68" id="6">
        <path fill-rule="evenodd" clip-rule="evenodd"
              d="M96.77 67.6796C99.6306 60.112 100.612 51.9633 99.6305 43.9328C98.6488 35.9024 95.7332 28.2301 91.1338 21.5745C86.5344 14.9188 80.3887 9.47867 73.2242 5.7209C66.0596 1.96313 58.0902 0 50 0C41.9098 0 33.9404 1.96313 26.7758 5.7209C19.6113 9.47867 13.4656 14.9188 8.86621 21.5745C4.26684 28.2301 1.35118 35.9024 0.369482 43.9328C-0.612213 51.9633 0.36938 60.112 3.23001 67.6796H96.77Z"
        />
        <path d="M75.3 48.6796H24V54.2896H75.3V48.6796Z" fill="#D1BBFF"/>
        <path d="M56.0098 38.8296L45.2198 39.0196L43.0498 30.6096H57.9998L56.0098 38.8296Z" fill="#D1BBFF"/>
        <path d="M27 19.6796C26.2044 19.6796 25.4413 19.9956 24.8787 20.5582C24.3161 21.1209 24 21.8839 24 22.6796V51.6796C24 52.4752 24.3161 53.2383 24.8787 53.8009C25.4413 54.3635 26.2044 54.6796 27 54.6796H73C73.7956 54.6796 74.5587 54.3635 75.1213 53.8009C75.6839 53.2383 76 52.4752 76 51.6796V22.6796C76 21.8839 75.6839 21.1209 75.1213 20.5582C74.5587 19.9956 73.7956 19.6796 73 19.6796H60"
              stroke="#56437E" stroke-width="2" stroke-miterlimit="10"/>
        <path d="M39 63.6796L41 61.6796H60L62 63.6796" stroke="#56437E" stroke-width="2" stroke-miterlimit="10"/>
        <path d="M44 59.6796V54.6796H57V59.6796" stroke="#56437E" stroke-width="2" stroke-miterlimit="10"/>
        <path d="M24 48.6796H76" stroke="#56437E" stroke-width="2" stroke-miterlimit="10"/>
        <path d="M26.9004 19.6796H60.0004" stroke="#56437E" stroke-width="2" stroke-miterlimit="10"/>
        <path d="M45.9099 44.3996C46.0823 44.4016 46.2515 44.3523 46.3959 44.2579C46.5403 44.1635 46.6534 44.0283 46.7207 43.8695C46.7881 43.7107 46.8068 43.5355 46.7743 43.3661C46.7419 43.1967 46.6599 43.0407 46.5386 42.9181C46.4173 42.7954 46.2623 42.7115 46.0933 42.6771C45.9243 42.6427 45.7488 42.6594 45.5893 42.7249C45.4297 42.7905 45.2933 42.902 45.1972 43.0452C45.1012 43.1885 45.0499 43.3571 45.0499 43.5296C45.0485 43.6434 45.0698 43.7563 45.1124 43.8618C45.1551 43.9673 45.2182 44.0633 45.2982 44.1442C45.3782 44.2251 45.4734 44.2894 45.5784 44.3332C45.6834 44.377 45.7961 44.3996 45.9099 44.3996Z"
              stroke="#56437E" stroke-width="2" stroke-miterlimit="10"/>
        <path d="M55.4099 44.3996C55.5823 44.4016 55.7515 44.3523 55.8959 44.2579C56.0403 44.1635 56.1534 44.0283 56.2207 43.8695C56.2881 43.7107 56.3068 43.5355 56.2743 43.3661C56.2419 43.1967 56.1599 43.0407 56.0386 42.9181C55.9173 42.7954 55.7623 42.7115 55.5933 42.6771C55.4243 42.6427 55.2488 42.6594 55.0893 42.7249C54.9297 42.7905 54.7933 42.902 54.6972 43.0452C54.6012 43.1885 54.5499 43.3571 54.5499 43.5296C54.5485 43.6434 54.5698 43.7563 54.6124 43.8618C54.6551 43.9673 54.7182 44.0633 54.7982 44.1442C54.8782 44.2251 54.9734 44.2894 55.0784 44.3332C55.1834 44.377 55.2961 44.3996 55.4099 44.3996Z"
              stroke="#56437E" stroke-width="2" stroke-miterlimit="10"/>
        <path d="M39 26.2595H42.45L44.77 37.8195C44.8478 38.2182 45.0642 38.5764 45.3808 38.8309C45.6975 39.0853 46.0939 39.2194 46.5 39.2095H54.89C55.2935 39.2195 55.6873 39.0847 56 38.8295C56.3128 38.5767 56.5283 38.2233 56.61 37.8295L58 30.5795H43.32"
              stroke="#56437E" stroke-width="2" stroke-miterlimit="10"/>
        <path d="M76.6201 66.6796H81.6201" stroke="#56437E" stroke-width="2" stroke-miterlimit="10"/>
        <path d="M24.6201 66.6796H74.6201" stroke="#56437E" stroke-width="2" stroke-miterlimit="10"/>
        <path d="M19.6201 66.6796H22.6201" stroke="#56437E" stroke-width="2" stroke-miterlimit="10"/>
    </symbol>

    <symbol viewBox="0 0 100 68" id="7">
        <path fill-rule="evenodd" clip-rule="evenodd"
              d="M96.77 68C99.6306 60.4324 100.612 52.2837 99.6305 44.2533C98.6488 36.2228 95.7332 28.5505 91.1338 21.8949C86.5344 15.2393 80.3887 9.79911 73.2242 6.04134C66.0596 2.28357 58.0902 0.320435 50 0.320435C41.9098 0.320435 33.9404 2.28357 26.7758 6.04134C19.6113 9.79911 13.4656 15.2393 8.86621 21.8949C4.26684 28.5505 1.35118 36.2228 0.369482 44.2533C-0.612213 52.2837 0.36938 60.4324 3.23001 68H96.77Z"
        />
        <path d="M76.8896 67H81.8896" stroke="#56437E" stroke-width="2" stroke-miterlimit="10"/>
        <path d="M24.8896 67H74.8896" stroke="#56437E" stroke-width="2" stroke-miterlimit="10"/>
        <path d="M19.8896 67H22.8896" stroke="#56437E" stroke-width="2" stroke-miterlimit="10"/>
        <path d="M66.4003 17.8199H35.7403C34.5419 17.8199 33.5703 18.7915 33.5703 19.9899V60.1999C33.5703 61.3984 34.5419 62.3699 35.7403 62.3699H66.4003C67.5988 62.3699 68.5703 61.3984 68.5703 60.1999V19.9899C68.5703 18.7915 67.5988 17.8199 66.4003 17.8199Z"
              stroke="#56437E" stroke-width="2" stroke-miterlimit="10"/>
        <path d="M35.1602 62.37V65.55H39.9302V62.37" stroke="#56437E" stroke-width="2" stroke-miterlimit="10"/>
        <path d="M62.2002 62.37V65.55H66.9802V62.37" stroke="#56437E" stroke-width="2" stroke-miterlimit="10"/>
        <path d="M65.3805 21H59.0205V33.73H65.3805V21Z" fill="#D1BBFF"/>
        <path d="M59.8203 38.3999H61.4103" stroke="#56437E" stroke-width="2" stroke-miterlimit="10"/>
        <path d="M63 38.3999H64.59" stroke="#56437E" stroke-width="2" stroke-miterlimit="10"/>
        <path d="M59.8203 41.59H61.4103" stroke="#56437E" stroke-width="2" stroke-miterlimit="10"/>
        <path d="M63 41.59H64.59" stroke="#56437E" stroke-width="2" stroke-miterlimit="10"/>
        <path d="M33.5703 46.46H68.5703" stroke="#56437E" stroke-width="2" stroke-miterlimit="10"/>
        <path d="M55.8398 17.8199V62.3699" stroke="#56437E" stroke-width="2" stroke-miterlimit="10"/>
        <path d="M65.3803 54.4099H60.6104V59.1799H65.3803V54.4099Z" stroke="#56437E" stroke-width="2"
              stroke-miterlimit="10"/>
        <path d="M52.0603 51.23H37.3203V57.59H52.0603V51.23Z" stroke="#56437E" stroke-width="2" stroke-miterlimit="10"/>
        <path d="M52.66 21H36.75V43.27H52.66V21Z" fill="#D1BBFF" stroke="#56437E" stroke-width="2" stroke-miterlimit="10"/>
        <path d="M36.75 30.5499H52.66" stroke="#56437E" stroke-width="2" stroke-miterlimit="10"/>
        <path d="M36.75 40.09H52.66" stroke="#56437E" stroke-width="2" stroke-miterlimit="10"/>
        <path d="M39.9307 30.5499V25.7699H43.1107V30.5499" stroke="#56437E" stroke-width="2" stroke-miterlimit="10"/>
        <path d="M46.3008 30.5499V25.7699H49.4808V30.5499" stroke="#56437E" stroke-width="2" stroke-miterlimit="10"/>
        <path d="M39.9307 40.0899V35.3199H43.1107V40.0899" stroke="#56437E" stroke-width="2" stroke-miterlimit="10"/>
        <path d="M46.3008 40.0899V35.3199H49.4808V40.0899" stroke="#56437E" stroke-width="2" stroke-miterlimit="10"/>
        <path d="M59.0205 24.1799H65.3905" stroke="#56437E" stroke-width="2" stroke-miterlimit="10"/>
        <path d="M59.0205 27.37H65.3905" stroke="#56437E" stroke-width="2" stroke-miterlimit="10"/>
        <path d="M59.0205 30.5499H65.3905" stroke="#56437E" stroke-width="2" stroke-miterlimit="10"/>
        <path d="M42.6504 26.08H40.3604V29.55H42.6504V26.08Z" fill="#F0F0F0"/>
        <path d="M49.0302 26.08H46.7402V29.55H49.0302V26.08Z" fill="#F0F0F0"/>
        <path d="M42.7099 35.65H40.4199V39.12H42.7099V35.65Z" fill="#F0F0F0"/>
        <path d="M49.0302 35.65H46.7402V39.12H49.0302V35.65Z" fill="#F0F0F0"/>
    </symbol>


    <symbol viewBox="0 0 24 24" id="cart">
        <path d="M9 22C9.55228 22 10 21.5523 10 21C10 20.4477 9.55228 20 9 20C8.44772 20 8 20.4477 8 21C8 21.5523 8.44772 22 9 22Z"
               stroke-width="2" stroke-linecap="round" stroke-linejoin="round"/>
        <path d="M20 22C20.5523 22 21 21.5523 21 21C21 20.4477 20.5523 20 20 20C19.4477 20 19 20.4477 19 21C19 21.5523 19.4477 22 20 22Z"
               stroke-width="2" stroke-linecap="round" stroke-linejoin="round"/>
        <path d="M1 1H5L7.68 14.39C7.77144 14.8504 8.02191 15.264 8.38755 15.5583C8.75318 15.8526 9.2107 16.009 9.68 16H19.4C19.8693 16.009 20.3268 15.8526 20.6925 15.5583C21.0581 15.264 21.3086 14.8504 21.4 14.39L23 6H6"
               stroke-width="2" stroke-linecap="round" stroke-linejoin="round"/>
    </symbol>

</svg>